Veleka-BoldItalic.ufo
<glyph name="dollar" format="1">
  <advance width="598"/>
  <unicode hex="0024"/>
  <outline>
    <contour>
      <point x="586" y="639" type="curve"/>
      <point x="553" y="472" type="line"/>
      <point x="484" y="472" type="line"/>
      <point x="486" y="577" type="line" smooth="yes"/>
      <point x="487" y="585"/>
      <point x="483" y="587"/>
      <point x="478" y="589" type="curve" smooth="yes"/>
      <point x="458" y="598"/>
      <point x="411" y="607"/>
      <point x="399" y="607" type="curve"/>
      <point x="358" y="401" type="line"/>
      <point x="420" y="383"/>
      <point x="563" y="345"/>
      <point x="535" y="205" type="curve" smooth="yes"/>
      <point x="513" y="91"/>
      <point x="409" y="19"/>
      <point x="279" y="1" type="curve"/>
      <point x="259" y="-102" type="line"/>
      <point x="200" y="-102" type="line"/>
      <point x="220" y="0" type="line"/>
      <point x="220" y="0"/>
      <point x="101" y="5"/>
      <point x="21" y="33" type="curve"/>
      <point x="55" y="206" type="line"/>
      <point x="127" y="206" type="line"/>
      <point x="124" y="98" type="line" smooth="yes"/>
      <point x="124" y="86"/>
      <point x="123" y="89"/>
      <point x="132" y="84" type="curve" smooth="yes"/>
      <point x="170" y="63"/>
      <point x="232" y="62"/>
      <point x="232" y="62" type="curve"/>
      <point x="275" y="282" type="line"/>
      <point x="205" y="304"/>
      <point x="88" y="342"/>
      <point x="115" y="477" type="curve" smooth="yes"/>
      <point x="151" y="660"/>
      <point x="352" y="668"/>
      <point x="352" y="668" type="curve"/>
      <point x="367" y="742" type="line"/>
      <point x="426" y="742" type="line"/>
      <point x="411" y="668" type="line"/>
      <point x="493" y="668"/>
      <point x="586" y="639"/>
    </contour>
    <contour>
      <point x="339" y="604" type="line"/>
      <point x="339" y="604"/>
      <point x="266" y="599"/>
      <point x="249" y="513" type="curve" smooth="yes"/>
      <point x="233" y="432"/>
      <point x="302" y="415"/>
      <point x="302" y="415" type="curve"/>
    </contour>
    <contour>
      <point x="401" y="169" type="curve" smooth="yes"/>
      <point x="414" y="235"/>
      <point x="364" y="258"/>
      <point x="332" y="267" type="curve"/>
      <point x="292" y="65" type="line"/>
      <point x="292" y="65"/>
      <point x="382" y="72"/>
    </contour>
  </outline>
</glyph>
<glyph name="percent" format="1">
  <advance width="899"/>
  <unicode hex="0025"/>
  <outline>
    <contour>
      <point x="861" y="261" type="curve" smooth="yes"/>
      <point x="861" y="128"/>
      <point x="790" y="-16"/>
      <point x="641" y="-16" type="curve" smooth="yes"/>
      <point x="550" y="-16"/>
      <point x="505" y="34"/>
      <point x="505" y="124" type="curve" smooth="yes"/>
      <point x="505" y="256"/>
      <point x="574" y="402"/>
      <point x="724" y="402" type="curve" smooth="yes"/>
      <point x="815" y="402"/>
      <point x="861" y="351"/>
    </contour>
    <contour>
      <point x="775" y="671" type="line"/>
      <point x="226" y="0" type="line"/>
      <point x="154" y="0" type="line"/>
      <point x="702" y="671" type="line"/>
    </contour>
    <contour>
      <point x="424" y="546" type="curve" smooth="yes"/>
      <point x="424" y="414"/>
      <point x="354" y="268"/>
      <point x="205" y="268" type="curve" smooth="yes"/>
      <point x="113" y="268"/>
      <point x="67" y="320"/>
      <point x="67" y="410" type="curve" smooth="yes"/>
      <point x="67" y="542"/>
      <point x="138" y="687"/>
      <point x="287" y="687" type="curve" smooth="yes"/>
      <point x="378" y="687"/>
      <point x="424" y="636"/>
    </contour>
    <contour>
      <point x="756" y="285" type="curve" smooth="yes"/>
      <point x="756" y="313"/>
      <point x="751" y="355"/>
      <point x="714" y="355" type="curve" smooth="yes"/>
      <point x="633" y="355"/>
      <point x="604" y="169"/>
      <point x="604" y="109" type="curve" smooth="yes"/>
      <point x="604" y="78"/>
      <point x="610" y="31"/>
      <point x="650" y="31" type="curve" smooth="yes"/>
      <point x="728" y="31"/>
      <point x="756" y="228"/>
    </contour>
    <contour>
      <point x="320" y="569" type="curve" smooth="yes"/>
      <point x="320" y="598"/>
      <point x="315" y="640"/>
      <point x="278" y="640" type="curve" smooth="yes"/>
      <point x="196" y="640"/>
      <point x="167" y="455"/>
      <point x="167" y="396" type="curve" smooth="yes"/>
      <point x="167" y="364"/>
      <point x="173" y="315"/>
      <point x="214" y="315" type="curve" smooth="yes"/>
      <point x="291" y="315"/>
      <point x="320" y="513"/>
    </contour>
  </outline>
</glyph>
<glyph name="quotesingle" format="1">
  <advance width="174"/>
  <unicode hex="0027"/>
  <outline>
    <contour>
      <point x="225" y="669" type="curve" smooth="yes"/>
      <point x="225" y="637"/>
      <point x="152" y="459"/>
      <point x="137" y="417" type="curve"/>
      <point x="100" y="417" type="line"/>
      <point x="107" y="651" type="line" smooth="yes"/>
      <point x="109" y="687"/>
      <point x="143" y="714"/>
      <point x="177" y="714" type="curve" smooth="yes"/>
      <point x="206" y="714"/>
      <point x="225" y="700"/>
    </contour>
  </outline>
</glyph>
<glyph name="parenright" format="1">
  <advance width="423"/>
  <unicode hex="0029"/>
  <outline>
    <contour>
      <point x="353" y="439" type="curve" smooth="yes"/>
      <point x="353" y="202"/>
      <point x="234" y="-134"/>
      <point x="-48" y="-142" type="curve"/>
      <point x="-38" y="-88" type="line"/>
      <point x="164" y="-62"/>
      <point x="232" y="304"/>
      <point x="232" y="479" type="curve" smooth="yes"/>
      <point x="232" y="566"/>
      <point x="210" y="650"/>
      <point x="111" y="663" type="curve"/>
      <point x="122" y="717" type="line"/>
      <point x="289" y="712"/>
      <point x="353" y="593"/>
    </contour>
  </outline>
</glyph>
<glyph name="period" format="1">
  <advance width="317"/>
  <unicode hex="002E"/>
  <outline>
    <contour>
      <point x="191" y="71" type="curve" smooth="yes"/>
      <point x="191" y="25"/>
      <point x="154" y="-12"/>
      <point x="108" y="-12" type="curve" smooth="yes"/>
      <point x="62" y="-12"/>
      <point x="24" y="25"/>
      <point x="24" y="71" type="curve" smooth="yes"/>
      <point x="24" y="117"/>
      <point x="62" y="155"/>
      <point x="108" y="155" type="curve" smooth="yes"/>
      <point x="154" y="155"/>
      <point x="191" y="117"/>
    </contour>
  </outline>
</glyph>
<glyph name="zero" format="1">
  <advance width="598"/>
  <unicode hex="0030"/>
  <outline>
    <contour>
      <point x="593" y="460" type="curve" smooth="yes"/>
      <point x="593" y="234"/>
      <point x="474" y="-16"/>
      <point x="249" y="-16" type="curve" smooth="yes"/>
      <point x="98" y="-16"/>
      <point x="34" y="74"/>
      <point x="34" y="210" type="curve" smooth="yes"/>
      <point x="34" y="413"/>
      <point x="136" y="687"/>
      <point x="380" y="687" type="curve" smooth="yes"/>
      <point x="539" y="687"/>
      <point x="593" y="581"/>
    </contour>
    <contour>
      <point x="443" y="478" type="curve" smooth="yes"/>
      <point x="443" y="590"/>
      <point x="395" y="626"/>
      <point x="370" y="626" type="curve" smooth="yes"/>
      <point x="274" y="626"/>
      <point x="185" y="384"/>
      <point x="185" y="194" type="curve" smooth="yes"/>
      <point x="185" y="55"/>
      <point x="249" y="46"/>
      <point x="259" y="46" type="curve" smooth="yes"/>
      <point x="349" y="46"/>
      <point x="443" y="286"/>
    </contour>
  </outline>
</glyph>
<glyph name="one" format="1">
  <advance width="598"/>
  <unicode hex="0031"/>
  <outline>
    <contour>
      <point x="466" y="687" type="line"/>
      <point x="346" y="76" type="line" smooth="yes"/>
      <point x="344" y="68"/>
      <point x="353" y="63"/>
      <point x="365" y="62" type="curve" smooth="yes"/>
      <point x="440" y="55" type="line"/>
      <point x="440" y="0" type="line"/>
      <point x="84" y="0" type="line"/>
      <point x="84" y="56" type="line"/>
      <point x="187" y="62" type="line" smooth="yes"/>
      <point x="195" y="62"/>
      <point x="203" y="69"/>
      <point x="204" y="76" type="curve" smooth="yes"/>
      <point x="304" y="583" type="line"/>
      <point x="149" y="562" type="line"/>
      <point x="149" y="618" type="line"/>
      <point x="398" y="687" type="line"/>
    </contour>
  </outline>
</glyph>
<glyph name="three" format="1">
  <advance width="598"/>
  <unicode hex="0033"/>
  <outline>
    <contour>
      <point x="575" y="542" type="curve" smooth="yes"/>
      <point x="575" y="475"/>
      <point x="522" y="400"/>
      <point x="399" y="359" type="curve"/>
      <point x="486" y="342"/>
      <point x="534" y="302"/>
      <point x="534" y="230" type="curve" smooth="yes"/>
      <point x="534" y="108"/>
      <point x="409" y="-16"/>
      <point x="211" y="-16" type="curve" smooth="yes"/>
      <point x="67" y="-16"/>
      <point x="11" y="52"/>
      <point x="11" y="98" type="curve" smooth="yes"/>
      <point x="11" y="118"/>
      <point x="37" y="170"/>
      <point x="89" y="170" type="curve" smooth="yes"/>
      <point x="120" y="170"/>
      <point x="135" y="153"/>
      <point x="148" y="147" type="curve"/>
      <point x="164" y="63" type="line"/>
      <point x="172" y="58"/>
      <point x="202" y="45"/>
      <point x="223" y="45" type="curve" smooth="yes"/>
      <point x="293" y="45"/>
      <point x="380" y="114"/>
      <point x="380" y="216" type="curve" smooth="yes"/>
      <point x="380" y="310"/>
      <point x="301" y="317"/>
      <point x="290" y="317" type="curve" smooth="yes"/>
      <point x="271" y="317"/>
      <point x="254" y="314"/>
      <point x="197" y="305" type="curve"/>
      <point x="208" y="383" type="line"/>
      <point x="330" y="377"/>
      <point x="419" y="434"/>
      <point x="419" y="529" type="curve" smooth="yes"/>
      <point x="419" y="609"/>
      <point x="353" y="626"/>
      <point x="340" y="626" type="curve" smooth="yes"/>
      <point x="304" y="626"/>
      <point x="278" y="609"/>
      <point x="267" y="601" type="curve"/>
      <point x="251" y="506" type="line"/>
      <point x="237" y="500"/>
      <point x="204" y="485"/>
      <point x="181" y="485" type="curve" smooth="yes"/>
      <point x="152" y="485"/>
      <point x="113" y="516"/>
      <point x="113" y="553" type="curve" smooth="yes"/>
      <point x="113" y="631"/>
      <point x="229" y="687"/>
      <point x="373" y="687" type="curve" smooth="yes"/>
      <point x="513" y="687"/>
      <point x="575" y="630"/>
    </contour>
  </outline>
</glyph>
<glyph name="four" format="1">
  <advance width="598"/>
  <unicode hex="0034"/>
  <outline>
    <contour>
      <point x="565" y="277" type="line"/>
      <point x="550" y="199" type="line"/>
      <point x="457" y="199" type="line"/>
      <point x="413" y="-27" type="line"/>
      <point x="277" y="-27" type="line"/>
      <point x="322" y="199" type="line"/>
      <point x="21" y="199" type="line"/>
      <point x="34" y="271" type="line"/>
      <point x="441" y="687" type="line"/>
      <point x="554" y="687" type="line"/>
      <point x="474" y="277" type="line"/>
    </contour>
    <contour>
      <point x="378" y="479" type="line"/>
      <point x="181" y="277" type="line"/>
      <point x="338" y="277" type="line"/>
    </contour>
  </outline>
</glyph>
<glyph name="six" format="1">
  <advance width="598"/>
  <unicode hex="0036"/>
  <outline>
    <contour>
      <point x="561" y="272" type="curve" smooth="yes"/>
      <point x="561" y="123"/>
      <point x="446" y="-16"/>
      <point x="267" y="-16" type="curve" smooth="yes"/>
      <point x="148" y="-16"/>
      <point x="34" y="38"/>
      <point x="34" y="217" type="curve" smooth="yes"/>
      <point x="34" y="456"/>
      <point x="214" y="684"/>
      <point x="548" y="719" type="curve"/>
      <point x="549" y="654" type="line"/>
      <point x="391" y="637"/>
      <point x="273" y="548"/>
      <point x="227" y="430" type="curve"/>
      <point x="263" y="446"/>
      <point x="306" y="456"/>
      <point x="357" y="456" type="curve" smooth="yes"/>
      <point x="490" y="456"/>
      <point x="561" y="380"/>
    </contour>
    <contour>
      <point x="413" y="247" type="curve" smooth="yes"/>
      <point x="413" y="337"/>
      <point x="370" y="382"/>
      <point x="314" y="382" type="curve" smooth="yes"/>
      <point x="293" y="382"/>
      <point x="256" y="375"/>
      <point x="202" y="335" type="curve"/>
      <point x="198" y="321"/>
      <point x="182" y="252"/>
      <point x="182" y="206" type="curve" smooth="yes"/>
      <point x="182" y="141"/>
      <point x="183" y="44"/>
      <point x="272" y="44" type="curve" smooth="yes"/>
      <point x="329" y="44"/>
      <point x="413" y="131"/>
    </contour>
  </outline>
</glyph>
<glyph name="eight" format="1">
  <advance width="598"/>
  <unicode hex="0038"/>
  <outline>
    <contour>
      <point x="572" y="543" type="curve" smooth="yes"/>
      <point x="572" y="441"/>
      <point x="505" y="393"/>
      <point x="425" y="356" type="curve"/>
      <point x="478" y="332"/>
      <point x="547" y="290"/>
      <point x="547" y="211" type="curve" smooth="yes"/>
      <point x="547" y="92"/>
      <point x="431" y="-16"/>
      <point x="249" y="-16" type="curve" smooth="yes"/>
      <point x="87" y="-16"/>
      <point x="15" y="57"/>
      <point x="15" y="151" type="curve" smooth="yes"/>
      <point x="15" y="214"/>
      <point x="55" y="297"/>
      <point x="182" y="354" type="curve"/>
      <point x="116" y="391"/>
      <point x="103" y="438"/>
      <point x="103" y="476" type="curve" smooth="yes"/>
      <point x="103" y="581"/>
      <point x="191" y="687"/>
      <point x="368" y="687" type="curve" smooth="yes"/>
      <point x="515" y="687"/>
      <point x="572" y="618"/>
    </contour>
    <contour>
      <point x="435" y="534" type="curve" smooth="yes"/>
      <point x="435" y="590"/>
      <point x="415" y="629"/>
      <point x="359" y="629" type="curve" smooth="yes"/>
      <point x="311" y="629"/>
      <point x="245" y="576"/>
      <point x="245" y="498" type="curve" smooth="yes"/>
      <point x="245" y="450"/>
      <point x="285" y="419"/>
      <point x="349" y="389" type="curve"/>
      <point x="401" y="421"/>
      <point x="435" y="470"/>
    </contour>
    <contour>
      <point x="398" y="184" type="curve" smooth="yes"/>
      <point x="398" y="239"/>
      <point x="329" y="280"/>
      <point x="252" y="315" type="curve"/>
      <point x="197" y="282"/>
      <point x="157" y="234"/>
      <point x="157" y="168" type="curve" smooth="yes"/>
      <point x="157" y="102"/>
      <point x="188" y="48"/>
      <point x="267" y="48" type="curve" smooth="yes"/>
      <point x="326" y="48"/>
      <point x="398" y="110"/>
    </contour>
  </outline>
</glyph>
<glyph name="nine" format="1">
  <advance width="598"/>
  <unicode hex="0039"/>
  <outline>
    <contour>
      <point x="599" y="475" type="curve" smooth="yes"/>
      <point x="599" y="184"/>
      <point x="332" y="17"/>
      <point x="73" y="-63" type="curve"/>
      <point x="46" y="-2" type="line"/>
      <point x="181" y="50"/>
      <point x="290" y="108"/>
      <point x="384" y="245" type="curve"/>
      <point x="347" y="232"/>
      <point x="306" y="224"/>
      <point x="268" y="224" type="curve" smooth="yes"/>
      <point x="159" y="224"/>
      <point x="65" y="279"/>
      <point x="65" y="404" type="curve" smooth="yes"/>
      <point x="65" y="553"/>
      <point x="185" y="687"/>
      <point x="374" y="687" type="curve" smooth="yes"/>
      <point x="468" y="687"/>
      <point x="599" y="657"/>
    </contour>
    <contour>
      <point x="451" y="474" type="curve" smooth="yes"/>
      <point x="451" y="607"/>
      <point x="379" y="629"/>
      <point x="357" y="629" type="curve" smooth="yes"/>
      <point x="296" y="629"/>
      <point x="216" y="539"/>
      <point x="216" y="424" type="curve" smooth="yes"/>
      <point x="216" y="323"/>
      <point x="287" y="293"/>
      <point x="313" y="293" type="curve" smooth="yes"/>
      <point x="378" y="293"/>
      <point x="422" y="339"/>
      <point x="432" y="349" type="curve"/>
      <point x="440" y="391"/>
      <point x="451" y="432"/>
    </contour>
  </outline>
</glyph>
<glyph name="question" format="1">
  <advance width="535"/>
  <unicode hex="003F"/>
  <outline>
    <contour>
      <point x="513" y="534" type="curve" smooth="yes"/>
      <point x="513" y="398"/>
      <point x="371" y="307"/>
      <point x="250" y="283" type="curve"/>
      <point x="233" y="198" type="line"/>
      <point x="165" y="198" type="line"/>
      <point x="191" y="331" type="line"/>
      <point x="285" y="350"/>
      <point x="373" y="431"/>
      <point x="373" y="531" type="curve" smooth="yes"/>
      <point x="373" y="598"/>
      <point x="325" y="626"/>
      <point x="264" y="626" type="curve"/>
      <point x="205" y="511" type="line" smooth="yes"/>
      <point x="202" y="509"/>
      <point x="185" y="504"/>
      <point x="183" y="504" type="curve" smooth="yes"/>
      <point x="150" y="504"/>
      <point x="107" y="511"/>
      <point x="107" y="553" type="curve" smooth="yes"/>
      <point x="107" y="651"/>
      <point x="241" y="687"/>
      <point x="319" y="687" type="curve" smooth="yes"/>
      <point x="415" y="687"/>
      <point x="513" y="643"/>
    </contour>
    <contour>
      <point x="260" y="65" type="curve" smooth="yes"/>
      <point x="260" y="21"/>
      <point x="222" y="-12"/>
      <point x="178" y="-12" type="curve" smooth="yes"/>
      <point x="134" y="-12"/>
      <point x="102" y="26"/>
      <point x="102" y="69" type="curve" smooth="yes"/>
      <point x="102" y="113"/>
      <point x="135" y="149"/>
      <point x="179" y="149" type="curve" smooth="yes"/>
      <point x="226" y="149"/>
      <point x="260" y="110"/>
    </contour>
  </outline>
</glyph>
<glyph name="at" format="1">
  <advance width="936"/>
  <unicode hex="0040"/>
  <outline>
    <contour>
      <point x="878" y="368" type="curve" smooth="yes"/>
      <point x="878" y="170"/>
      <point x="738" y="50"/>
      <point x="620" y="50" type="curve" smooth="yes"/>
      <point x="559" y="50"/>
      <point x="540" y="83"/>
      <point x="534" y="120" type="curve"/>
      <point x="493" y="85"/>
      <point x="448" y="51"/>
      <point x="397" y="51" type="curve" smooth="yes"/>
      <point x="306" y="51"/>
      <point x="258" y="121"/>
      <point x="258" y="217" type="curve" smooth="yes"/>
      <point x="258" y="366"/>
      <point x="376" y="490"/>
      <point x="521" y="490" type="curve" smooth="yes"/>
      <point x="552" y="490"/>
      <point x="586" y="472"/>
      <point x="612" y="460" type="curve"/>
      <point x="625" y="485" type="line"/>
      <point x="709" y="485" type="line"/>
      <point x="703" y="466"/>
      <point x="639" y="188"/>
      <point x="639" y="188" type="curve" smooth="yes"/>
      <point x="629" y="144"/>
      <point x="626" y="114"/>
      <point x="662" y="114" type="curve" smooth="yes"/>
      <point x="702" y="114"/>
      <point x="801" y="206"/>
      <point x="801" y="367" type="curve" smooth="yes"/>
      <point x="801" y="556"/>
      <point x="658" y="636"/>
      <point x="535" y="636" type="curve" smooth="yes"/>
      <point x="325" y="636"/>
      <point x="159" y="477"/>
      <point x="159" y="253" type="curve" smooth="yes"/>
      <point x="159" y="48"/>
      <point x="292" y="-101"/>
      <point x="495" y="-101" type="curve" smooth="yes"/>
      <point x="600" y="-101"/>
      <point x="683" y="-64"/>
      <point x="768" y="-17" type="curve"/>
      <point x="789" y="-67" type="line"/>
      <point x="699" y="-114"/>
      <point x="598" y="-157"/>
      <point x="471" y="-157" type="curve" smooth="yes"/>
      <point x="238" y="-157"/>
      <point x="58" y="-3"/>
      <point x="58" y="235" type="curve" smooth="yes"/>
      <point x="58" y="527"/>
      <point x="281" y="687"/>
      <point x="522" y="687" type="curve" smooth="yes"/>
      <point x="739" y="687"/>
      <point x="878" y="570"/>
    </contour>
    <contour>
      <point x="570" y="388" type="line" smooth="yes"/>
      <point x="573" y="404"/>
      <point x="559" y="441"/>
      <point x="525" y="441" type="curve" smooth="yes"/>
      <point x="445" y="441"/>
      <point x="378" y="350"/>
      <point x="378" y="226" type="curve" smooth="yes"/>
      <point x="378" y="151"/>
      <point x="411" y="122"/>
      <point x="442" y="122" type="curve" smooth="yes"/>
      <point x="485" y="122"/>
      <point x="510" y="159"/>
      <point x="530" y="183" type="curve"/>
    </contour>
  </outline>
</glyph>
<glyph name="C" format="1">
  <advance width="671"/>
  <unicode hex="0043"/>
  <outline>
    <contour>
      <point x="687" y="645" type="curve"/>
      <point x="656" y="469" type="line"/>
      <point x="582" y="469" type="line"/>
      <point x="583" y="581" type="line" smooth="yes"/>
      <point x="584" y="589"/>
      <point x="578" y="601"/>
      <point x="568" y="604" type="curve" smooth="yes"/>
      <point x="557" y="610"/>
      <point x="506" y="626"/>
      <point x="476" y="626" type="curve" smooth="yes"/>
      <point x="349" y="626"/>
      <point x="196" y="489"/>
      <point x="196" y="257" type="curve" smooth="yes"/>
      <point x="196" y="105"/>
      <point x="294" y="45"/>
      <point x="380" y="45" type="curve" smooth="yes"/>
      <point x="408" y="45"/>
      <point x="451" y="54"/>
      <point x="463" y="60" type="curve" smooth="yes"/>
      <point x="473" y="61"/>
      <point x="478" y="69"/>
      <point x="481" y="76" type="curve" smooth="yes"/>
      <point x="529" y="208" type="line"/>
      <point x="604" y="208" type="line"/>
      <point x="573" y="27" type="line"/>
      <point x="522" y="9"/>
      <point x="441" y="-16"/>
      <point x="347" y="-16" type="curve" smooth="yes"/>
      <point x="122" y="-16"/>
      <point x="48" y="132"/>
      <point x="48" y="268" type="curve" smooth="yes"/>
      <point x="48" y="474"/>
      <point x="206" y="687"/>
      <point x="471" y="687" type="curve" smooth="yes"/>
      <point x="548" y="687"/>
      <point x="608" y="670"/>
    </contour>
  </outline>
</glyph>
<glyph name="F" format="1">
  <advance width="556"/>
  <unicode hex="0046"/>
  <outline>
    <contour>
      <point x="612" y="671" type="line"/>
      <point x="579" y="502" type="line"/>
      <point x="498" y="502" type="line"/>
      <point x="498" y="598" type="line" smooth="yes"/>
      <point x="498" y="608"/>
      <point x="486" y="611"/>
      <point x="475" y="611" type="curve" smooth="yes"/>
      <point x="316" y="611" type="line"/>
      <point x="269" y="369" type="line"/>
      <point x="375" y="369" type="line" smooth="yes"/>
      <point x="385" y="369"/>
      <point x="400" y="373"/>
      <point x="403" y="383" type="curve" smooth="yes"/>
      <point x="423" y="455" type="line"/>
      <point x="497" y="455" type="line"/>
      <point x="451" y="219" type="line"/>
      <point x="376" y="219" type="line"/>
      <point x="387" y="294" type="line" smooth="yes"/>
      <point x="388" y="303"/>
      <point x="374" y="308"/>
      <point x="364" y="308" type="curve" smooth="yes"/>
      <point x="257" y="308" type="line"/>
      <point x="210" y="70" type="line" smooth="yes"/>
      <point x="208" y="58"/>
      <point x="216" y="56"/>
      <point x="229" y="55" type="curve" smooth="yes"/>
      <point x="229" y="55"/>
      <point x="261" y="53"/>
      <point x="294" y="50" type="curve"/>
      <point x="294" y="0" type="line"/>
      <point x="-15" y="0" type="line"/>
      <point x="-15" y="50" type="line"/>
      <point x="12" y="53"/>
      <point x="42" y="55"/>
      <point x="42" y="55" type="curve" smooth="yes"/>
      <point x="57" y="56"/>
      <point x="64" y="58"/>
      <point x="67" y="71" type="curve" smooth="yes"/>
      <point x="171" y="601" type="line" smooth="yes"/>
      <point x="173" y="613"/>
      <point x="165" y="615"/>
      <point x="152" y="616" type="curve" smooth="yes"/>
      <point x="152" y="616"/>
      <point x="122" y="618"/>
      <point x="95" y="621" type="curve"/>
      <point x="95" y="671" type="line"/>
    </contour>
  </outline>
</glyph>
<glyph name="bracketright" format="1">
  <advance width="448"/>
  <unicode hex="005D"/>
  <outline>
    <contour>
      <point x="403" y="708" type="line"/>
      <point x="237" y="-132" type="line"/>
      <point x="-41" y="-132" type="line"/>
      <point x="-29" y="-74" type="line"/>
      <point x="125" y="-74" type="line"/>
      <point x="268" y="648" type="line"/>
      <point x="114" y="648" type="line"/>
      <point x="126" y="708" type="line"/>
    </contour>
  </outline>
</glyph>
<glyph name="o" format="1">
  <advance width="553"/>
  <unicode hex="006F"/>
  <outline>
    <contour>
      <point x="522" y="303" type="curve" smooth="yes"/>
      <point x="522" y="146"/>
      <point x="414" y="-12"/>
      <point x="232" y="-12" type="curve" smooth="yes"/>
      <point x="95" y="-12"/>
      <point x="32" y="70"/>
      <point x="32" y="181" type="curve" smooth="yes"/>
      <point x="32" y="338"/>
      <point x="135" y="500"/>
      <point x="320" y="500" type="curve" smooth="yes"/>
      <point x="443" y="500"/>
      <point x="522" y="433"/>
    </contour>
    <contour>
      <point x="378" y="307" type="curve" smooth="yes"/>
      <point x="378" y="405"/>
      <point x="334" y="447"/>
      <point x="309" y="447" type="curve" smooth="yes"/>
      <point x="248" y="447"/>
      <point x="175" y="320"/>
      <point x="175" y="185" type="curve" smooth="yes"/>
      <point x="175" y="82"/>
      <point x="221" y="43"/>
      <point x="244" y="43" type="curve" smooth="yes"/>
      <point x="314" y="43"/>
      <point x="378" y="184"/>
    </contour>
  </outline>
</glyph>
<glyph name="asciitilde" format="1">
  <advance width="833"/>
  <unicode hex="007E"/>
  <outline>
    <contour>
      <point x="747" y="300" type="line"/>
      <point x="666" y="242"/>
      <point x="611" y="224"/>
      <point x="554" y="224" type="curve" smooth="yes"/>
      <point x="457" y="224"/>
      <point x="373" y="291"/>
      <point x="275" y="291" type="curve" smooth="yes"/>
      <point x="229" y="291"/>
      <point x="169" y="264"/>
      <point x="86" y="201" type="curve"/>
      <point x="86" y="296" type="line"/>
      <point x="161" y="353"/>
      <point x="227" y="373"/>
      <point x="281" y="373" type="curve" smooth="yes"/>
      <point x="356" y="373"/>
      <point x="423" y="336"/>
      <point x="493" y="316" type="curve" smooth="yes"/>
      <point x="514" y="310"/>
      <point x="535" y="306"/>
      <point x="555" y="306" type="curve" smooth="yes"/>
      <point x="598" y="306"/>
      <point x="652" y="324"/>
      <point x="747" y="395" type="curve"/>
    </contour>
  </outline>
</glyph>
<glyph name="exclamdown" format="1">
  <advance width="339"/>
  <unicode hex="00A1"/>
  <outline>
    <contour>
      <point x="278" y="416" type="curve" smooth="yes"/>
      <point x="278" y="372"/>
      <point x="239" y="339"/>
      <point x="195" y="339" type="curve" smooth="yes"/>
      <point x="152" y="339"/>
      <point x="120" y="377"/>
      <point x="120" y="420" type="curve" smooth="yes"/>
      <point x="120" y="464"/>
      <point x="153" y="500"/>
      <point x="196" y="500" type="curve" smooth="yes"/>
      <point x="244" y="500"/>
      <point x="278" y="461"/>
    </contour>
    <contour>
      <point x="202" y="280" type="line"/>
      <point x="179" y="-118" type="line" smooth="yes"/>
      <point x="176" y="-174"/>
      <point x="126" y="-199"/>
      <point x="81" y="-199" type="curve" smooth="yes"/>
      <point x="42" y="-199"/>
      <point x="13" y="-180"/>
      <point x="13" y="-135" type="curve" smooth="yes"/>
      <point x="13" y="-110"/>
      <point x="102" y="141"/>
      <point x="148" y="280" type="curve"/>
    </contour>
  </outline>
</glyph>
<glyph name="sterling" format="1">
  <advance width="598"/>
  <unicode hex="00A3"/>
  <outline>
    <contour>
      <point x="612" y="605" type="curve" smooth="yes"/>
      <point x="612" y="554"/>
      <point x="576" y="530"/>
      <point x="513" y="521" type="curve"/>
      <point x="470" y="621" type="line"/>
      <point x="341" y="613"/>
      <point x="319" y="409"/>
      <point x="310" y="358" type="curve"/>
      <point x="492" y="358" type="line"/>
      <point x="492" y="298" type="line"/>
      <point x="297" y="298" type="line"/>
      <point x="281" y="212"/>
      <point x="234" y="135"/>
      <point x="155" y="78" type="curve"/>
      <point x="183" y="86"/>
      <point x="216" y="89"/>
      <point x="239" y="89" type="curve" smooth="yes"/>
      <point x="521" y="89" type="line"/>
      <point x="521" y="0" type="line"/>
      <point x="-3" y="0" type="line"/>
      <point x="-3" y="66" type="line"/>
      <point x="60" y="79"/>
      <point x="95" y="109"/>
      <point x="118" y="153" type="curve" smooth="yes"/>
      <point x="142" y="201"/>
      <point x="149" y="250"/>
      <point x="158" y="298" type="curve"/>
      <point x="89" y="298" type="line"/>
      <point x="89" y="358" type="line"/>
      <point x="167" y="358" type="line"/>
      <point x="174" y="433"/>
      <point x="232" y="687"/>
      <point x="467" y="687" type="curve" smooth="yes"/>
      <point x="535" y="687"/>
      <point x="612" y="662"/>
    </contour>
  </outline>
</glyph>
<glyph name="guillemotleft" format="1">
  <advance width="413"/>
  <unicode hex="00AB"/>
  <outline>
    <contour>
      <point x="123" y="0" type="line"/>
      <point x="18" y="215" type="line"/>
      <point x="28" y="266" type="line"/>
      <point x="220" y="482" type="line"/>
      <point x="288" y="482" type="line"/>
      <point x="124" y="241" type="line"/>
      <point x="190" y="0" type="line"/>
    </contour>
    <contour>
      <point x="293" y="0" type="line"/>
      <point x="188" y="215" type="line"/>
      <point x="199" y="266" type="line"/>
      <point x="391" y="482" type="line"/>
      <point x="458" y="482" type="line"/>
      <point x="295" y="241" type="line"/>
      <point x="360" y="0" type="line"/>
    </contour>
  </outline>
</glyph>
<glyph name="registered" format="1">
  <advance width="836"/>
  <unicode hex="00AE"/>
  <outline>
    <contour>
      <point x="825" y="350" type="curve" smooth="yes"/>
      <point x="825" y="135"/>
      <point x="652" y="-39"/>
      <point x="437" y="-39" type="curve" smooth="yes"/>
      <point x="225" y="-39"/>
      <point x="51" y="135"/>
      <point x="51" y="350" type="curve" smooth="yes"/>
      <point x="51" y="564"/>
      <point x="225" y="739"/>
      <point x="439" y="739" type="curve" smooth="yes"/>
      <point x="650" y="739"/>
      <point x="825" y="565"/>
    </contour>
    <contour>
      <point x="777" y="350" type="curve" smooth="yes"/>
      <point x="777" y="539"/>
      <point x="626" y="692"/>
      <point x="439" y="692" type="curve" smooth="yes"/>
      <point x="253" y="692"/>
      <point x="99" y="541"/>
      <point x="99" y="348" type="curve" smooth="yes"/>
      <point x="99" y="162"/>
      <point x="250" y="8"/>
      <point x="438" y="8" type="curve" smooth="yes"/>
      <point x="626" y="8"/>
      <point x="777" y="163"/>
    </contour>
    <contour>
      <point x="672" y="142" type="line"/>
      <point x="643" y="138"/>
      <point x="627" y="138"/>
      <point x="610" y="138" type="curve" smooth="yes"/>
      <point x="437" y="138"/>
      <point x="517" y="333"/>
      <point x="385" y="333" type="curve" smooth="yes"/>
      <point x="380" y="333"/>
      <point x="380" y="334"/>
      <point x="372" y="334" type="curve"/>
      <point x="372" y="193" type="line" smooth="yes"/>
      <point x="372" y="184"/>
      <point x="380" y="178"/>
      <point x="387" y="178" type="curve" smooth="yes"/>
      <point x="424" y="175" type="line"/>
      <point x="424" y="142" type="line"/>
      <point x="226" y="142" type="line"/>
      <point x="226" y="175" type="line"/>
      <point x="261" y="178" type="line" smooth="yes"/>
      <point x="269" y="178"/>
      <point x="276" y="184"/>
      <point x="276" y="193" type="curve" smooth="yes"/>
      <point x="276" y="529" type="line" smooth="yes"/>
      <point x="276" y="537"/>
      <point x="269" y="542"/>
      <point x="261" y="543" type="curve" smooth="yes"/>
      <point x="226" y="547" type="line"/>
      <point x="226" y="580" type="line"/>
      <point x="448" y="580" type="line" smooth="yes"/>
      <point x="496" y="580"/>
      <point x="592" y="564"/>
      <point x="592" y="471" type="curve" smooth="yes"/>
      <point x="592" y="383"/>
      <point x="512" y="362"/>
      <point x="476" y="357" type="curve"/>
      <point x="624" y="327"/>
      <point x="533" y="158"/>
      <point x="672" y="175" type="curve"/>
    </contour>
    <contour>
      <point x="492" y="448" type="curve" smooth="yes"/>
      <point x="492" y="503"/>
      <point x="457" y="530"/>
      <point x="393" y="530" type="curve" smooth="yes"/>
      <point x="372" y="530" type="line"/>
      <point x="372" y="362" type="line"/>
      <point x="384" y="361"/>
      <point x="390" y="361"/>
      <point x="394" y="361" type="curve" smooth="yes"/>
      <point x="435" y="361"/>
      <point x="492" y="374"/>
    </contour>
  </outline>
</glyph>
<glyph name="twosuperior" format="1">
  <advance width="389"/>
  <unicode hex="00B2"/>
  <outline>
    <contour>
      <point x="435" y="704" type="curve" smooth="yes"/>
      <point x="435" y="592"/>
      <point x="251" y="491"/>
      <point x="168" y="438" type="curve"/>
      <point x="334" y="438" type="line"/>
      <point x="356" y="488" type="line"/>
      <point x="406" y="488" type="line"/>
      <point x="385" y="383" type="line"/>
      <point x="46" y="383" type="line"/>
      <point x="55" y="425" type="line"/>
      <point x="244" y="547"/>
      <point x="333" y="611"/>
      <point x="333" y="697" type="curve" smooth="yes"/>
      <point x="333" y="744"/>
      <point x="300" y="756"/>
      <point x="280" y="756" type="curve" smooth="yes"/>
      <point x="262" y="756"/>
      <point x="242" y="749"/>
      <point x="234" y="745" type="curve"/>
      <point x="220" y="683" type="line"/>
      <point x="212" y="678"/>
      <point x="205" y="667"/>
      <point x="176" y="667" type="curve" smooth="yes"/>
      <point x="147" y="667"/>
      <point x="127" y="684"/>
      <point x="127" y="704" type="curve" smooth="yes"/>
      <point x="127" y="759"/>
      <point x="198" y="795"/>
      <point x="301" y="795" type="curve" smooth="yes"/>
      <point x="385" y="795"/>
      <point x="435" y="766"/>
    </contour>
  </outline>
</glyph>
<glyph name="paragraph" format="1">
  <advance width="535"/>
  <unicode hex="00B6"/>
  <outline>
    <contour>
      <point x="532" y="614" type="line"/>
      <point x="470" y="604" type="line"/>
      <point x="470" y="-79" type="line"/>
      <point x="397" y="-79" type="line"/>
      <point x="397" y="607" type="line"/>
      <point x="321" y="607" type="line"/>
      <point x="321" y="270" type="line"/>
      <point x="163" y="270"/>
      <point x="51" y="308"/>
      <point x="51" y="469" type="curve" smooth="yes"/>
      <point x="51" y="621"/>
      <point x="145" y="671"/>
      <point x="298" y="671" type="curve" smooth="yes"/>
      <point x="532" y="671" type="line"/>
    </contour>
  </outline>
</glyph>
<glyph name="cedilla" format="1">
  <advance width="246"/>
  <unicode hex="00B8"/>
  <outline>
    <contour>
      <point x="170" y="-113" type="curve" smooth="yes"/>
      <point x="170" y="-191"/>
      <point x="95" y="-231"/>
      <point x="25" y="-231" type="curve" smooth="yes"/>
      <point x="-16" y="-231"/>
      <point x="-54" y="-220"/>
      <point x="-54" y="-220" type="curve"/>
      <point x="-44" y="-170" type="line"/>
      <point x="-44" y="-170"/>
      <point x="-7" y="-178"/>
      <point x="18" y="-178" type="curve" smooth="yes"/>
      <point x="44" y="-178"/>
      <point x="83" y="-171"/>
      <point x="83" y="-137" type="curve" smooth="yes"/>
      <point x="83" y="-118"/>
      <point x="66" y="-110"/>
      <point x="46" y="-110" type="curve" smooth="yes"/>
      <point x="39" y="-110"/>
      <point x="23" y="-112"/>
      <point x="23" y="-112" type="curve"/>
      <point x="50" y="24" type="line"/>
      <point x="101" y="24" type="line"/>
      <point x="85" y="-54" type="line"/>
      <point x="85" y="-54"/>
      <point x="89" y="-55"/>
      <point x="99" y="-55" type="curve" smooth="yes"/>
      <point x="139" y="-55"/>
      <point x="170" y="-73"/>
    </contour>
  </outline>
</glyph>
<glyph name="onesuperior" format="1">
  <advance width="389"/>
  <unicode hex="00B9"/>
  <outline>
    <contour>
      <point x="371" y="795" type="line"/>
      <point x="292" y="428" type="line" smooth="yes"/>
      <point x="291" y="424"/>
      <point x="298" y="421"/>
      <point x="305" y="420" type="curve" smooth="yes"/>
      <point x="354" y="416" type="line"/>
      <point x="354" y="383" type="line"/>
      <point x="123" y="383" type="line"/>
      <point x="123" y="416" type="line"/>
      <point x="189" y="420" type="line" smooth="yes"/>
      <point x="195" y="420"/>
      <point x="200" y="424"/>
      <point x="201" y="429" type="curve" smooth="yes"/>
      <point x="265" y="732" type="line"/>
      <point x="165" y="720" type="line"/>
      <point x="165" y="753" type="line"/>
      <point x="327" y="795" type="line"/>
    </contour>
  </outline>
</glyph>
<glyph name="ordmasculine" format="1">
  <advance width="358"/>
  <unicode hex="00BA"/>
  <outline>
    <contour>
      <point x="391" y="565" type="curve" smooth="yes"/>
      <point x="391" y="471"/>
      <point x="320" y="376"/>
      <point x="202" y="376" type="curve" smooth="yes"/>
      <point x="112" y="376"/>
      <point x="72" y="425"/>
      <point x="72" y="491" type="curve" smooth="yes"/>
      <point x="72" y="585"/>
      <point x="139" y="683"/>
      <point x="259" y="683" type="curve" smooth="yes"/>
      <point x="339" y="683"/>
      <point x="391" y="643"/>
    </contour>
    <contour>
      <point x="335" y="347" type="line"/>
      <point x="326" y="298" type="line"/>
      <point x="31" y="298" type="line"/>
      <point x="41" y="347" type="line"/>
    </contour>
    <contour>
      <point x="297" y="567" type="curve" smooth="yes"/>
      <point x="297" y="626"/>
      <point x="268" y="651"/>
      <point x="251" y="651" type="curve" smooth="yes"/>
      <point x="212" y="651"/>
      <point x="165" y="575"/>
      <point x="165" y="494" type="curve" smooth="yes"/>
      <point x="165" y="432"/>
      <point x="194" y="409"/>
      <point x="209" y="409" type="curve" smooth="yes"/>
      <point x="255" y="409"/>
      <point x="297" y="493"/>
    </contour>
  </outline>
</glyph>
<glyph name="guillemotright" format="1">
  <advance width="413"/>
  <unicode hex="00BB"/>
  <outline>
    <contour>
      <point x="291" y="482" type="line"/>
      <point x="396" y="267" type="line"/>
      <point x="385" y="216" type="line"/>
      <point x="193" y="0" type="line"/>
      <point x="126" y="0" type="line"/>
      <point x="289" y="241" type="line"/>
      <point x="224" y="482" type="line"/>
    </contour>
    <contour>
      <point x="120" y="482" type="line"/>
      <point x="225" y="267" type="line"/>
      <point x="215" y="216" type="line"/>
      <point x="22" y="0" type="line"/>
      <point x="-45" y="0" type="line"/>
      <point x="119" y="241" type="line"/>
      <point x="53" y="482" type="line"/>
    </contour>
  </outline>
</glyph>
<glyph name="onequarter" format="1">
  <advance width="907"/>
  <unicode hex="00BC"/>
  <outline>
    <contour>
      <point x="842" y="156" type="line"/>
      <point x="833" y="107" type="line"/>
      <point x="760" y="107" type="line"/>
      <point x="735" y="-18" type="line"/>
      <point x="652" y="-18" type="line"/>
      <point x="677" y="107" type="line"/>
      <point x="476" y="107" type="line"/>
      <point x="486" y="158" type="line"/>
      <point x="749" y="406" type="line"/>
      <point x="819" y="406" type="line"/>
      <point x="770" y="156" type="line"/>
    </contour>
    <contour>
      <point x="805" y="695" type="line"/>
      <point x="225" y="0" type="line"/>
      <point x="152" y="0" type="line"/>
      <point x="731" y="695" type="line"/>
    </contour>
    <contour>
      <point x="327" y="708" type="line"/>
      <point x="249" y="341" type="line" smooth="yes"/>
      <point x="248" y="337"/>
      <point x="254" y="334"/>
      <point x="261" y="333" type="curve" smooth="yes"/>
      <point x="310" y="329" type="line"/>
      <point x="310" y="296" type="line"/>
      <point x="79" y="296" type="line"/>
      <point x="79" y="329" type="line"/>
      <point x="145" y="333" type="line" smooth="yes"/>
      <point x="151" y="333"/>
      <point x="156" y="338"/>
      <point x="157" y="342" type="curve" smooth="yes"/>
      <point x="221" y="646" type="line"/>
      <point x="121" y="633" type="line"/>
      <point x="121" y="667" type="line"/>
      <point x="283" y="708" type="line"/>
    </contour>
    <contour>
      <point x="719" y="319" type="line"/>
      <point x="548" y="156" type="line"/>
      <point x="687" y="156" type="line"/>
    </contour>
  </outline>
</glyph>
<glyph name="Agrave" format="1">
  <advance width="714"/>
  <unicode hex="00C0"/>
  <outline>
    <contour>
      <point x="668" y="0" type="line"/>
      <point x="391" y="0" type="line"/>
      <point x="391" y="50" type="line"/>
      <point x="412" y="52"/>
      <point x="437" y="55"/>
      <point x="437" y="55" type="curve" smooth="yes"/>
      <point x="450" y="56"/>
      <point x="458" y="58"/>
      <point x="456" y="70" type="curve" smooth="yes"/>
      <point x="427" y="253" type="line"/>
      <point x="238" y="253" type="line"/>
      <point x="139" y="70" type="line" smooth="yes"/>
      <point x="133" y="60"/>
      <point x="139" y="56"/>
      <point x="152" y="55" type="curve" smooth="yes"/>
      <point x="152" y="55"/>
      <point x="179" y="52"/>
      <point x="204" y="50" type="curve"/>
      <point x="204" y="0" type="line"/>
      <point x="-53" y="0" type="line"/>
      <point x="-53" y="50" type="line"/>
      <point x="5" y="56" type="line"/>
      <point x="375" y="687" type="line"/>
      <point x="493" y="687" type="line"/>
      <point x="602" y="71" type="line" smooth="yes"/>
      <point x="604" y="58"/>
      <point x="607" y="56"/>
      <point x="622" y="54" type="curve" smooth="yes"/>
      <point x="622" y="54"/>
      <point x="646" y="52"/>
      <point x="668" y="50" type="curve"/>
    </contour>
    <contour>
      <point x="416" y="310" type="line"/>
      <point x="383" y="504" type="line"/>
      <point x="271" y="310" type="line"/>
    </contour>
    <contour>
      <point x="541" y="746" type="line"/>
      <point x="471" y="746" type="line"/>
      <point x="309" y="834" type="line" smooth="yes"/>
      <point x="295" y="842"/>
      <point x="284" y="863"/>
      <point x="284" y="876" type="curve" smooth="yes"/>
      <point x="284" y="900"/>
      <point x="298" y="929"/>
      <point x="341" y="929" type="curve" smooth="yes"/>
      <point x="368" y="929"/>
      <point x="381" y="922"/>
      <point x="404" y="897" type="curve" smooth="yes"/>
    </contour>
  </outline>
</glyph>
<glyph name="Aacute" format="1">
  <advance width="714"/>
  <unicode hex="00C1"/>
  <outline>
    <contour>
      <point x="668" y="0" type="line"/>
      <point x="391" y="0" type="line"/>
      <point x="391" y="50" type="line"/>
      <point x="412" y="52"/>
      <point x="437" y="55"/>
      <point x="437" y="55" type="curve" smooth="yes"/>
      <point x="450" y="56"/>
      <point x="458" y="58"/>
      <point x="456" y="70" type="curve" smooth="yes"/>
      <point x="427" y="253" type="line"/>
      <point x="238" y="253" type="line"/>
      <point x="139" y="70" type="line" smooth="yes"/>
      <point x="133" y="60"/>
      <point x="139" y="56"/>
      <point x="152" y="55" type="curve" smooth="yes"/>
      <point x="152" y="55"/>
      <point x="179" y="52"/>
      <point x="204" y="50" type="curve"/>
      <point x="204" y="0" type="line"/>
      <point x="-53" y="0" type="line"/>
      <point x="-53" y="50" type="line"/>
      <point x="5" y="56" type="line"/>
      <point x="375" y="687" type="line"/>
      <point x="493" y="687" type="line"/>
      <point x="602" y="71" type="line" smooth="yes"/>
      <point x="604" y="58"/>
      <point x="607" y="56"/>
      <point x="622" y="54" type="curve" smooth="yes"/>
      <point x="622" y="54"/>
      <point x="646" y="52"/>
      <point x="668" y="50" type="curve"/>
    </contour>
    <contour>
      <point x="416" y="310" type="line"/>
      <point x="383" y="504" type="line"/>
      <point x="271" y="310" type="line"/>
    </contour>
    <contour>
      <point x="603" y="876" type="curve" smooth="yes"/>
      <point x="603" y="863"/>
      <point x="592" y="842"/>
      <point x="577" y="834" type="curve" smooth="yes"/>
      <point x="416" y="746" type="line"/>
      <point x="346" y="746" type="line"/>
      <point x="483" y="897" type="line" smooth="yes"/>
      <point x="505" y="922"/>
      <point x="519" y="929"/>
      <point x="546" y="929" type="curve" smooth="yes"/>
      <point x="589" y="929"/>
      <point x="603" y="900"/>
    </contour>
  </outline>
</glyph>
<glyph name="Ccedilla" format="1">
  <advance width="671"/>
  <unicode hex="00C7"/>
  <outline>
    <contour>
      <point x="687" y="645" type="curve"/>
      <point x="656" y="469" type="line"/>
      <point x="582" y="469" type="line"/>
      <point x="583" y="581" type="line" smooth="yes"/>
      <point x="584" y="589"/>
      <point x="578" y="601"/>
      <point x="568" y="604" type="curve" smooth="yes"/>
      <point x="557" y="610"/>
      <point x="506" y="626"/>
      <point x="476" y="626" type="curve" smooth="yes"/>
      <point x="349" y="626"/>
      <point x="196" y="489"/>
      <point x="196" y="257" type="curve" smooth="yes"/>
      <point x="196" y="105"/>
      <point x="294" y="45"/>
      <point x="380" y="45" type="curve" smooth="yes"/>
      <point x="408" y="45"/>
      <point x="451" y="54"/>
      <point x="463" y="60" type="curve" smooth="yes"/>
      <point x="473" y="61"/>
      <point x="478" y="69"/>
      <point x="481" y="76" type="curve" smooth="yes"/>
      <point x="529" y="208" type="line"/>
      <point x="604" y="208" type="line"/>
      <point x="573" y="27" type="line"/>
      <point x="522" y="9"/>
      <point x="441" y="-16"/>
      <point x="347" y="-16" type="curve" smooth="yes"/>
      <point x="122" y="-16"/>
      <point x="48" y="132"/>
      <point x="48" y="268" type="curve" smooth="yes"/>
      <point x="48" y="474"/>
      <point x="206" y="687"/>
      <point x="471" y="687" type="curve" smooth="yes"/>
      <point x="548" y="687"/>
      <point x="608" y="670"/>
    </contour>
    <contour>
      <point x="422" y="-113" type="curve" smooth="yes"/>
      <point x="422" y="-191"/>
      <point x="347" y="-231"/>
      <point x="277" y="-231" type="curve" smooth="yes"/>
      <point x="236" y="-231"/>
      <point x="198" y="-220"/>
      <point x="198" y="-220" type="curve"/>
      <point x="208" y="-170" type="line"/>
      <point x="208" y="-170"/>
      <point x="246" y="-178"/>
      <point x="271" y="-178" type="curve" smooth="yes"/>
      <point x="297" y="-178"/>
      <point x="335" y="-171"/>
      <point x="335" y="-137" type="curve" smooth="yes"/>
      <point x="335" y="-118"/>
      <point x="318" y="-110"/>
      <point x="298" y="-110" type="curve" smooth="yes"/>
      <point x="291" y="-110"/>
      <point x="275" y="-112"/>
      <point x="275" y="-112" type="curve"/>
      <point x="302" y="24" type="line"/>
      <point x="354" y="24" type="line"/>
      <point x="337" y="-54" type="line"/>
      <point x="337" y="-54"/>
      <point x="342" y="-55"/>
      <point x="352" y="-55" type="curve" smooth="yes"/>
      <point x="392" y="-55"/>
      <point x="422" y="-73"/>
    </contour>
  </outline>
</glyph>
<glyph name="Igrave" format="1">
  <advance width="355"/>
  <unicode hex="00CC"/>
  <outline>
    <contour>
      <point x="398" y="621" type="line"/>
      <point x="329" y="616" type="line" smooth="yes"/>
      <point x="319" y="615"/>
      <point x="316" y="609"/>
      <point x="314" y="600" type="curve" smooth="yes"/>
      <point x="210" y="70" type="line" smooth="yes"/>
      <point x="208" y="59"/>
      <point x="212" y="56"/>
      <point x="225" y="55" type="curve" smooth="yes"/>
      <point x="225" y="55"/>
      <point x="256" y="53"/>
      <point x="288" y="50" type="curve"/>
      <point x="288" y="0" type="line"/>
      <point x="-15" y="0" type="line"/>
      <point x="-15" y="50" type="line"/>
      <point x="14" y="52"/>
      <point x="44" y="54"/>
      <point x="44" y="54" type="curve" smooth="yes"/>
      <point x="59" y="55"/>
      <point x="65" y="57"/>
      <point x="67" y="71" type="curve" smooth="yes"/>
      <point x="171" y="601" type="line" smooth="yes"/>
      <point x="174" y="613"/>
      <point x="166" y="615"/>
      <point x="153" y="616" type="curve" smooth="yes"/>
      <point x="153" y="616"/>
      <point x="123" y="618"/>
      <point x="96" y="621" type="curve"/>
      <point x="96" y="671" type="line"/>
      <point x="398" y="671" type="line"/>
    </contour>
    <contour>
      <point x="371" y="746" type="line"/>
      <point x="301" y="746" type="line"/>
      <point x="139" y="834" type="line" smooth="yes"/>
      <point x="125" y="842"/>
      <point x="114" y="863"/>
      <point x="114" y="876" type="curve" smooth="yes"/>
      <point x="114" y="900"/>
      <point x="128" y="929"/>
      <point x="171" y="929" type="curve" smooth="yes"/>
      <point x="198" y="929"/>
      <point x="211" y="922"/>
      <point x="234" y="897" type="curve" smooth="yes"/>
    </contour>
  </outline>
</glyph>
<glyph name="Idieresis" format="1">
  <advance width="355"/>
  <unicode hex="00CF"/>
  <outline>
    <contour>
      <point x="398" y="621" type="line"/>
      <point x="329" y="616" type="line" smooth="yes"/>
      <point x="319" y="615"/>
      <point x="316" y="609"/>
      <point x="314" y="600" type="curve" smooth="yes"/>
      <point x="210" y="70" type="line" smooth="yes"/>
      <point x="208" y="59"/>
      <point x="212" y="56"/>
      <point x="225" y="55" type="curve" smooth="yes"/>
      <point x="225" y="55"/>
      <point x="256" y="53"/>
      <point x="288" y="50" type="curve"/>
      <point x="288" y="0" type="line"/>
      <point x="-15" y="0" type="line"/>
      <point x="-15" y="50" type="line"/>
      <point x="14" y="52"/>
      <point x="44" y="54"/>
      <point x="44" y="54" type="curve" smooth="yes"/>
      <point x="59" y="55"/>
      <point x="65" y="57"/>
      <point x="67" y="71" type="curve" smooth="yes"/>
      <point x="171" y="601" type="line" smooth="yes"/>
      <point x="174" y="613"/>
      <point x="166" y="615"/>
      <point x="153" y="616" type="curve" smooth="yes"/>
      <point x="153" y="616"/>
      <point x="123" y="618"/>
      <point x="96" y="621" type="curve"/>
      <point x="96" y="671" type="line"/>
      <point x="398" y="671" type="line"/>
    </contour>
    <contour>
      <point x="457" y="849" type="curve" smooth="yes"/>
      <point x="457" y="811"/>
      <point x="426" y="780"/>
      <point x="388" y="780" type="curve" smooth="yes"/>
      <point x="350" y="780"/>
      <point x="320" y="811"/>
      <point x="320" y="849" type="curve" smooth="yes"/>
      <point x="320" y="887"/>
      <point x="350" y="918"/>
      <point x="388" y="918" type="curve" smooth="yes"/>
      <point x="426" y="918"/>
      <point x="457" y="887"/>
    </contour>
    <contour>
      <point x="247" y="849" type="curve" smooth="yes"/>
      <point x="247" y="811"/>
      <point x="216" y="780"/>
      <point x="178" y="780" type="curve" smooth="yes"/>
      <point x="140" y="780"/>
      <point x="109" y="811"/>
      <point x="109" y="849" type="curve" smooth="yes"/>
      <point x="109" y="887"/>
      <point x="140" y="918"/>
      <point x="178" y="918" type="curve" smooth="yes"/>
      <point x="216" y="918"/>
      <point x="247" y="887"/>
    </contour>
  </outline>
</glyph>
<glyph name="Oacute" format="1">
  <advance width="751"/>
  <unicode hex="00D3"/>
  <outline>
    <contour>
      <point x="733" y="417" type="curve" smooth="yes"/>
      <point x="733" y="212"/>
      <point x="603" y="-16"/>
      <point x="341" y="-16" type="curve" smooth="yes"/>
      <point x="155" y="-16"/>
      <point x="48" y="101"/>
      <point x="48" y="263" type="curve" smooth="yes"/>
      <point x="48" y="471"/>
      <point x="194" y="687"/>
      <point x="441" y="687" type="curve" smooth="yes"/>
      <point x="634" y="687"/>
      <point x="733" y="559"/>
    </contour>
    <contour>
      <point x="577" y="417" type="curve" smooth="yes"/>
      <point x="577" y="551"/>
      <point x="501" y="627"/>
      <point x="432" y="627" type="curve" smooth="yes"/>
      <point x="313" y="627"/>
      <point x="203" y="435"/>
      <point x="203" y="255" type="curve" smooth="yes"/>
      <point x="203" y="117"/>
      <point x="282" y="46"/>
      <point x="348" y="46" type="curve" smooth="yes"/>
      <point x="466" y="46"/>
      <point x="577" y="243"/>
    </contour>
    <contour>
      <point x="631" y="876" type="curve" smooth="yes"/>
      <point x="631" y="863"/>
      <point x="619" y="842"/>
      <point x="604" y="834" type="curve" smooth="yes"/>
      <point x="444" y="746" type="line"/>
      <point x="374" y="746" type="line"/>
      <point x="511" y="897" type="line" smooth="yes"/>
      <point x="533" y="922"/>
      <point x="547" y="929"/>
      <point x="574" y="929" type="curve" smooth="yes"/>
      <point x="617" y="929"/>
      <point x="631" y="900"/>
    </contour>
  </outline>
</glyph>
<glyph name="Otilde" format="1">
  <advance width="751"/>
  <unicode hex="00D5"/>
  <outline>
    <contour>
      <point x="733" y="417" type="curve" smooth="yes"/>
      <point x="733" y="212"/>
      <point x="603" y="-16"/>
      <point x="341" y="-16" type="curve" smooth="yes"/>
      <point x="155" y="-16"/>
      <point x="48" y="101"/>
      <point x="48" y="263" type="curve" smooth="yes"/>
      <point x="48" y="471"/>
      <point x="194" y="687"/>
      <point x="441" y="687" type="curve" smooth="yes"/>
      <point x="634" y="687"/>
      <point x="733" y="559"/>
    </contour>
    <contour>
      <point x="577" y="417" type="curve" smooth="yes"/>
      <point x="577" y="551"/>
      <point x="501" y="627"/>
      <point x="432" y="627" type="curve" smooth="yes"/>
      <point x="313" y="627"/>
      <point x="203" y="435"/>
      <point x="203" y="255" type="curve" smooth="yes"/>
      <point x="203" y="117"/>
      <point x="282" y="46"/>
      <point x="348" y="46" type="curve" smooth="yes"/>
      <point x="466" y="46"/>
      <point x="577" y="243"/>
    </contour>
    <contour>
      <point x="660" y="904" type="line"/>
      <point x="630" y="835"/>
      <point x="583" y="780"/>
      <point x="515" y="780" type="curve" smooth="yes"/>
      <point x="462" y="780"/>
      <point x="451" y="828"/>
      <point x="391" y="828" type="curve" smooth="yes"/>
      <point x="370" y="828"/>
      <point x="347" y="807"/>
      <point x="338" y="780" type="curve"/>
      <point x="284" y="780" type="line"/>
      <point x="315" y="849"/>
      <point x="362" y="904"/>
      <point x="429" y="904" type="curve" smooth="yes"/>
      <point x="482" y="904"/>
      <point x="493" y="857"/>
      <point x="553" y="857" type="curve" smooth="yes"/>
      <point x="574" y="857"/>
      <point x="598" y="878"/>
      <point x="606" y="904" type="curve"/>
    </contour>
  </outline>
</glyph>
<glyph name="Ugrave" format="1">
  <advance width="749"/>
  <unicode hex="00D9"/>
  <outline>
    <contour>
      <point x="791" y="621" type="line"/>
      <point x="725" y="616" type="line" smooth="yes"/>
      <point x="716" y="615"/>
      <point x="711" y="609"/>
      <point x="709" y="600" type="curve" smooth="yes"/>
      <point x="632" y="215" type="line" smooth="yes"/>
      <point x="605" y="76"/>
      <point x="516" y="-16"/>
      <point x="332" y="-16" type="curve" smooth="yes"/>
      <point x="184" y="-16"/>
      <point x="92" y="38"/>
      <point x="92" y="162" type="curve" smooth="yes"/>
      <point x="92" y="181"/>
      <point x="96" y="220"/>
      <point x="105" y="265" type="curve" smooth="yes"/>
      <point x="175" y="601" type="line" smooth="yes"/>
      <point x="177" y="613"/>
      <point x="169" y="615"/>
      <point x="155" y="616" type="curve" smooth="yes"/>
      <point x="155" y="616"/>
      <point x="126" y="618"/>
      <point x="99" y="621" type="curve"/>
      <point x="99" y="671" type="line"/>
      <point x="401" y="671" type="line"/>
      <point x="401" y="621" type="line"/>
      <point x="370" y="618"/>
      <point x="339" y="616"/>
      <point x="339" y="616" type="curve" smooth="yes"/>
      <point x="327" y="615"/>
      <point x="320" y="612"/>
      <point x="318" y="600" type="curve" smooth="yes"/>
      <point x="249" y="265" type="line" smooth="yes"/>
      <point x="241" y="227"/>
      <point x="238" y="195"/>
      <point x="238" y="177" type="curve" smooth="yes"/>
      <point x="238" y="92"/>
      <point x="298" y="59"/>
      <point x="358" y="59" type="curve" smooth="yes"/>
      <point x="462" y="59"/>
      <point x="507" y="140"/>
      <point x="529" y="250" type="curve" smooth="yes"/>
      <point x="599" y="601" type="line" smooth="yes"/>
      <point x="601" y="613"/>
      <point x="596" y="615"/>
      <point x="580" y="616" type="curve" smooth="yes"/>
      <point x="580" y="616"/>
      <point x="550" y="618"/>
      <point x="523" y="621" type="curve"/>
      <point x="523" y="671" type="line"/>
      <point x="791" y="671" type="line"/>
    </contour>
    <contour>
      <point x="573" y="746" type="line"/>
      <point x="503" y="746" type="line"/>
      <point x="341" y="834" type="line" smooth="yes"/>
      <point x="327" y="842"/>
      <point x="316" y="863"/>
      <point x="316" y="876" type="curve" smooth="yes"/>
      <point x="316" y="900"/>
      <point x="331" y="929"/>
      <point x="374" y="929" type="curve" smooth="yes"/>
      <point x="401" y="929"/>
      <point x="414" y="922"/>
      <point x="437" y="897" type="curve" smooth="yes"/>
    </contour>
  </outline>
</glyph>
<glyph name="Yacute" format="1">
  <advance width="681"/>
  <unicode hex="00DD"/>
  <outline>
    <contour>
      <point x="753" y="621" type="line"/>
      <point x="689" y="616" type="line" smooth="yes"/>
      <point x="682" y="615"/>
      <point x="674" y="608"/>
      <point x="671" y="604" type="curve" smooth="yes"/>
      <point x="417" y="281" type="line"/>
      <point x="375" y="70" type="line" smooth="yes"/>
      <point x="372" y="58"/>
      <point x="379" y="56"/>
      <point x="393" y="55" type="curve" smooth="yes"/>
      <point x="393" y="55"/>
      <point x="422" y="53"/>
      <point x="450" y="50" type="curve"/>
      <point x="450" y="0" type="line"/>
      <point x="148" y="0" type="line"/>
      <point x="148" y="50" type="line"/>
      <point x="175" y="53"/>
      <point x="205" y="55"/>
      <point x="205" y="55" type="curve" smooth="yes"/>
      <point x="218" y="56"/>
      <point x="227" y="58"/>
      <point x="230" y="71" type="curve" smooth="yes"/>
      <point x="271" y="273" type="line"/>
      <point x="159" y="605" type="line" smooth="yes"/>
      <point x="156" y="616"/>
      <point x="146" y="616"/>
      <point x="134" y="617" type="curve" smooth="yes"/>
      <point x="134" y="617"/>
      <point x="107" y="619"/>
      <point x="84" y="621" type="curve"/>
      <point x="84" y="671" type="line"/>
      <point x="385" y="671" type="line"/>
      <point x="385" y="621" type="line"/>
      <point x="355" y="619"/>
      <point x="323" y="617"/>
      <point x="323" y="617" type="curve" smooth="yes"/>
      <point x="312" y="617"/>
      <point x="302" y="614"/>
      <point x="307" y="601" type="curve" smooth="yes"/>
      <point x="376" y="384" type="line"/>
      <point x="541" y="602" type="line" smooth="yes"/>
      <point x="545" y="607"/>
      <point x="544" y="616"/>
      <point x="529" y="617" type="curve" smooth="yes"/>
      <point x="470" y="621" type="line"/>
      <point x="470" y="671" type="line"/>
      <point x="753" y="671" type="line"/>
    </contour>
    <contour>
      <point x="600" y="876" type="curve" smooth="yes"/>
      <point x="600" y="863"/>
      <point x="589" y="842"/>
      <point x="574" y="834" type="curve" smooth="yes"/>
      <point x="413" y="746" type="line"/>
      <point x="343" y="746" type="line"/>
      <point x="480" y="897" type="line" smooth="yes"/>
      <point x="502" y="922"/>
      <point x="516" y="929"/>
      <point x="543" y="929" type="curve" smooth="yes"/>
      <point x="586" y="929"/>
      <point x="600" y="900"/>
    </contour>
  </outline>
</glyph>
<glyph name="aacute" format="1">
  <advance width="567"/>
  <unicode hex="00E1"/>
  <outline>
    <contour>
      <point x="565" y="30" type="line"/>
      <point x="519" y="12"/>
      <point x="464" y="-12"/>
      <point x="413" y="-12" type="curve" smooth="yes"/>
      <point x="371" y="-12"/>
      <point x="342" y="4"/>
      <point x="329" y="33" type="curve"/>
      <point x="294" y="10"/>
      <point x="247" y="-12"/>
      <point x="199" y="-12" type="curve" smooth="yes"/>
      <point x="76" y="-12"/>
      <point x="32" y="96"/>
      <point x="32" y="171" type="curve" smooth="yes"/>
      <point x="32" y="320"/>
      <point x="129" y="500"/>
      <point x="344" y="500" type="curve" smooth="yes"/>
      <point x="373" y="500"/>
      <point x="404" y="491"/>
      <point x="427" y="479" type="curve"/>
      <point x="434" y="488" type="line"/>
      <point x="541" y="488" type="line"/>
      <point x="534" y="468"/>
      <point x="518" y="436"/>
      <point x="516" y="427" type="curve" smooth="yes"/>
      <point x="451" y="97" type="line"/>
      <point x="451" y="67"/>
      <point x="454" y="57"/>
      <point x="478" y="57" type="curve" smooth="yes"/>
      <point x="483" y="57"/>
      <point x="555" y="76"/>
      <point x="565" y="78" type="curve"/>
    </contour>
    <contour>
      <point x="375" y="394" type="curve" smooth="yes"/>
      <point x="377" y="400"/>
      <point x="370" y="442"/>
      <point x="359" y="442" type="curve" smooth="yes"/>
      <point x="231" y="442"/>
      <point x="173" y="291"/>
      <point x="173" y="177" type="curve" smooth="yes"/>
      <point x="173" y="124"/>
      <point x="171" y="63"/>
      <point x="231" y="63" type="curve" smooth="yes"/>
      <point x="274" y="63"/>
      <point x="309" y="108"/>
      <point x="323" y="121" type="curve"/>
      <point x="338" y="201"/>
      <point x="328" y="149"/>
    </contour>
    <contour>
      <point x="540" y="681" type="curve" smooth="yes"/>
      <point x="540" y="668"/>
      <point x="528" y="647"/>
      <point x="513" y="639" type="curve" smooth="yes"/>
      <point x="353" y="551" type="line"/>
      <point x="282" y="551" type="line"/>
      <point x="419" y="702" type="line" smooth="yes"/>
      <point x="441" y="727"/>
      <point x="455" y="734"/>
      <point x="482" y="734" type="curve" smooth="yes"/>
      <point x="525" y="734"/>
      <point x="540" y="705"/>
    </contour>
  </outline>
</glyph>
<glyph name="atilde" format="1">
  <advance width="567"/>
  <unicode hex="00E3"/>
  <outline>
    <contour>
      <point x="565" y="30" type="line"/>
      <point x="519" y="12"/>
      <point x="464" y="-12"/>
      <point x="413" y="-12" type="curve" smooth="yes"/>
      <point x="371" y="-12"/>
      <point x="342" y="4"/>
      <point x="329" y="33" type="curve"/>
      <point x="294" y="10"/>
      <point x="247" y="-12"/>
      <point x="199" y="-12" type="curve" smooth="yes"/>
      <point x="76" y="-12"/>
      <point x="32" y="96"/>
      <point x="32" y="171" type="curve" smooth="yes"/>
      <point x="32" y="320"/>
      <point x="129" y="500"/>
      <point x="344" y="500" type="curve" smooth="yes"/>
      <point x="373" y="500"/>
      <point x="404" y="491"/>
      <point x="427" y="479" type="curve"/>
      <point x="434" y="488" type="line"/>
      <point x="541" y="488" type="line"/>
      <point x="534" y="468"/>
      <point x="518" y="436"/>
      <point x="516" y="427" type="curve" smooth="yes"/>
      <point x="451" y="97" type="line"/>
      <point x="451" y="67"/>
      <point x="454" y="57"/>
      <point x="478" y="57" type="curve" smooth="yes"/>
      <point x="483" y="57"/>
      <point x="555" y="76"/>
      <point x="565" y="78" type="curve"/>
    </contour>
    <contour>
      <point x="375" y="394" type="curve" smooth="yes"/>
      <point x="377" y="400"/>
      <point x="370" y="442"/>
      <point x="359" y="442" type="curve" smooth="yes"/>
      <point x="231" y="442"/>
      <point x="173" y="291"/>
      <point x="173" y="177" type="curve" smooth="yes"/>
      <point x="173" y="124"/>
      <point x="171" y="63"/>
      <point x="231" y="63" type="curve" smooth="yes"/>
      <point x="274" y="63"/>
      <point x="309" y="108"/>
      <point x="323" y="121" type="curve"/>
      <point x="338" y="201"/>
      <point x="328" y="149"/>
    </contour>
    <contour>
      <point x="569" y="709" type="line"/>
      <point x="539" y="640"/>
      <point x="492" y="585"/>
      <point x="424" y="585" type="curve" smooth="yes"/>
      <point x="371" y="585"/>
      <point x="360" y="633"/>
      <point x="300" y="633" type="curve" smooth="yes"/>
      <point x="279" y="633"/>
      <point x="256" y="612"/>
      <point x="247" y="585" type="curve"/>
      <point x="193" y="585" type="line"/>
      <point x="224" y="654"/>
      <point x="271" y="709"/>
      <point x="338" y="709" type="curve" smooth="yes"/>
      <point x="391" y="709"/>
      <point x="402" y="662"/>
      <point x="462" y="662" type="curve" smooth="yes"/>
      <point x="483" y="662"/>
      <point x="507" y="683"/>
      <point x="515" y="709" type="curve"/>
    </contour>
  </outline>
</glyph>
<glyph name="ccedilla" format="1">
  <advance width="480"/>
  <unicode hex="00E7"/>
  <outline>
    <contour>
      <point x="450" y="426" type="curve" smooth="yes"/>
      <point x="450" y="402"/>
      <point x="429" y="349"/>
      <point x="354" y="349" type="curve"/>
      <point x="299" y="427" type="line"/>
      <point x="186" y="402"/>
      <point x="170" y="230"/>
      <point x="170" y="189" type="curve" smooth="yes"/>
      <point x="170" y="128"/>
      <point x="176" y="62"/>
      <point x="240" y="62" type="curve" smooth="yes"/>
      <point x="290" y="62"/>
      <point x="338" y="86"/>
      <point x="428" y="194" type="curve"/>
      <point x="428" y="94" type="line"/>
      <point x="373" y="30"/>
      <point x="304" y="-12"/>
      <point x="209" y="-12" type="curve" smooth="yes"/>
      <point x="87" y="-12"/>
      <point x="33" y="64"/>
      <point x="33" y="178" type="curve" smooth="yes"/>
      <point x="33" y="351"/>
      <point x="144" y="500"/>
      <point x="335" y="500" type="curve" smooth="yes"/>
      <point x="414" y="500"/>
      <point x="450" y="458"/>
    </contour>
    <contour>
      <point x="322" y="-113" type="curve" smooth="yes"/>
      <point x="322" y="-191"/>
      <point x="247" y="-231"/>
      <point x="177" y="-231" type="curve" smooth="yes"/>
      <point x="136" y="-231"/>
      <point x="98" y="-220"/>
      <point x="98" y="-220" type="curve"/>
      <point x="108" y="-170" type="line"/>
      <point x="108" y="-170"/>
      <point x="145" y="-178"/>
      <point x="170" y="-178" type="curve" smooth="yes"/>
      <point x="196" y="-178"/>
      <point x="235" y="-171"/>
      <point x="235" y="-137" type="curve" smooth="yes"/>
      <point x="235" y="-118"/>
      <point x="218" y="-110"/>
      <point x="198" y="-110" type="curve" smooth="yes"/>
      <point x="191" y="-110"/>
      <point x="175" y="-112"/>
      <point x="175" y="-112" type="curve"/>
      <point x="202" y="24" type="line"/>
      <point x="253" y="24" type="line"/>
      <point x="237" y="-54" type="line"/>
      <point x="237" y="-54"/>
      <point x="241" y="-55"/>
      <point x="251" y="-55" type="curve" smooth="yes"/>
      <point x="291" y="-55"/>
      <point x="322" y="-73"/>
    </contour>
  </outline>
</glyph>
<glyph name="idieresis" format="1">
  <advance width="310"/>
  <unicode hex="00EF"/>
  <outline>
    <contour>
      <point x="308" y="32" type="line"/>
      <point x="248" y="0"/>
      <point x="197" y="-12"/>
      <point x="139" y="-12" type="curve" smooth="yes"/>
      <point x="66" y="-12"/>
      <point x="40" y="42"/>
      <point x="50" y="91" type="curve" smooth="yes"/>
      <point x="113" y="423" type="line"/>
      <point x="27" y="432" type="line"/>
      <point x="27" y="467" type="line"/>
      <point x="192" y="500" type="line"/>
      <point x="262" y="500" type="line"/>
      <point x="185" y="99" type="line" smooth="yes"/>
      <point x="180" y="75"/>
      <point x="180" y="53"/>
      <point x="204" y="53" type="curve" smooth="yes"/>
      <point x="215" y="53"/>
      <point x="271" y="67"/>
      <point x="308" y="87" type="curve"/>
    </contour>
    <contour>
      <point x="405" y="654" type="curve" smooth="yes"/>
      <point x="405" y="616"/>
      <point x="374" y="585"/>
      <point x="336" y="585" type="curve" smooth="yes"/>
      <point x="298" y="585"/>
      <point x="268" y="616"/>
      <point x="268" y="654" type="curve" smooth="yes"/>
      <point x="268" y="692"/>
      <point x="298" y="723"/>
      <point x="336" y="723" type="curve" smooth="yes"/>
      <point x="374" y="723"/>
      <point x="405" y="692"/>
    </contour>
    <contour>
      <point x="195" y="654" type="curve" smooth="yes"/>
      <point x="195" y="616"/>
      <point x="164" y="585"/>
      <point x="126" y="585" type="curve" smooth="yes"/>
      <point x="88" y="585"/>
      <point x="57" y="616"/>
      <point x="57" y="654" type="curve" smooth="yes"/>
      <point x="57" y="692"/>
      <point x="88" y="723"/>
      <point x="126" y="723" type="curve" smooth="yes"/>
      <point x="164" y="723"/>
      <point x="195" y="692"/>
    </contour>
  </outline>
</glyph>
<glyph name="ntilde" format="1">
  <advance width="578"/>
  <unicode hex="00F1"/>
  <outline>
    <contour>
      <point x="574" y="23" type="line"/>
      <point x="539" y="6"/>
      <point x="464" y="-12"/>
      <point x="418" y="-12" type="curve" smooth="yes"/>
      <point x="374" y="-12"/>
      <point x="306" y="-2"/>
      <point x="317" y="51" type="curve" smooth="yes"/>
      <point x="378" y="356" type="line" smooth="yes"/>
      <point x="388" y="405"/>
      <point x="375" y="421"/>
      <point x="354" y="421" type="curve" smooth="yes"/>
      <point x="323" y="421"/>
      <point x="270" y="382"/>
      <point x="228" y="339" type="curve"/>
      <point x="157" y="0" type="line"/>
      <point x="24" y="0" type="line"/>
      <point x="112" y="425" type="line"/>
      <point x="28" y="433" type="line"/>
      <point x="28" y="467" type="line"/>
      <point x="192" y="500" type="line"/>
      <point x="261" y="500" type="line"/>
      <point x="249" y="442" type="line"/>
      <point x="298" y="475"/>
      <point x="358" y="500"/>
      <point x="410" y="500" type="curve" smooth="yes"/>
      <point x="510" y="500"/>
      <point x="535" y="454"/>
      <point x="519" y="369" type="curve" smooth="yes"/>
      <point x="465" y="88" type="line" smooth="yes"/>
      <point x="459" y="55"/>
      <point x="479" y="49"/>
      <point x="489" y="49" type="curve" smooth="yes"/>
      <point x="510" y="49"/>
      <point x="542" y="58"/>
      <point x="572" y="71" type="curve"/>
    </contour>
    <contour>
      <point x="545" y="709" type="line"/>
      <point x="515" y="640"/>
      <point x="468" y="585"/>
      <point x="400" y="585" type="curve" smooth="yes"/>
      <point x="347" y="585"/>
      <point x="336" y="633"/>
      <point x="276" y="633" type="curve" smooth="yes"/>
      <point x="255" y="633"/>
      <point x="232" y="612"/>
      <point x="223" y="585" type="curve"/>
      <point x="169" y="585" type="line"/>
      <point x="200" y="654"/>
      <point x="247" y="709"/>
      <point x="314" y="709" type="curve" smooth="yes"/>
      <point x="367" y="709"/>
      <point x="378" y="662"/>
      <point x="438" y="662" type="curve" smooth="yes"/>
      <point x="459" y="662"/>
      <point x="483" y="683"/>
      <point x="491" y="709" type="curve"/>
    </contour>
  </outline>
</glyph>
<glyph name="otilde" format="1">
  <advance width="553"/>
  <unicode hex="00F5"/>
  <outline>
    <contour>
      <point x="522" y="303" type="curve" smooth="yes"/>
      <point x="522" y="146"/>
      <point x="414" y="-12"/>
      <point x="232" y="-12" type="curve" smooth="yes"/>
      <point x="95" y="-12"/>
      <point x="32" y="70"/>
      <point x="32" y="181" type="curve" smooth="yes"/>
      <point x="32" y="338"/>
      <point x="135" y="500"/>
      <point x="320" y="500" type="curve" smooth="yes"/>
      <point x="443" y="500"/>
      <point x="522" y="433"/>
    </contour>
    <contour>
      <point x="378" y="307" type="curve" smooth="yes"/>
      <point x="378" y="405"/>
      <point x="334" y="447"/>
      <point x="309" y="447" type="curve" smooth="yes"/>
      <point x="248" y="447"/>
      <point x="175" y="320"/>
      <point x="175" y="185" type="curve" smooth="yes"/>
      <point x="175" y="82"/>
      <point x="221" y="43"/>
      <point x="244" y="43" type="curve" smooth="yes"/>
      <point x="314" y="43"/>
      <point x="378" y="184"/>
    </contour>
    <contour>
      <point x="540" y="709" type="line"/>
      <point x="510" y="640"/>
      <point x="463" y="585"/>
      <point x="395" y="585" type="curve" smooth="yes"/>
      <point x="342" y="585"/>
      <point x="331" y="633"/>
      <point x="271" y="633" type="curve" smooth="yes"/>
      <point x="250" y="633"/>
      <point x="227" y="612"/>
      <point x="218" y="585" type="curve"/>
      <point x="164" y="585" type="line"/>
      <point x="195" y="654"/>
      <point x="242" y="709"/>
      <point x="309" y="709" type="curve" smooth="yes"/>
      <point x="362" y="709"/>
      <point x="373" y="662"/>
      <point x="433" y="662" type="curve" smooth="yes"/>
      <point x="454" y="662"/>
      <point x="478" y="683"/>
      <point x="486" y="709" type="curve"/>
    </contour>
  </outline>
</glyph>
<glyph name="ugrave" format="1">
  <advance width="574"/>
  <unicode hex="00F9"/>
  <outline>
    <contour>
      <point x="572" y="28" type="line"/>
      <point x="545" y="13"/>
      <point x="471" y="-12"/>
      <point x="414" y="-12" type="curve" smooth="yes"/>
      <point x="345" y="-12"/>
      <point x="332" y="21"/>
      <point x="329" y="35" type="curve"/>
      <point x="285" y="5"/>
      <point x="235" y="-12"/>
      <point x="170" y="-12" type="curve" smooth="yes"/>
      <point x="71" y="-12"/>
      <point x="35" y="63"/>
      <point x="47" y="117" type="curve" smooth="yes"/>
      <point x="112" y="424" type="line"/>
      <point x="28" y="433" type="line"/>
      <point x="28" y="467" type="line"/>
      <point x="193" y="500" type="line"/>
      <point x="262" y="500" type="line"/>
      <point x="180" y="117" type="line" smooth="yes"/>
      <point x="174" y="86"/>
      <point x="188" y="58"/>
      <point x="213" y="58" type="curve" smooth="yes"/>
      <point x="258" y="58"/>
      <point x="297" y="85"/>
      <point x="333" y="118" type="curve"/>
      <point x="411" y="488" type="line"/>
      <point x="544" y="488" type="line"/>
      <point x="462" y="100" type="line" smooth="yes"/>
      <point x="454" y="63"/>
      <point x="467" y="48"/>
      <point x="488" y="48" type="curve" smooth="yes"/>
      <point x="498" y="48"/>
      <point x="511" y="52"/>
      <point x="572" y="84" type="curve"/>
    </contour>
    <contour>
      <point x="471" y="551" type="line"/>
      <point x="401" y="551" type="line"/>
      <point x="239" y="639" type="line" smooth="yes"/>
      <point x="225" y="647"/>
      <point x="214" y="668"/>
      <point x="214" y="681" type="curve" smooth="yes"/>
      <point x="214" y="705"/>
      <point x="228" y="734"/>
      <point x="271" y="734" type="curve" smooth="yes"/>
      <point x="298" y="734"/>
      <point x="311" y="727"/>
      <point x="334" y="702" type="curve" smooth="yes"/>
    </contour>
  </outline>
</glyph>
<glyph name="yacute" format="1">
  <advance width="542"/>
  <unicode hex="00FD"/>
  <outline>
    <contour>
      <point x="572" y="444" type="line"/>
      <point x="520" y="412" type="line"/>
      <point x="504" y="397"/>
      <point x="456" y="322"/>
      <point x="438" y="281" type="curve" smooth="yes"/>
      <point x="409" y="217"/>
      <point x="358" y="94"/>
      <point x="295" y="-14" type="curve" smooth="yes"/>
      <point x="228" y="-130"/>
      <point x="145" y="-229"/>
      <point x="24" y="-229" type="curve" smooth="yes"/>
      <point x="-57" y="-229"/>
      <point x="-81" y="-181"/>
      <point x="-81" y="-153" type="curve" smooth="yes"/>
      <point x="-81" y="-120"/>
      <point x="-62" y="-72"/>
      <point x="0" y="-70" type="curve"/>
      <point x="43" y="-146" type="line"/>
      <point x="88" y="-136"/>
      <point x="138" y="-81"/>
      <point x="194" y="21" type="curve"/>
      <point x="191" y="37"/>
      <point x="173" y="135"/>
      <point x="152" y="230" type="curve" smooth="yes"/>
      <point x="132" y="322"/>
      <point x="118" y="424"/>
      <point x="109" y="424" type="curve" smooth="yes"/>
      <point x="3" y="432" type="line"/>
      <point x="3" y="463" type="line"/>
      <point x="26" y="471"/>
      <point x="124" y="500"/>
      <point x="145" y="500" type="curve" smooth="yes"/>
      <point x="190" y="500"/>
      <point x="217" y="496"/>
      <point x="245" y="402" type="curve" smooth="yes"/>
      <point x="259" y="356"/>
      <point x="276" y="276"/>
      <point x="292" y="198" type="curve"/>
      <point x="429" y="500" type="line"/>
      <point x="477" y="500" type="line"/>
      <point x="572" y="470" type="line"/>
    </contour>
    <contour>
      <point x="499" y="681" type="curve" smooth="yes"/>
      <point x="499" y="668"/>
      <point x="488" y="647"/>
      <point x="473" y="639" type="curve" smooth="yes"/>
      <point x="312" y="551" type="line"/>
      <point x="242" y="551" type="line"/>
      <point x="379" y="702" type="line" smooth="yes"/>
      <point x="401" y="727"/>
      <point x="415" y="734"/>
      <point x="442" y="734" type="curve" smooth="yes"/>
      <point x="485" y="734"/>
      <point x="499" y="705"/>
    </contour>
  </outline>
</glyph>
<glyph name="ydieresis" format="1">
  <advance width="542"/>
  <unicode hex="00FF"/>
  <outline>
    <contour>
      <point x="572" y="444" type="line"/>
      <point x="520" y="412" type="line"/>
      <point x="504" y="397"/>
      <point x="456" y="322"/>
      <point x="438" y="281" type="curve" smooth="yes"/>
      <point x="409" y="217"/>
      <point x="358" y="94"/>
      <point x="295" y="-14" type="curve" smooth="yes"/>
      <point x="228" y="-130"/>
      <point x="145" y="-229"/>
      <point x="24" y="-229" type="curve" smooth="yes"/>
      <point x="-57" y="-229"/>
      <point x="-81" y="-181"/>
      <point x="-81" y="-153" type="curve" smooth="yes"/>
      <point x="-81" y="-120"/>
      <point x="-62" y="-72"/>
      <point x="0" y="-70" type="curve"/>
      <point x="43" y="-146" type="line"/>
      <point x="88" y="-136"/>
      <point x="138" y="-81"/>
      <point x="194" y="21" type="curve"/>
      <point x="191" y="37"/>
      <point x="173" y="135"/>
      <point x="152" y="230" type="curve" smooth="yes"/>
      <point x="132" y="322"/>
      <point x="118" y="424"/>
      <point x="109" y="424" type="curve" smooth="yes"/>
      <point x="3" y="432" type="line"/>
      <point x="3" y="463" type="line"/>
      <point x="26" y="471"/>
      <point x="124" y="500"/>
      <point x="145" y="500" type="curve" smooth="yes"/>
      <point x="190" y="500"/>
      <point x="217" y="496"/>
      <point x="245" y="402" type="curve" smooth="yes"/>
      <point x="259" y="356"/>
      <point x="276" y="276"/>
      <point x="292" y="198" type="curve"/>
      <point x="429" y="500" type="line"/>
      <point x="477" y="500" type="line"/>
      <point x="572" y="470" type="line"/>
    </contour>
    <contour>
      <point x="522" y="654" type="curve" smooth="yes"/>
      <point x="522" y="616"/>
      <point x="492" y="585"/>
      <point x="454" y="585" type="curve" smooth="yes"/>
      <point x="416" y="585"/>
      <point x="386" y="616"/>
      <point x="386" y="654" type="curve" smooth="yes"/>
      <point x="386" y="692"/>
      <point x="416" y="723"/>
      <point x="454" y="723" type="curve" smooth="yes"/>
      <point x="492" y="723"/>
      <point x="522" y="692"/>
    </contour>
    <contour>
      <point x="312" y="654" type="curve" smooth="yes"/>
      <point x="312" y="616"/>
      <point x="282" y="585"/>
      <point x="244" y="585" type="curve" smooth="yes"/>
      <point x="206" y="585"/>
      <point x="175" y="616"/>
      <point x="175" y="654" type="curve" smooth="yes"/>
      <point x="175" y="692"/>
      <point x="206" y="723"/>
      <point x="244" y="723" type="curve" smooth="yes"/>
      <point x="282" y="723"/>
      <point x="312" y="692"/>
    </contour>
  </outline>
</glyph>
<glyph name="Abreve" format="1">
  <advance width="714"/>
  <unicode hex="0102"/>
  <outline>
    <contour>
      <point x="668" y="0" type="line"/>
      <point x="391" y="0" type="line"/>
      <point x="391" y="50" type="line"/>
      <point x="412" y="52"/>
      <point x="437" y="55"/>
      <point x="437" y="55" type="curve" smooth="yes"/>
      <point x="450" y="56"/>
      <point x="458" y="58"/>
      <point x="456" y="70" type="curve" smooth="yes"/>
      <point x="427" y="253" type="line"/>
      <point x="238" y="253" type="line"/>
      <point x="139" y="70" type="line" smooth="yes"/>
      <point x="133" y="60"/>
      <point x="139" y="56"/>
      <point x="152" y="55" type="curve" smooth="yes"/>
      <point x="152" y="55"/>
      <point x="179" y="52"/>
      <point x="204" y="50" type="curve"/>
      <point x="204" y="0" type="line"/>
      <point x="-53" y="0" type="line"/>
      <point x="-53" y="50" type="line"/>
      <point x="5" y="56" type="line"/>
      <point x="375" y="687" type="line"/>
      <point x="493" y="687" type="line"/>
      <point x="602" y="71" type="line" smooth="yes"/>
      <point x="604" y="58"/>
      <point x="607" y="56"/>
      <point x="622" y="54" type="curve" smooth="yes"/>
      <point x="622" y="54"/>
      <point x="646" y="52"/>
      <point x="668" y="50" type="curve"/>
    </contour>
    <contour>
      <point x="416" y="310" type="line"/>
      <point x="383" y="504" type="line"/>
      <point x="271" y="310" type="line"/>
    </contour>
    <contour>
      <point x="621" y="909" type="line"/>
      <point x="603" y="814"/>
      <point x="532" y="746"/>
      <point x="433" y="746" type="curve" smooth="yes"/>
      <point x="355" y="746"/>
      <point x="304" y="788"/>
      <point x="304" y="867" type="curve" smooth="yes"/>
      <point x="304" y="881"/>
      <point x="306" y="895"/>
      <point x="309" y="909" type="curve"/>
      <point x="361" y="909" type="line"/>
      <point x="362" y="855"/>
      <point x="397" y="827"/>
      <point x="449" y="827" type="curve" smooth="yes"/>
      <point x="504" y="827"/>
      <point x="548" y="858"/>
      <point x="569" y="909" type="curve"/>
    </contour>
  </outline>
</glyph>
<glyph name="Dcaron" format="1">
  <advance width="712"/>
  <unicode hex="010E"/>
  <outline>
    <contour>
      <point x="695" y="414" type="curve" smooth="yes"/>
      <point x="695" y="176"/>
      <point x="523" y="0"/>
      <point x="241" y="0" type="curve" smooth="yes"/>
      <point x="-15" y="0" type="line"/>
      <point x="-15" y="50" type="line"/>
      <point x="14" y="53"/>
      <point x="45" y="54"/>
      <point x="45" y="54" type="curve" smooth="yes"/>
      <point x="61" y="55"/>
      <point x="64" y="57"/>
      <point x="67" y="71" type="curve" smooth="yes"/>
      <point x="171" y="601" type="line" smooth="yes"/>
      <point x="173" y="613"/>
      <point x="165" y="615"/>
      <point x="153" y="616" type="curve" smooth="yes"/>
      <point x="153" y="616"/>
      <point x="123" y="618"/>
      <point x="95" y="621" type="curve"/>
      <point x="95" y="671" type="line"/>
      <point x="355" y="671" type="line" smooth="yes"/>
      <point x="562" y="671"/>
      <point x="695" y="598"/>
    </contour>
    <contour>
      <point x="545" y="423" type="curve" smooth="yes"/>
      <point x="545" y="588"/>
      <point x="433" y="608"/>
      <point x="330" y="611" type="curve" smooth="yes"/>
      <point x="316" y="611" type="line"/>
      <point x="208" y="62" type="line"/>
      <point x="259" y="62" type="line" smooth="yes"/>
      <point x="435" y="64"/>
      <point x="545" y="232"/>
    </contour>
    <contour>
      <point x="626" y="917" type="line"/>
      <point x="481" y="746" type="line"/>
      <point x="363" y="746" type="line"/>
      <point x="286" y="917" type="line"/>
      <point x="369" y="917" type="line"/>
      <point x="438" y="823" type="line"/>
      <point x="543" y="917" type="line"/>
    </contour>
  </outline>
</glyph>
<glyph name="dcaron" format="1">
  <advance width="746"/>
  <unicode hex="010F"/>
  <outline>
    <contour>
      <point x="570" y="737" type="line"/>
      <point x="455" y="90" type="line" smooth="yes"/>
      <point x="449" y="57"/>
      <point x="463" y="49"/>
      <point x="471" y="49" type="curve" smooth="yes"/>
      <point x="499" y="49"/>
      <point x="542" y="68"/>
      <point x="564" y="79" type="curve"/>
      <point x="564" y="30" type="line"/>
      <point x="530" y="10"/>
      <point x="464" y="-12"/>
      <point x="412" y="-12" type="curve" smooth="yes"/>
      <point x="362" y="-12"/>
      <point x="333" y="6"/>
      <point x="322" y="36" type="curve"/>
      <point x="286" y="9"/>
      <point x="239" y="-12"/>
      <point x="196" y="-12" type="curve" smooth="yes"/>
      <point x="80" y="-12"/>
      <point x="32" y="83"/>
      <point x="32" y="169" type="curve" smooth="yes"/>
      <point x="32" y="322"/>
      <point x="133" y="500"/>
      <point x="335" y="500" type="curve" smooth="yes"/>
      <point x="360" y="500"/>
      <point x="380" y="492"/>
      <point x="393" y="488" type="curve"/>
      <point x="423" y="661" type="line"/>
      <point x="333" y="669" type="line"/>
      <point x="333" y="705" type="line"/>
      <point x="502" y="737" type="line"/>
    </contour>
    <contour>
      <point x="376" y="394" type="line" smooth="yes"/>
      <point x="377" y="399"/>
      <point x="357" y="443"/>
      <point x="333" y="443" type="curve" smooth="yes"/>
      <point x="263" y="443"/>
      <point x="170" y="334"/>
      <point x="170" y="175" type="curve" smooth="yes"/>
      <point x="170" y="94"/>
      <point x="190" y="59"/>
      <point x="227" y="59" type="curve" smooth="yes"/>
      <point x="261" y="59"/>
      <point x="296" y="96"/>
      <point x="330" y="135" type="curve"/>
    </contour>
    <contour>
      <point x="766" y="700" type="curve" smooth="yes"/>
      <point x="766" y="616"/>
      <point x="667" y="564"/>
      <point x="596" y="551" type="curve"/>
      <point x="604" y="591" type="line"/>
      <point x="637" y="600"/>
      <point x="682" y="628"/>
      <point x="690" y="665" type="curve"/>
      <point x="627" y="665" type="line"/>
      <point x="618" y="674"/>
      <point x="614" y="686"/>
      <point x="614" y="698" type="curve" smooth="yes"/>
      <point x="614" y="742"/>
      <point x="655" y="767"/>
      <point x="694" y="767" type="curve" smooth="yes"/>
      <point x="735" y="767"/>
      <point x="766" y="742"/>
    </contour>
  </outline>
</glyph>
<glyph name="Edotaccent" format="1">
  <advance width="600"/>
  <unicode hex="0116"/>
  <outline>
    <contour>
      <point x="623" y="671" type="line"/>
      <point x="591" y="513" type="line"/>
      <point x="511" y="513" type="line"/>
      <point x="511" y="598" type="line" smooth="yes"/>
      <point x="511" y="608"/>
      <point x="499" y="611"/>
      <point x="488" y="611" type="curve" smooth="yes"/>
      <point x="316" y="611" type="line"/>
      <point x="271" y="379" type="line"/>
      <point x="384" y="379" type="line" smooth="yes"/>
      <point x="394" y="379"/>
      <point x="409" y="384"/>
      <point x="412" y="394" type="curve" smooth="yes"/>
      <point x="433" y="464" type="line"/>
      <point x="506" y="464" type="line"/>
      <point x="460" y="229" type="line"/>
      <point x="386" y="229" type="line"/>
      <point x="396" y="304" type="line" smooth="yes"/>
      <point x="398" y="312"/>
      <point x="383" y="318"/>
      <point x="374" y="318" type="curve" smooth="yes"/>
      <point x="259" y="318" type="line"/>
      <point x="209" y="60" type="line"/>
      <point x="422" y="60" type="line" smooth="yes"/>
      <point x="432" y="60"/>
      <point x="447" y="66"/>
      <point x="450" y="74" type="curve" smooth="yes"/>
      <point x="482" y="174" type="line"/>
      <point x="561" y="174" type="line"/>
      <point x="526" y="0" type="line"/>
      <point x="-15" y="0" type="line"/>
      <point x="-15" y="50" type="line"/>
      <point x="15" y="53"/>
      <point x="45" y="55"/>
      <point x="45" y="55" type="curve" smooth="yes"/>
      <point x="60" y="56"/>
      <point x="65" y="58"/>
      <point x="67" y="71" type="curve" smooth="yes"/>
      <point x="171" y="601" type="line" smooth="yes"/>
      <point x="174" y="613"/>
      <point x="166" y="615"/>
      <point x="153" y="616" type="curve" smooth="yes"/>
      <point x="153" y="616"/>
      <point x="123" y="618"/>
      <point x="96" y="621" type="curve"/>
      <point x="96" y="671" type="line"/>
    </contour>
    <contour>
      <point x="462" y="848" type="curve" smooth="yes"/>
      <point x="462" y="811"/>
      <point x="433" y="780"/>
      <point x="395" y="780" type="curve" smooth="yes"/>
      <point x="356" y="780"/>
      <point x="327" y="809"/>
      <point x="327" y="848" type="curve" smooth="yes"/>
      <point x="327" y="888"/>
      <point x="354" y="921"/>
      <point x="394" y="921" type="curve" smooth="yes"/>
      <point x="433" y="921"/>
      <point x="462" y="889"/>
    </contour>
  </outline>
</glyph>
<glyph name="Eogonek" format="1">
  <advance width="600"/>
  <unicode hex="0118"/>
  <outline>
    <contour>
      <point x="623" y="671" type="line"/>
      <point x="591" y="513" type="line"/>
      <point x="511" y="513" type="line"/>
      <point x="511" y="598" type="line" smooth="yes"/>
      <point x="511" y="608"/>
      <point x="499" y="611"/>
      <point x="488" y="611" type="curve" smooth="yes"/>
      <point x="316" y="611" type="line"/>
      <point x="271" y="379" type="line"/>
      <point x="384" y="379" type="line" smooth="yes"/>
      <point x="394" y="379"/>
      <point x="409" y="384"/>
      <point x="412" y="394" type="curve" smooth="yes"/>
      <point x="433" y="464" type="line"/>
      <point x="506" y="464" type="line"/>
      <point x="460" y="229" type="line"/>
      <point x="386" y="229" type="line"/>
      <point x="396" y="304" type="line" smooth="yes"/>
      <point x="398" y="312"/>
      <point x="383" y="318"/>
      <point x="374" y="318" type="curve" smooth="yes"/>
      <point x="259" y="318" type="line"/>
      <point x="209" y="60" type="line"/>
      <point x="422" y="60" type="line" smooth="yes"/>
      <point x="432" y="60"/>
      <point x="447" y="66"/>
      <point x="450" y="74" type="curve" smooth="yes"/>
      <point x="482" y="174" type="line"/>
      <point x="561" y="174" type="line"/>
      <point x="526" y="0" type="line"/>
      <point x="-15" y="0" type="line"/>
      <point x="-15" y="50" type="line"/>
      <point x="15" y="53"/>
      <point x="45" y="55"/>
      <point x="45" y="55" type="curve" smooth="yes"/>
      <point x="60" y="56"/>
      <point x="65" y="58"/>
      <point x="67" y="71" type="curve" smooth="yes"/>
      <point x="171" y="601" type="line" smooth="yes"/>
      <point x="174" y="613"/>
      <point x="166" y="615"/>
      <point x="153" y="616" type="curve" smooth="yes"/>
      <point x="153" y="616"/>
      <point x="123" y="618"/>
      <point x="96" y="621" type="curve"/>
      <point x="96" y="671" type="line"/>
    </contour>
    <contour>
      <point x="438" y="-177" type="line"/>
      <point x="413" y="-188"/>
      <point x="362" y="-208"/>
      <point x="336" y="-208" type="curve" smooth="yes"/>
      <point x="293" y="-208"/>
      <point x="241" y="-191"/>
      <point x="241" y="-140" type="curve" smooth="yes"/>
      <point x="241" y="-81"/>
      <point x="301" y="-28"/>
      <point x="348" y="1" type="curve"/>
      <point x="411" y="1" type="line"/>
      <point x="374" y="-23"/>
      <point x="326" y="-63"/>
      <point x="326" y="-111" type="curve" smooth="yes"/>
      <point x="326" y="-136"/>
      <point x="344" y="-150"/>
      <point x="368" y="-150" type="curve" smooth="yes"/>
      <point x="381" y="-150"/>
      <point x="405" y="-133"/>
      <point x="417" y="-125" type="curve"/>
    </contour>
  </outline>
</glyph>
<glyph name="Itilde" format="1">
  <advance width="355"/>
  <unicode hex="0128"/>
  <outline>
    <contour>
      <point x="398" y="621" type="line"/>
      <point x="329" y="616" type="line" smooth="yes"/>
      <point x="319" y="615"/>
      <point x="316" y="609"/>
      <point x="314" y="600" type="curve" smooth="yes"/>
      <point x="210" y="70" type="line" smooth="yes"/>
      <point x="208" y="59"/>
      <point x="212" y="56"/>
      <point x="225" y="55" type="curve" smooth="yes"/>
      <point x="225" y="55"/>
      <point x="256" y="53"/>
      <point x="288" y="50" type="curve"/>
      <point x="288" y="0" type="line"/>
      <point x="-15" y="0" type="line"/>
      <point x="-15" y="50" type="line"/>
      <point x="14" y="52"/>
      <point x="44" y="54"/>
      <point x="44" y="54" type="curve" smooth="yes"/>
      <point x="59" y="55"/>
      <point x="65" y="57"/>
      <point x="67" y="71" type="curve" smooth="yes"/>
      <point x="171" y="601" type="line" smooth="yes"/>
      <point x="174" y="613"/>
      <point x="166" y="615"/>
      <point x="153" y="616" type="curve" smooth="yes"/>
      <point x="153" y="616"/>
      <point x="123" y="618"/>
      <point x="96" y="621" type="curve"/>
      <point x="96" y="671" type="line"/>
      <point x="398" y="671" type="line"/>
    </contour>
    <contour>
      <point x="462" y="904" type="line"/>
      <point x="432" y="835"/>
      <point x="385" y="780"/>
      <point x="317" y="780" type="curve" smooth="yes"/>
      <point x="264" y="780"/>
      <point x="253" y="828"/>
      <point x="193" y="828" type="curve" smooth="yes"/>
      <point x="172" y="828"/>
      <point x="149" y="807"/>
      <point x="140" y="780" type="curve"/>
      <point x="86" y="780" type="line"/>
      <point x="117" y="849"/>
      <point x="164" y="904"/>
      <point x="231" y="904" type="curve" smooth="yes"/>
      <point x="284" y="904"/>
      <point x="295" y="857"/>
      <point x="355" y="857" type="curve" smooth="yes"/>
      <point x="376" y="857"/>
      <point x="400" y="878"/>
      <point x="408" y="904" type="curve"/>
    </contour>
  </outline>
</glyph>
<glyph name="itilde" format="1">
  <advance width="310"/>
  <unicode hex="0129"/>
  <outline>
    <contour>
      <point x="308" y="32" type="line"/>
      <point x="248" y="0"/>
      <point x="197" y="-12"/>
      <point x="139" y="-12" type="curve" smooth="yes"/>
      <point x="66" y="-12"/>
      <point x="40" y="42"/>
      <point x="50" y="91" type="curve" smooth="yes"/>
      <point x="113" y="423" type="line"/>
      <point x="27" y="432" type="line"/>
      <point x="27" y="467" type="line"/>
      <point x="192" y="500" type="line"/>
      <point x="262" y="500" type="line"/>
      <point x="185" y="99" type="line" smooth="yes"/>
      <point x="180" y="75"/>
      <point x="180" y="53"/>
      <point x="204" y="53" type="curve" smooth="yes"/>
      <point x="215" y="53"/>
      <point x="271" y="67"/>
      <point x="308" y="87" type="curve"/>
    </contour>
    <contour>
      <point x="411" y="709" type="line"/>
      <point x="381" y="640"/>
      <point x="334" y="585"/>
      <point x="266" y="585" type="curve" smooth="yes"/>
      <point x="213" y="585"/>
      <point x="202" y="633"/>
      <point x="142" y="633" type="curve" smooth="yes"/>
      <point x="121" y="633"/>
      <point x="98" y="612"/>
      <point x="89" y="585" type="curve"/>
      <point x="35" y="585" type="line"/>
      <point x="66" y="654"/>
      <point x="113" y="709"/>
      <point x="180" y="709" type="curve" smooth="yes"/>
      <point x="233" y="709"/>
      <point x="244" y="662"/>
      <point x="304" y="662" type="curve" smooth="yes"/>
      <point x="325" y="662"/>
      <point x="349" y="683"/>
      <point x="357" y="709" type="curve"/>
    </contour>
  </outline>
</glyph>
<glyph name="ibreve" format="1">
  <advance width="310"/>
  <unicode hex="012D"/>
  <outline>
    <contour>
      <point x="308" y="32" type="line"/>
      <point x="248" y="0"/>
      <point x="197" y="-12"/>
      <point x="139" y="-12" type="curve" smooth="yes"/>
      <point x="66" y="-12"/>
      <point x="40" y="42"/>
      <point x="50" y="91" type="curve" smooth="yes"/>
      <point x="113" y="423" type="line"/>
      <point x="27" y="432" type="line"/>
      <point x="27" y="467" type="line"/>
      <point x="192" y="500" type="line"/>
      <point x="262" y="500" type="line"/>
      <point x="185" y="99" type="line" smooth="yes"/>
      <point x="180" y="75"/>
      <point x="180" y="53"/>
      <point x="204" y="53" type="curve" smooth="yes"/>
      <point x="215" y="53"/>
      <point x="271" y="67"/>
      <point x="308" y="87" type="curve"/>
    </contour>
    <contour>
      <point x="399" y="714" type="line"/>
      <point x="381" y="619"/>
      <point x="310" y="551"/>
      <point x="211" y="551" type="curve" smooth="yes"/>
      <point x="133" y="551"/>
      <point x="82" y="593"/>
      <point x="82" y="672" type="curve" smooth="yes"/>
      <point x="82" y="686"/>
      <point x="84" y="700"/>
      <point x="87" y="714" type="curve"/>
      <point x="139" y="714" type="line"/>
      <point x="140" y="660"/>
      <point x="175" y="632"/>
      <point x="227" y="632" type="curve" smooth="yes"/>
      <point x="282" y="632"/>
      <point x="326" y="663"/>
      <point x="347" y="714" type="curve"/>
    </contour>
  </outline>
</glyph>
<glyph name="IJ" format="1">
  <advance width="865"/>
  <unicode hex="0132"/>
  <outline>
    <contour>
      <point x="398" y="621" type="line"/>
      <point x="329" y="616" type="line" smooth="yes"/>
      <point x="319" y="615"/>
      <point x="316" y="609"/>
      <point x="314" y="600" type="curve" smooth="yes"/>
      <point x="210" y="70" type="line" smooth="yes"/>
      <point x="208" y="59"/>
      <point x="212" y="56"/>
      <point x="225" y="55" type="curve" smooth="yes"/>
      <point x="225" y="55"/>
      <point x="256" y="53"/>
      <point x="288" y="50" type="curve"/>
      <point x="288" y="0" type="line"/>
      <point x="-15" y="0" type="line"/>
      <point x="-15" y="50" type="line"/>
      <point x="14" y="52"/>
      <point x="44" y="54"/>
      <point x="44" y="54" type="curve" smooth="yes"/>
      <point x="59" y="55"/>
      <point x="65" y="57"/>
      <point x="67" y="71" type="curve" smooth="yes"/>
      <point x="171" y="601" type="line" smooth="yes"/>
      <point x="174" y="613"/>
      <point x="166" y="615"/>
      <point x="153" y="616" type="curve" smooth="yes"/>
      <point x="153" y="616"/>
      <point x="123" y="618"/>
      <point x="96" y="621" type="curve"/>
      <point x="96" y="671" type="line"/>
      <point x="398" y="671" type="line"/>
    </contour>
    <contour>
      <point x="905" y="621" type="line"/>
      <point x="837" y="615" type="line" smooth="yes"/>
      <point x="828" y="615"/>
      <point x="825" y="609"/>
      <point x="823" y="600" type="curve" smooth="yes"/>
      <point x="759" y="257" type="line" smooth="yes"/>
      <point x="730" y="99"/>
      <point x="686" y="-16"/>
      <point x="489" y="-16" type="curve" smooth="yes"/>
      <point x="400" y="-16"/>
      <point x="350" y="11"/>
      <point x="336" y="18" type="curve"/>
      <point x="370" y="192" type="line"/>
      <point x="452" y="192" type="line"/>
      <point x="452" y="66" type="line" smooth="yes"/>
      <point x="452" y="55"/>
      <point x="481" y="46"/>
      <point x="496" y="46" type="curve" smooth="yes"/>
      <point x="554" y="46"/>
      <point x="589" y="112"/>
      <point x="614" y="249" type="curve" smooth="yes"/>
      <point x="680" y="601" type="line" smooth="yes"/>
      <point x="682" y="613"/>
      <point x="675" y="615"/>
      <point x="662" y="616" type="curve" smooth="yes"/>
      <point x="662" y="616"/>
      <point x="631" y="618"/>
      <point x="603" y="621" type="curve"/>
      <point x="603" y="671" type="line"/>
      <point x="905" y="671" type="line"/>
    </contour>
  </outline>
</glyph>
<glyph name="Lcedilla" format="1">
  <advance width="560"/>
  <unicode hex="013B"/>
  <outline>
    <contour>
      <point x="528" y="202" type="line"/>
      <point x="488" y="0" type="line"/>
      <point x="-15" y="0" type="line"/>
      <point x="-15" y="50" type="line"/>
      <point x="12" y="53"/>
      <point x="42" y="54"/>
      <point x="42" y="54" type="curve" smooth="yes"/>
      <point x="61" y="56"/>
      <point x="65" y="58"/>
      <point x="67" y="71" type="curve" smooth="yes"/>
      <point x="171" y="601" type="line" smooth="yes"/>
      <point x="174" y="612"/>
      <point x="166" y="615"/>
      <point x="155" y="616" type="curve" smooth="yes"/>
      <point x="155" y="616"/>
      <point x="125" y="618"/>
      <point x="96" y="621" type="curve"/>
      <point x="96" y="671" type="line"/>
      <point x="398" y="671" type="line"/>
      <point x="398" y="621" type="line"/>
      <point x="365" y="618"/>
      <point x="333" y="616"/>
      <point x="333" y="616" type="curve" smooth="yes"/>
      <point x="324" y="615"/>
      <point x="317" y="612"/>
      <point x="314" y="600" type="curve" smooth="yes"/>
      <point x="208" y="60" type="line"/>
      <point x="384" y="60" type="line" smooth="yes"/>
      <point x="394" y="60"/>
      <point x="409" y="66"/>
      <point x="412" y="74" type="curve" smooth="yes"/>
      <point x="453" y="202" type="line"/>
    </contour>
    <contour>
      <point x="278" y="-128" type="curve" smooth="yes"/>
      <point x="278" y="-212"/>
      <point x="179" y="-264"/>
      <point x="108" y="-277" type="curve"/>
      <point x="116" y="-237" type="line"/>
      <point x="150" y="-228"/>
      <point x="194" y="-200"/>
      <point x="202" y="-163" type="curve"/>
      <point x="139" y="-163" type="line"/>
      <point x="130" y="-154"/>
      <point x="126" y="-143"/>
      <point x="126" y="-131" type="curve" smooth="yes"/>
      <point x="126" y="-87"/>
      <point x="166" y="-61"/>
      <point x="206" y="-61" type="curve" smooth="yes"/>
      <point x="247" y="-61"/>
      <point x="278" y="-86"/>
    </contour>
  </outline>
</glyph>
<glyph name="Ldot" format="1">
  <advance width="693"/>
  <unicode hex="013F"/>
  <outline>
    <contour>
      <point x="528" y="202" type="line"/>
      <point x="488" y="0" type="line"/>
      <point x="-15" y="0" type="line"/>
      <point x="-15" y="50" type="line"/>
      <point x="12" y="53"/>
      <point x="42" y="54"/>
      <point x="42" y="54" type="curve" smooth="yes"/>
      <point x="61" y="56"/>
      <point x="65" y="58"/>
      <point x="67" y="71" type="curve" smooth="yes"/>
      <point x="171" y="601" type="line" smooth="yes"/>
      <point x="174" y="612"/>
      <point x="166" y="615"/>
      <point x="155" y="616" type="curve" smooth="yes"/>
      <point x="155" y="616"/>
      <point x="125" y="618"/>
      <point x="96" y="621" type="curve"/>
      <point x="96" y="671" type="line"/>
      <point x="398" y="671" type="line"/>
      <point x="398" y="621" type="line"/>
      <point x="365" y="618"/>
      <point x="333" y="616"/>
      <point x="333" y="616" type="curve" smooth="yes"/>
      <point x="324" y="615"/>
      <point x="317" y="612"/>
      <point x="314" y="600" type="curve" smooth="yes"/>
      <point x="208" y="60" type="line"/>
      <point x="384" y="60" type="line" smooth="yes"/>
      <point x="394" y="60"/>
      <point x="409" y="66"/>
      <point x="412" y="74" type="curve" smooth="yes"/>
      <point x="453" y="202" type="line"/>
    </contour>
    <contour>
      <point x="688" y="340" type="curve" smooth="yes"/>
      <point x="688" y="307"/>
      <point x="663" y="281"/>
      <point x="630" y="281" type="curve" smooth="yes"/>
      <point x="597" y="281"/>
      <point x="571" y="307"/>
      <point x="571" y="340" type="curve" smooth="yes"/>
      <point x="571" y="373"/>
      <point x="597" y="399"/>
      <point x="630" y="399" type="curve" smooth="yes"/>
      <point x="663" y="399"/>
      <point x="688" y="373"/>
    </contour>
  </outline>
</glyph>
<glyph name="ldot" format="1">
  <advance width="439"/>
  <unicode hex="0140"/>
  <outline>
    <contour>
      <point x="304" y="29" type="line"/>
      <point x="256" y="4"/>
      <point x="196" y="-12"/>
      <point x="144" y="-12" type="curve" smooth="yes"/>
      <point x="78" y="-12"/>
      <point x="39" y="18"/>
      <point x="39" y="64" type="curve" smooth="yes"/>
      <point x="39" y="75"/>
      <point x="40" y="87"/>
      <point x="43" y="100" type="curve" smooth="yes"/>
      <point x="152" y="661" type="line"/>
      <point x="64" y="669" type="line"/>
      <point x="64" y="705" type="line"/>
      <point x="233" y="737" type="line"/>
      <point x="299" y="737" type="line"/>
      <point x="176" y="102" type="line" smooth="yes"/>
      <point x="172" y="79"/>
      <point x="177" y="53"/>
      <point x="202" y="53" type="curve" smooth="yes"/>
      <point x="218" y="53"/>
      <point x="257" y="62"/>
      <point x="304" y="83" type="curve"/>
    </contour>
    <contour>
      <point x="435" y="340" type="curve" smooth="yes"/>
      <point x="435" y="307"/>
      <point x="409" y="281"/>
      <point x="376" y="281" type="curve" smooth="yes"/>
      <point x="343" y="281"/>
      <point x="317" y="307"/>
      <point x="317" y="340" type="curve" smooth="yes"/>
      <point x="317" y="373"/>
      <point x="343" y="399"/>
      <point x="376" y="399" type="curve" smooth="yes"/>
      <point x="409" y="399"/>
      <point x="435" y="373"/>
    </contour>
  </outline>
</glyph>
<glyph name="Nacute" format="1">
  <advance width="752"/>
  <unicode hex="0143"/>
  <outline>
    <contour>
      <point x="797" y="621" type="line"/>
      <point x="732" y="615" type="line" smooth="yes"/>
      <point x="723" y="614"/>
      <point x="717" y="609"/>
      <point x="715" y="600" type="curve" smooth="yes"/>
      <point x="596" y="0" type="line"/>
      <point x="485" y="0" type="line"/>
      <point x="261" y="465" type="line"/>
      <point x="184" y="70" type="line" smooth="yes"/>
      <point x="182" y="58"/>
      <point x="188" y="56"/>
      <point x="202" y="55" type="curve" smooth="yes"/>
      <point x="202" y="55"/>
      <point x="231" y="53"/>
      <point x="260" y="50" type="curve"/>
      <point x="260" y="0" type="line"/>
      <point x="-14" y="0" type="line"/>
      <point x="-14" y="50" type="line"/>
      <point x="14" y="53"/>
      <point x="43" y="55"/>
      <point x="43" y="55" type="curve" smooth="yes"/>
      <point x="57" y="56"/>
      <point x="65" y="58"/>
      <point x="68" y="71" type="curve" smooth="yes"/>
      <point x="171" y="601" type="line" smooth="yes"/>
      <point x="174" y="613"/>
      <point x="166" y="615"/>
      <point x="153" y="616" type="curve" smooth="yes"/>
      <point x="153" y="616"/>
      <point x="124" y="618"/>
      <point x="96" y="621" type="curve"/>
      <point x="96" y="671" type="line"/>
      <point x="331" y="671" type="line"/>
      <point x="331" y="640" type="line"/>
      <point x="526" y="233" type="line"/>
      <point x="599" y="601" type="line" smooth="yes"/>
      <point x="602" y="613"/>
      <point x="592" y="615"/>
      <point x="580" y="616" type="curve" smooth="yes"/>
      <point x="580" y="616"/>
      <point x="550" y="618"/>
      <point x="523" y="621" type="curve"/>
      <point x="523" y="671" type="line"/>
      <point x="797" y="671" type="line"/>
    </contour>
    <contour>
      <point x="628" y="876" type="curve" smooth="yes"/>
      <point x="628" y="863"/>
      <point x="617" y="842"/>
      <point x="602" y="834" type="curve" smooth="yes"/>
      <point x="441" y="746" type="line"/>
      <point x="371" y="746" type="line"/>
      <point x="508" y="897" type="line" smooth="yes"/>
      <point x="530" y="922"/>
      <point x="544" y="929"/>
      <point x="571" y="929" type="curve" smooth="yes"/>
      <point x="614" y="929"/>
      <point x="628" y="900"/>
    </contour>
  </outline>
</glyph>
<glyph name="Ncedilla" format="1">
  <advance width="752"/>
  <unicode hex="0145"/>
  <outline>
    <contour>
      <point x="797" y="621" type="line"/>
      <point x="732" y="615" type="line" smooth="yes"/>
      <point x="723" y="614"/>
      <point x="717" y="609"/>
      <point x="715" y="600" type="curve" smooth="yes"/>
      <point x="596" y="0" type="line"/>
      <point x="485" y="0" type="line"/>
      <point x="261" y="465" type="line"/>
      <point x="184" y="70" type="line" smooth="yes"/>
      <point x="182" y="58"/>
      <point x="188" y="56"/>
      <point x="202" y="55" type="curve" smooth="yes"/>
      <point x="202" y="55"/>
      <point x="231" y="53"/>
      <point x="260" y="50" type="curve"/>
      <point x="260" y="0" type="line"/>
      <point x="-14" y="0" type="line"/>
      <point x="-14" y="50" type="line"/>
      <point x="14" y="53"/>
      <point x="43" y="55"/>
      <point x="43" y="55" type="curve" smooth="yes"/>
      <point x="57" y="56"/>
      <point x="65" y="58"/>
      <point x="68" y="71" type="curve" smooth="yes"/>
      <point x="171" y="601" type="line" smooth="yes"/>
      <point x="174" y="613"/>
      <point x="166" y="615"/>
      <point x="153" y="616" type="curve" smooth="yes"/>
      <point x="153" y="616"/>
      <point x="124" y="618"/>
      <point x="96" y="621" type="curve"/>
      <point x="96" y="671" type="line"/>
      <point x="331" y="671" type="line"/>
      <point x="331" y="640" type="line"/>
      <point x="526" y="233" type="line"/>
      <point x="599" y="601" type="line" smooth="yes"/>
      <point x="602" y="613"/>
      <point x="592" y="615"/>
      <point x="580" y="616" type="curve" smooth="yes"/>
      <point x="580" y="616"/>
      <point x="550" y="618"/>
      <point x="523" y="621" type="curve"/>
      <point x="523" y="671" type="line"/>
      <point x="797" y="671" type="line"/>
    </contour>
    <contour>
      <point x="373" y="-128" type="curve" smooth="yes"/>
      <point x="373" y="-212"/>
      <point x="273" y="-264"/>
      <point x="202" y="-277" type="curve"/>
      <point x="210" y="-237" type="line"/>
      <point x="244" y="-228"/>
      <point x="288" y="-200"/>
      <point x="296" y="-163" type="curve"/>
      <point x="233" y="-163" type="line"/>
      <point x="224" y="-154"/>
      <point x="220" y="-143"/>
      <point x="220" y="-131" type="curve" smooth="yes"/>
      <point x="220" y="-87"/>
      <point x="260" y="-61"/>
      <point x="300" y="-61" type="curve" smooth="yes"/>
      <point x="341" y="-61"/>
      <point x="373" y="-86"/>
    </contour>
  </outline>
</glyph>
<glyph name="Eng" format="1">
  <advance width="767"/>
  <unicode hex="014A"/>
  <outline>
    <contour>
      <point x="731" y="510" type="curve" smooth="yes"/>
      <point x="731" y="499"/>
      <point x="730" y="487"/>
      <point x="728" y="476" type="curve" smooth="yes"/>
      <point x="634" y="-21" type="line" smooth="yes"/>
      <point x="610" y="-149"/>
      <point x="549" y="-229"/>
      <point x="379" y="-229" type="curve" smooth="yes"/>
      <point x="317" y="-229"/>
      <point x="281" y="-196"/>
      <point x="281" y="-160" type="curve" smooth="yes"/>
      <point x="281" y="-124"/>
      <point x="315" y="-80"/>
      <point x="362" y="-80" type="curve"/>
      <point x="420" y="-158" type="line"/>
      <point x="460" y="-155"/>
      <point x="471" y="-129"/>
      <point x="487" y="-42" type="curve" smooth="yes"/>
      <point x="584" y="476" type="line" smooth="yes"/>
      <point x="600" y="558"/>
      <point x="529" y="604"/>
      <point x="480" y="604" type="curve" smooth="yes"/>
      <point x="406" y="604"/>
      <point x="326" y="522"/>
      <point x="286" y="456" type="curve"/>
      <point x="211" y="76" type="line" smooth="yes"/>
      <point x="209" y="63"/>
      <point x="215" y="56"/>
      <point x="229" y="55" type="curve" smooth="yes"/>
      <point x="229" y="55"/>
      <point x="250" y="52"/>
      <point x="278" y="50" type="curve"/>
      <point x="278" y="0" type="line"/>
      <point x="-15" y="0" type="line"/>
      <point x="-15" y="50" type="line"/>
      <point x="13" y="52"/>
      <point x="43" y="54"/>
      <point x="43" y="54" type="curve" smooth="yes"/>
      <point x="62" y="56"/>
      <point x="66" y="63"/>
      <point x="68" y="76" type="curve" smooth="yes"/>
      <point x="169" y="591" type="line" smooth="yes"/>
      <point x="172" y="608"/>
      <point x="170" y="615"/>
      <point x="152" y="617" type="curve" smooth="yes"/>
      <point x="152" y="617"/>
      <point x="122" y="619"/>
      <point x="95" y="621" type="curve"/>
      <point x="95" y="671" type="line"/>
      <point x="328" y="671" type="line"/>
      <point x="314" y="603" type="line"/>
      <point x="370" y="653"/>
      <point x="439" y="687"/>
      <point x="524" y="687" type="curve" smooth="yes"/>
      <point x="640" y="687"/>
      <point x="731" y="610"/>
    </contour>
  </outline>
</glyph>
<glyph name="OE" format="1">
  <advance width="1046"/>
  <unicode hex="0152"/>
  <outline>
    <contour>
      <point x="1080" y="671" type="line"/>
      <point x="1048" y="513" type="line"/>
      <point x="968" y="513" type="line"/>
      <point x="968" y="598" type="line" smooth="yes"/>
      <point x="968" y="608"/>
      <point x="956" y="612"/>
      <point x="945" y="612" type="curve" smooth="yes"/>
      <point x="765" y="612" type="line"/>
      <point x="719" y="379" type="line"/>
      <point x="832" y="379" type="line" smooth="yes"/>
      <point x="842" y="379"/>
      <point x="857" y="384"/>
      <point x="859" y="394" type="curve" smooth="yes"/>
      <point x="880" y="464" type="line"/>
      <point x="954" y="464" type="line"/>
      <point x="907" y="229" type="line"/>
      <point x="833" y="229" type="line"/>
      <point x="844" y="304" type="line" smooth="yes"/>
      <point x="845" y="312"/>
      <point x="831" y="318"/>
      <point x="821" y="318" type="curve" smooth="yes"/>
      <point x="708" y="318" type="line"/>
      <point x="656" y="60" type="line"/>
      <point x="870" y="60" type="line" smooth="yes"/>
      <point x="879" y="60"/>
      <point x="895" y="66"/>
      <point x="897" y="74" type="curve" smooth="yes"/>
      <point x="930" y="174" type="line"/>
      <point x="1008" y="174" type="line"/>
      <point x="974" y="0" type="line"/>
      <point x="503" y="0" type="line"/>
      <point x="515" y="51" type="line"/>
      <point x="464" y="9"/>
      <point x="408" y="-16"/>
      <point x="341" y="-16" type="curve" smooth="yes"/>
      <point x="164" y="-16"/>
      <point x="48" y="94"/>
      <point x="48" y="264" type="curve" smooth="yes"/>
      <point x="48" y="463"/>
      <point x="191" y="687"/>
      <point x="440" y="687" type="curve" smooth="yes"/>
      <point x="531" y="687"/>
      <point x="587" y="659"/>
      <point x="625" y="621" type="curve"/>
      <point x="634" y="671" type="line"/>
    </contour>
    <contour>
      <point x="577" y="417" type="curve" smooth="yes"/>
      <point x="577" y="573"/>
      <point x="487" y="627"/>
      <point x="431" y="627" type="curve" smooth="yes"/>
      <point x="317" y="627"/>
      <point x="203" y="436"/>
      <point x="203" y="254" type="curve" smooth="yes"/>
      <point x="203" y="108"/>
      <point x="287" y="46"/>
      <point x="348" y="46" type="curve" smooth="yes"/>
      <point x="465" y="46"/>
      <point x="577" y="237"/>
    </contour>
  </outline>
</glyph>
<glyph name="oe" format="1">
  <advance width="788"/>
  <unicode hex="0153"/>
  <outline>
    <contour>
      <point x="771" y="385" type="curve" smooth="yes"/>
      <point x="771" y="262"/>
      <point x="579" y="227"/>
      <point x="487" y="219" type="curve"/>
      <point x="486" y="206"/>
      <point x="485" y="188"/>
      <point x="485" y="179" type="curve" smooth="yes"/>
      <point x="485" y="104"/>
      <point x="517" y="58"/>
      <point x="571" y="58" type="curve" smooth="yes"/>
      <point x="619" y="58"/>
      <point x="665" y="102"/>
      <point x="758" y="187" type="curve"/>
      <point x="758" y="85" type="line"/>
      <point x="700" y="33"/>
      <point x="628" y="-12"/>
      <point x="537" y="-12" type="curve" smooth="yes"/>
      <point x="471" y="-12"/>
      <point x="429" y="14"/>
      <point x="400" y="58" type="curve"/>
      <point x="359" y="10"/>
      <point x="305" y="-12"/>
      <point x="231" y="-12" type="curve" smooth="yes"/>
      <point x="99" y="-12"/>
      <point x="32" y="68"/>
      <point x="32" y="181" type="curve" smooth="yes"/>
      <point x="32" y="325"/>
      <point x="123" y="500"/>
      <point x="317" y="500" type="curve" smooth="yes"/>
      <point x="378" y="500"/>
      <point x="433" y="467"/>
      <point x="464" y="421" type="curve"/>
      <point x="502" y="468"/>
      <point x="576" y="500"/>
      <point x="647" y="500" type="curve" smooth="yes"/>
      <point x="736" y="500"/>
      <point x="771" y="428"/>
    </contour>
    <contour>
      <point x="651" y="385" type="curve" smooth="yes"/>
      <point x="651" y="400"/>
      <point x="654" y="443"/>
      <point x="619" y="443" type="curve" smooth="yes"/>
      <point x="557" y="443"/>
      <point x="517" y="351"/>
      <point x="496" y="270" type="curve"/>
      <point x="553" y="281"/>
      <point x="651" y="316"/>
    </contour>
    <contour>
      <point x="368" y="296" type="curve" smooth="yes"/>
      <point x="368" y="370"/>
      <point x="358" y="446"/>
      <point x="302" y="446" type="curve" smooth="yes"/>
      <point x="242" y="446"/>
      <point x="171" y="316"/>
      <point x="171" y="185" type="curve" smooth="yes"/>
      <point x="171" y="103"/>
      <point x="189" y="43"/>
      <point x="240" y="43" type="curve" smooth="yes"/>
      <point x="310" y="43"/>
      <point x="368" y="177"/>
    </contour>
  </outline>
</glyph>
<glyph name="rcedilla" format="1">
  <advance width="418"/>
  <unicode hex="0157"/>
  <outline>
    <contour>
      <point x="456" y="429" type="curve" smooth="yes"/>
      <point x="456" y="383"/>
      <point x="429" y="360"/>
      <point x="361" y="360" type="curve"/>
      <point x="334" y="414" type="line"/>
      <point x="271" y="383"/>
      <point x="219" y="324"/>
      <point x="207" y="264" type="curve" smooth="yes"/>
      <point x="151" y="0" type="line"/>
      <point x="18" y="0" type="line"/>
      <point x="106" y="423" type="line"/>
      <point x="22" y="432" type="line"/>
      <point x="22" y="467" type="line"/>
      <point x="188" y="500" type="line"/>
      <point x="257" y="500" type="line"/>
      <point x="244" y="433" type="line"/>
      <point x="280" y="470"/>
      <point x="330" y="500"/>
      <point x="380" y="500" type="curve" smooth="yes"/>
      <point x="432" y="500"/>
      <point x="456" y="458"/>
    </contour>
    <contour>
      <point x="123" y="-128" type="curve" smooth="yes"/>
      <point x="123" y="-212"/>
      <point x="24" y="-264"/>
      <point x="-47" y="-277" type="curve"/>
      <point x="-39" y="-237" type="line"/>
      <point x="-5" y="-228"/>
      <point x="39" y="-200"/>
      <point x="47" y="-163" type="curve"/>
      <point x="-16" y="-163" type="line"/>
      <point x="-25" y="-154"/>
      <point x="-29" y="-143"/>
      <point x="-29" y="-131" type="curve" smooth="yes"/>
      <point x="-29" y="-87"/>
      <point x="11" y="-61"/>
      <point x="51" y="-61" type="curve" smooth="yes"/>
      <point x="92" y="-61"/>
      <point x="123" y="-86"/>
    </contour>
  </outline>
</glyph>
<glyph name="rcaron" format="1">
  <advance width="418"/>
  <unicode hex="0159"/>
  <outline>
    <contour>
      <point x="456" y="429" type="curve" smooth="yes"/>
      <point x="456" y="383"/>
      <point x="429" y="360"/>
      <point x="361" y="360" type="curve"/>
      <point x="334" y="414" type="line"/>
      <point x="271" y="383"/>
      <point x="219" y="324"/>
      <point x="207" y="264" type="curve" smooth="yes"/>
      <point x="151" y="0" type="line"/>
      <point x="18" y="0" type="line"/>
      <point x="106" y="423" type="line"/>
      <point x="22" y="432" type="line"/>
      <point x="22" y="467" type="line"/>
      <point x="188" y="500" type="line"/>
      <point x="257" y="500" type="line"/>
      <point x="244" y="433" type="line"/>
      <point x="280" y="470"/>
      <point x="330" y="500"/>
      <point x="380" y="500" type="curve" smooth="yes"/>
      <point x="432" y="500"/>
      <point x="456" y="458"/>
    </contour>
    <contour>
      <point x="476" y="722" type="line"/>
      <point x="331" y="551" type="line"/>
      <point x="213" y="551" type="line"/>
      <point x="136" y="722" type="line"/>
      <point x="219" y="722" type="line"/>
      <point x="288" y="628" type="line"/>
      <point x="393" y="722" type="line"/>
    </contour>
  </outline>
</glyph>
<glyph name="Scaron" format="1">
  <advance width="562"/>
  <unicode hex="0160"/>
  <outline>
    <contour>
      <point x="556" y="647" type="curve"/>
      <point x="522" y="491" type="line"/>
      <point x="446" y="491" type="line"/>
      <point x="450" y="595" type="line" smooth="yes"/>
      <point x="450" y="602"/>
      <point x="394" y="628"/>
      <point x="357" y="628" type="curve" smooth="yes"/>
      <point x="305" y="628"/>
      <point x="228" y="580"/>
      <point x="228" y="499" type="curve" smooth="yes"/>
      <point x="228" y="429"/>
      <point x="315" y="396"/>
      <point x="367" y="371" type="curve" smooth="yes"/>
      <point x="439" y="335"/>
      <point x="509" y="294"/>
      <point x="509" y="207" type="curve" smooth="yes"/>
      <point x="509" y="116"/>
      <point x="439" y="-16"/>
      <point x="208" y="-16" type="curve" smooth="yes"/>
      <point x="98" y="-16"/>
      <point x="13" y="29"/>
      <point x="-5" y="40" type="curve"/>
      <point x="30" y="204" type="line"/>
      <point x="115" y="204" type="line"/>
      <point x="104" y="85" type="line" smooth="yes"/>
      <point x="103" y="77"/>
      <point x="188" y="46"/>
      <point x="222" y="46" type="curve" smooth="yes"/>
      <point x="282" y="46"/>
      <point x="363" y="92"/>
      <point x="363" y="185" type="curve" smooth="yes"/>
      <point x="363" y="250"/>
      <point x="273" y="285"/>
      <point x="224" y="310" type="curve" smooth="yes"/>
      <point x="153" y="346"/>
      <point x="84" y="386"/>
      <point x="84" y="466" type="curve" smooth="yes"/>
      <point x="84" y="594"/>
      <point x="190" y="687"/>
      <point x="365" y="687" type="curve" smooth="yes"/>
      <point x="455" y="687"/>
      <point x="516" y="665"/>
    </contour>
    <contour>
      <point x="584" y="917" type="line"/>
      <point x="439" y="746" type="line"/>
      <point x="321" y="746" type="line"/>
      <point x="244" y="917" type="line"/>
      <point x="327" y="917" type="line"/>
      <point x="396" y="823" type="line"/>
      <point x="501" y="917" type="line"/>
    </contour>
  </outline>
</glyph>
<glyph name="uni0162" format="1">
  <advance width="627"/>
  <unicode hex="0162"/>
  <outline>
    <contour>
      <point x="692" y="671" type="line"/>
      <point x="656" y="496" type="line"/>
      <point x="578" y="496" type="line"/>
      <point x="583" y="603" type="line" smooth="yes"/>
      <point x="584" y="612"/>
      <point x="571" y="616"/>
      <point x="561" y="616" type="curve" smooth="yes"/>
      <point x="452" y="616" type="line"/>
      <point x="349" y="70" type="line" smooth="yes"/>
      <point x="347" y="58"/>
      <point x="356" y="56"/>
      <point x="368" y="55" type="curve" smooth="yes"/>
      <point x="368" y="55"/>
      <point x="399" y="53"/>
      <point x="426" y="50" type="curve"/>
      <point x="426" y="0" type="line"/>
      <point x="124" y="0" type="line"/>
      <point x="124" y="50" type="line"/>
      <point x="150" y="52"/>
      <point x="179" y="54"/>
      <point x="179" y="54" type="curve" smooth="yes"/>
      <point x="193" y="55"/>
      <point x="204" y="58"/>
      <point x="206" y="71" type="curve" smooth="yes"/>
      <point x="309" y="616" type="line"/>
      <point x="206" y="616" type="line" smooth="yes"/>
      <point x="197" y="616"/>
      <point x="181" y="611"/>
      <point x="178" y="602" type="curve" smooth="yes"/>
      <point x="140" y="496" type="line"/>
      <point x="62" y="496" type="line"/>
      <point x="96" y="671" type="line"/>
    </contour>
    <contour>
      <point x="365" y="-113" type="curve" smooth="yes"/>
      <point x="365" y="-191"/>
      <point x="290" y="-231"/>
      <point x="220" y="-231" type="curve" smooth="yes"/>
      <point x="179" y="-231"/>
      <point x="141" y="-220"/>
      <point x="141" y="-220" type="curve"/>
      <point x="151" y="-170" type="line"/>
      <point x="151" y="-170"/>
      <point x="188" y="-178"/>
      <point x="213" y="-178" type="curve" smooth="yes"/>
      <point x="239" y="-178"/>
      <point x="278" y="-171"/>
      <point x="278" y="-137" type="curve" smooth="yes"/>
      <point x="278" y="-118"/>
      <point x="261" y="-110"/>
      <point x="241" y="-110" type="curve" smooth="yes"/>
      <point x="234" y="-110"/>
      <point x="218" y="-112"/>
      <point x="218" y="-112" type="curve"/>
      <point x="245" y="24" type="line"/>
      <point x="296" y="24" type="line"/>
      <point x="280" y="-54" type="line"/>
      <point x="280" y="-54"/>
      <point x="284" y="-55"/>
      <point x="294" y="-55" type="curve" smooth="yes"/>
      <point x="334" y="-55"/>
      <point x="365" y="-73"/>
    </contour>
  </outline>
</glyph>
<glyph name="ubreve" format="1">
  <advance width="574"/>
  <unicode hex="016D"/>
  <outline>
    <contour>
      <point x="572" y="28" type="line"/>
      <point x="545" y="13"/>
      <point x="471" y="-12"/>
      <point x="414" y="-12" type="curve" smooth="yes"/>
      <point x="345" y="-12"/>
      <point x="332" y="21"/>
      <point x="329" y="35" type="curve"/>
      <point x="285" y="5"/>
      <point x="235" y="-12"/>
      <point x="170" y="-12" type="curve" smooth="yes"/>
      <point x="71" y="-12"/>
      <point x="35" y="63"/>
      <point x="47" y="117" type="curve" smooth="yes"/>
      <point x="112" y="424" type="line"/>
      <point x="28" y="433" type="line"/>
      <point x="28" y="467" type="line"/>
      <point x="193" y="500" type="line"/>
      <point x="262" y="500" type="line"/>
      <point x="180" y="117" type="line" smooth="yes"/>
      <point x="174" y="86"/>
      <point x="188" y="58"/>
      <point x="213" y="58" type="curve" smooth="yes"/>
      <point x="258" y="58"/>
      <point x="297" y="85"/>
      <point x="333" y="118" type="curve"/>
      <point x="411" y="488" type="line"/>
      <point x="544" y="488" type="line"/>
      <point x="462" y="100" type="line" smooth="yes"/>
      <point x="454" y="63"/>
      <point x="467" y="48"/>
      <point x="488" y="48" type="curve" smooth="yes"/>
      <point x="498" y="48"/>
      <point x="511" y="52"/>
      <point x="572" y="84" type="curve"/>
    </contour>
    <contour>
      <point x="550" y="714" type="line"/>
      <point x="532" y="619"/>
      <point x="461" y="551"/>
      <point x="362" y="551" type="curve" smooth="yes"/>
      <point x="284" y="551"/>
      <point x="233" y="593"/>
      <point x="233" y="672" type="curve" smooth="yes"/>
      <point x="233" y="686"/>
      <point x="235" y="700"/>
      <point x="238" y="714" type="curve"/>
      <point x="291" y="714" type="line"/>
      <point x="292" y="660"/>
      <point x="326" y="632"/>
      <point x="378" y="632" type="curve" smooth="yes"/>
      <point x="433" y="632"/>
      <point x="478" y="663"/>
      <point x="499" y="714" type="curve"/>
    </contour>
  </outline>
</glyph>
<glyph name="Uhungarumlaut" format="1">
  <advance width="749"/>
  <unicode hex="0170"/>
  <outline>
    <contour>
      <point x="791" y="621" type="line"/>
      <point x="725" y="616" type="line" smooth="yes"/>
      <point x="716" y="615"/>
      <point x="711" y="609"/>
      <point x="709" y="600" type="curve" smooth="yes"/>
      <point x="632" y="215" type="line" smooth="yes"/>
      <point x="605" y="76"/>
      <point x="516" y="-16"/>
      <point x="332" y="-16" type="curve" smooth="yes"/>
      <point x="184" y="-16"/>
      <point x="92" y="38"/>
      <point x="92" y="162" type="curve" smooth="yes"/>
      <point x="92" y="181"/>
      <point x="96" y="220"/>
      <point x="105" y="265" type="curve" smooth="yes"/>
      <point x="175" y="601" type="line" smooth="yes"/>
      <point x="177" y="613"/>
      <point x="169" y="615"/>
      <point x="155" y="616" type="curve" smooth="yes"/>
      <point x="155" y="616"/>
      <point x="126" y="618"/>
      <point x="99" y="621" type="curve"/>
      <point x="99" y="671" type="line"/>
      <point x="401" y="671" type="line"/>
      <point x="401" y="621" type="line"/>
      <point x="370" y="618"/>
      <point x="339" y="616"/>
      <point x="339" y="616" type="curve" smooth="yes"/>
      <point x="327" y="615"/>
      <point x="320" y="612"/>
      <point x="318" y="600" type="curve" smooth="yes"/>
      <point x="249" y="265" type="line" smooth="yes"/>
      <point x="241" y="227"/>
      <point x="238" y="195"/>
      <point x="238" y="177" type="curve" smooth="yes"/>
      <point x="238" y="92"/>
      <point x="298" y="59"/>
      <point x="358" y="59" type="curve" smooth="yes"/>
      <point x="462" y="59"/>
      <point x="507" y="140"/>
      <point x="529" y="250" type="curve" smooth="yes"/>
      <point x="599" y="601" type="line" smooth="yes"/>
      <point x="601" y="613"/>
      <point x="596" y="615"/>
      <point x="580" y="616" type="curve" smooth="yes"/>
      <point x="580" y="616"/>
      <point x="550" y="618"/>
      <point x="523" y="621" type="curve"/>
      <point x="523" y="671" type="line"/>
      <point x="791" y="671" type="line"/>
    </contour>
    <contour>
      <point x="779" y="876" type="curve" smooth="yes"/>
      <point x="779" y="863"/>
      <point x="768" y="842"/>
      <point x="754" y="834" type="curve" smooth="yes"/>
      <point x="592" y="746" type="line"/>
      <point x="522" y="746" type="line"/>
      <point x="659" y="897" type="line" smooth="yes"/>
      <point x="681" y="922"/>
      <point x="695" y="929"/>
      <point x="722" y="929" type="curve" smooth="yes"/>
      <point x="765" y="929"/>
      <point x="779" y="900"/>
    </contour>
    <contour>
      <point x="550" y="876" type="curve" smooth="yes"/>
      <point x="550" y="863"/>
      <point x="539" y="842"/>
      <point x="525" y="834" type="curve" smooth="yes"/>
      <point x="363" y="746" type="line"/>
      <point x="293" y="746" type="line"/>
      <point x="430" y="897" type="line" smooth="yes"/>
      <point x="452" y="922"/>
      <point x="466" y="929"/>
      <point x="493" y="929" type="curve" smooth="yes"/>
      <point x="536" y="929"/>
      <point x="550" y="900"/>
    </contour>
  </outline>
</glyph>
<glyph name="Uogonek" format="1">
  <advance width="749"/>
  <unicode hex="0172"/>
  <outline>
    <contour>
      <point x="791" y="621" type="line"/>
      <point x="725" y="616" type="line" smooth="yes"/>
      <point x="716" y="615"/>
      <point x="711" y="609"/>
      <point x="709" y="600" type="curve" smooth="yes"/>
      <point x="632" y="215" type="line" smooth="yes"/>
      <point x="605" y="76"/>
      <point x="516" y="-16"/>
      <point x="332" y="-16" type="curve" smooth="yes"/>
      <point x="184" y="-16"/>
      <point x="92" y="38"/>
      <point x="92" y="162" type="curve" smooth="yes"/>
      <point x="92" y="181"/>
      <point x="96" y="220"/>
      <point x="105" y="265" type="curve" smooth="yes"/>
      <point x="175" y="601" type="line" smooth="yes"/>
      <point x="177" y="613"/>
      <point x="169" y="615"/>
      <point x="155" y="616" type="curve" smooth="yes"/>
      <point x="155" y="616"/>
      <point x="126" y="618"/>
      <point x="99" y="621" type="curve"/>
      <point x="99" y="671" type="line"/>
      <point x="401" y="671" type="line"/>
      <point x="401" y="621" type="line"/>
      <point x="370" y="618"/>
      <point x="339" y="616"/>
      <point x="339" y="616" type="curve" smooth="yes"/>
      <point x="327" y="615"/>
      <point x="320" y="612"/>
      <point x="318" y="600" type="curve" smooth="yes"/>
      <point x="249" y="265" type="line" smooth="yes"/>
      <point x="241" y="227"/>
      <point x="238" y="195"/>
      <point x="238" y="177" type="curve" smooth="yes"/>
      <point x="238" y="92"/>
      <point x="298" y="59"/>
      <point x="358" y="59" type="curve" smooth="yes"/>
      <point x="462" y="59"/>
      <point x="507" y="140"/>
      <point x="529" y="250" type="curve" smooth="yes"/>
      <point x="599" y="601" type="line" smooth="yes"/>
      <point x="601" y="613"/>
      <point x="596" y="615"/>
      <point x="580" y="616" type="curve" smooth="yes"/>
      <point x="580" y="616"/>
      <point x="550" y="618"/>
      <point x="523" y="621" type="curve"/>
      <point x="523" y="671" type="line"/>
      <point x="791" y="671" type="line"/>
    </contour>
    <contour>
      <point x="431" y="-177" type="line"/>
      <point x="406" y="-188"/>
      <point x="356" y="-208"/>
      <point x="330" y="-208" type="curve" smooth="yes"/>
      <point x="287" y="-208"/>
      <point x="235" y="-191"/>
      <point x="235" y="-140" type="curve" smooth="yes"/>
      <point x="235" y="-81"/>
      <point x="295" y="-28"/>
      <point x="342" y="1" type="curve"/>
      <point x="405" y="1" type="line"/>
      <point x="368" y="-23"/>
      <point x="320" y="-63"/>
      <point x="320" y="-111" type="curve" smooth="yes"/>
      <point x="320" y="-136"/>
      <point x="338" y="-150"/>
      <point x="362" y="-150" type="curve" smooth="yes"/>
      <point x="375" y="-150"/>
      <point x="399" y="-133"/>
      <point x="411" y="-125" type="curve"/>
    </contour>
  </outline>
</glyph>
<glyph name="Zacute" format="1">
  <advance width="604"/>
  <unicode hex="0179"/>
  <outline>
    <contour>
      <point x="638" y="671" type="line"/>
      <point x="628" y="621" type="line"/>
      <point x="162" y="62" type="line"/>
      <point x="408" y="62" type="line" smooth="yes"/>
      <point x="418" y="62"/>
      <point x="433" y="68"/>
      <point x="436" y="77" type="curve" smooth="yes"/>
      <point x="472" y="207" type="line"/>
      <point x="556" y="207" type="line"/>
      <point x="516" y="0" type="line"/>
      <point x="-21" y="0" type="line"/>
      <point x="-11" y="49" type="line"/>
      <point x="453" y="609" type="line"/>
      <point x="245" y="609" type="line" smooth="yes"/>
      <point x="235" y="609"/>
      <point x="220" y="605"/>
      <point x="217" y="595" type="curve" smooth="yes"/>
      <point x="185" y="489" type="line"/>
      <point x="101" y="489" type="line"/>
      <point x="137" y="671" type="line"/>
    </contour>
    <contour>
      <point x="563" y="876" type="curve" smooth="yes"/>
      <point x="563" y="863"/>
      <point x="552" y="842"/>
      <point x="537" y="834" type="curve" smooth="yes"/>
      <point x="376" y="746" type="line"/>
      <point x="306" y="746" type="line"/>
      <point x="443" y="897" type="line" smooth="yes"/>
      <point x="465" y="922"/>
      <point x="479" y="929"/>
      <point x="506" y="929" type="curve" smooth="yes"/>
      <point x="549" y="929"/>
      <point x="563" y="900"/>
    </contour>
  </outline>
</glyph>
<glyph name="Zdotaccent" format="1">
  <advance width="604"/>
  <unicode hex="017B"/>
  <outline>
    <contour>
      <point x="638" y="671" type="line"/>
      <point x="628" y="621" type="line"/>
      <point x="162" y="62" type="line"/>
      <point x="408" y="62" type="line" smooth="yes"/>
      <point x="418" y="62"/>
      <point x="433" y="68"/>
      <point x="436" y="77" type="curve" smooth="yes"/>
      <point x="472" y="207" type="line"/>
      <point x="556" y="207" type="line"/>
      <point x="516" y="0" type="line"/>
      <point x="-21" y="0" type="line"/>
      <point x="-11" y="49" type="line"/>
      <point x="453" y="609" type="line"/>
      <point x="245" y="609" type="line" smooth="yes"/>
      <point x="235" y="609"/>
      <point x="220" y="605"/>
      <point x="217" y="595" type="curve" smooth="yes"/>
      <point x="185" y="489" type="line"/>
      <point x="101" y="489" type="line"/>
      <point x="137" y="671" type="line"/>
    </contour>
    <contour>
      <point x="472" y="848" type="curve" smooth="yes"/>
      <point x="472" y="811"/>
      <point x="443" y="780"/>
      <point x="405" y="780" type="curve" smooth="yes"/>
      <point x="366" y="780"/>
      <point x="337" y="809"/>
      <point x="337" y="848" type="curve" smooth="yes"/>
      <point x="337" y="888"/>
      <point x="364" y="921"/>
      <point x="404" y="921" type="curve" smooth="yes"/>
      <point x="443" y="921"/>
      <point x="472" y="889"/>
    </contour>
  </outline>
</glyph>
<glyph name="Zcaron" format="1">
  <advance width="604"/>
  <unicode hex="017D"/>
  <outline>
    <contour>
      <point x="638" y="671" type="line"/>
      <point x="628" y="621" type="line"/>
      <point x="162" y="62" type="line"/>
      <point x="408" y="62" type="line" smooth="yes"/>
      <point x="418" y="62"/>
      <point x="433" y="68"/>
      <point x="436" y="77" type="curve" smooth="yes"/>
      <point x="472" y="207" type="line"/>
      <point x="556" y="207" type="line"/>
      <point x="516" y="0" type="line"/>
      <point x="-21" y="0" type="line"/>
      <point x="-11" y="49" type="line"/>
      <point x="453" y="609" type="line"/>
      <point x="245" y="609" type="line" smooth="yes"/>
      <point x="235" y="609"/>
      <point x="220" y="605"/>
      <point x="217" y="595" type="curve" smooth="yes"/>
      <point x="185" y="489" type="line"/>
      <point x="101" y="489" type="line"/>
      <point x="137" y="671" type="line"/>
    </contour>
    <contour>
      <point x="597" y="917" type="line"/>
      <point x="452" y="746" type="line"/>
      <point x="334" y="746" type="line"/>
      <point x="257" y="917" type="line"/>
      <point x="340" y="917" type="line"/>
      <point x="409" y="823" type="line"/>
      <point x="514" y="917" type="line"/>
    </contour>
  </outline>
</glyph>
<glyph name="uni0181" format="1">
  <advance width="686"/>
  <unicode hex="0181"/>
  <outline>
    <contour>
      <point x="652" y="540" type="curve" smooth="yes"/>
      <point x="652" y="443"/>
      <point x="584" y="390"/>
      <point x="495" y="358" type="curve"/>
      <point x="582" y="342"/>
      <point x="633" y="305"/>
      <point x="633" y="226" type="curve" smooth="yes"/>
      <point x="633" y="67"/>
      <point x="509" y="0"/>
      <point x="317" y="0" type="curve" smooth="yes"/>
      <point x="22" y="0" type="line"/>
      <point x="22" y="50" type="line"/>
      <point x="54" y="53"/>
      <point x="85" y="55"/>
      <point x="85" y="55" type="curve" smooth="yes"/>
      <point x="95" y="55"/>
      <point x="101" y="57"/>
      <point x="104" y="71" type="curve" smooth="yes"/>
      <point x="206" y="591" type="line" smooth="yes"/>
      <point x="208" y="603"/>
      <point x="199" y="607"/>
      <point x="188" y="607" type="curve" smooth="yes"/>
      <point x="161" y="607" type="line" smooth="yes"/>
      <point x="139" y="607"/>
      <point x="129" y="601"/>
      <point x="116" y="585" type="curve"/>
      <point x="140" y="514" type="line"/>
      <point x="111" y="489"/>
      <point x="97" y="484"/>
      <point x="69" y="484" type="curve" smooth="yes"/>
      <point x="28" y="484"/>
      <point x="4" y="526"/>
      <point x="4" y="556" type="curve" smooth="yes"/>
      <point x="4" y="632"/>
      <point x="73" y="671"/>
      <point x="163" y="671" type="curve" smooth="yes"/>
      <point x="434" y="671" type="line" smooth="yes"/>
      <point x="603" y="671"/>
      <point x="652" y="613"/>
    </contour>
    <contour>
      <point x="500" y="533" type="curve" smooth="yes"/>
      <point x="500" y="597"/>
      <point x="445" y="618"/>
      <point x="384" y="618" type="curve" smooth="yes"/>
      <point x="374" y="618"/>
      <point x="363" y="617"/>
      <point x="354" y="617" type="curve"/>
      <point x="307" y="375" type="line"/>
      <point x="317" y="374"/>
      <point x="328" y="374"/>
      <point x="332" y="374" type="curve" smooth="yes"/>
      <point x="431" y="374"/>
      <point x="500" y="441"/>
    </contour>
    <contour>
      <point x="482" y="216" type="curve" smooth="yes"/>
      <point x="482" y="298"/>
      <point x="419" y="320"/>
      <point x="350" y="320" type="curve" smooth="yes"/>
      <point x="333" y="320"/>
      <point x="313" y="319"/>
      <point x="295" y="317" type="curve"/>
      <point x="244" y="56" type="line"/>
      <point x="258" y="55"/>
      <point x="274" y="55"/>
      <point x="284" y="55" type="curve" smooth="yes"/>
      <point x="401" y="55"/>
      <point x="482" y="109"/>
    </contour>
  </outline>
</glyph>
<glyph name="uni0183" format="1">
  <advance width="564"/>
  <unicode hex="0183"/>
  <outline>
    <contour>
      <point x="270" y="665" type="curve" smooth="yes"/>
      <point x="232" y="468" type="line"/>
      <point x="268" y="487"/>
      <point x="308" y="500"/>
      <point x="343" y="500" type="curve" smooth="yes"/>
      <point x="450" y="500"/>
      <point x="501" y="395"/>
      <point x="501" y="311" type="curve" smooth="yes"/>
      <point x="501" y="192"/>
      <point x="428" y="-12"/>
      <point x="199" y="-12" type="curve" smooth="yes"/>
      <point x="127" y="-12"/>
      <point x="66" y="7"/>
      <point x="18" y="38" type="curve"/>
      <point x="149" y="737" type="line"/>
      <point x="534" y="737" type="line"/>
      <point x="501" y="573" type="line"/>
      <point x="430" y="573" type="line"/>
      <point x="432" y="658" type="line" smooth="yes"/>
      <point x="433" y="674"/>
      <point x="429" y="680"/>
      <point x="415" y="680" type="curve" smooth="yes"/>
      <point x="288" y="680" type="line" smooth="yes"/>
      <point x="278" y="680"/>
      <point x="271" y="671"/>
    </contour>
    <contour>
      <point x="362" y="307" type="curve" smooth="yes"/>
      <point x="362" y="391"/>
      <point x="333" y="424"/>
      <point x="310" y="424" type="curve" smooth="yes"/>
      <point x="282" y="424"/>
      <point x="245" y="404"/>
      <point x="215" y="378" type="curve"/>
      <point x="159" y="79" type="line"/>
      <point x="170" y="62"/>
      <point x="189" y="44"/>
      <point x="220" y="44" type="curve" smooth="yes"/>
      <point x="286" y="44"/>
      <point x="362" y="183"/>
    </contour>
  </outline>
</glyph>
<glyph name="uni018A" format="1">
  <advance width="743"/>
  <unicode hex="018A"/>
  <outline>
    <contour>
      <point x="725" y="414" type="curve" smooth="yes"/>
      <point x="725" y="176"/>
      <point x="553" y="0"/>
      <point x="271" y="0" type="curve" smooth="yes"/>
      <point x="15" y="0" type="line"/>
      <point x="15" y="50" type="line"/>
      <point x="42" y="52"/>
      <point x="72" y="54"/>
      <point x="72" y="54" type="curve" smooth="yes"/>
      <point x="88" y="55"/>
      <point x="94" y="57"/>
      <point x="97" y="71" type="curve" smooth="yes"/>
      <point x="201" y="600" type="line" smooth="yes"/>
      <point x="202" y="606"/>
      <point x="193" y="608"/>
      <point x="188" y="608" type="curve" smooth="yes"/>
      <point x="141" y="608" type="line" smooth="yes"/>
      <point x="130" y="608"/>
      <point x="119" y="598"/>
      <point x="116" y="594" type="curve"/>
      <point x="144" y="524" type="line"/>
      <point x="116" y="500"/>
      <point x="96" y="487"/>
      <point x="74" y="487" type="curve" smooth="yes"/>
      <point x="43" y="487"/>
      <point x="5" y="517"/>
      <point x="5" y="546" type="curve" smooth="yes"/>
      <point x="5" y="623"/>
      <point x="68" y="671"/>
      <point x="143" y="671" type="curve" smooth="yes"/>
      <point x="385" y="671" type="line" smooth="yes"/>
      <point x="591" y="671"/>
      <point x="725" y="598"/>
    </contour>
    <contour>
      <point x="575" y="423" type="curve" smooth="yes"/>
      <point x="575" y="588"/>
      <point x="463" y="608"/>
      <point x="360" y="611" type="curve" smooth="yes"/>
      <point x="347" y="611" type="line"/>
      <point x="238" y="62" type="line"/>
      <point x="289" y="62" type="line" smooth="yes"/>
      <point x="464" y="64"/>
      <point x="575" y="232"/>
    </contour>
  </outline>
</glyph>
<glyph name="uni018D" format="1">
  <advance width="572"/>
  <unicode hex="018D"/>
  <outline>
    <contour>
      <point x="83" y="-71" type="curve" smooth="yes"/>
      <point x="92" y="-71"/>
      <point x="113" y="-73"/>
      <point x="120" y="-79" type="curve"/>
      <point x="135" y="-157" type="line"/>
      <point x="156" y="-178"/>
      <point x="172" y="-182"/>
      <point x="195" y="-182" type="curve" smooth="yes"/>
      <point x="232" y="-182"/>
      <point x="282" y="-170"/>
      <point x="282" y="-120" type="curve" smooth="yes"/>
      <point x="282" y="-42"/>
      <point x="26" y="14"/>
      <point x="26" y="222" type="curve" smooth="yes"/>
      <point x="26" y="405"/>
      <point x="209" y="500"/>
      <point x="327" y="500" type="curve" smooth="yes"/>
      <point x="431" y="500"/>
      <point x="542" y="456"/>
      <point x="542" y="338" type="curve" smooth="yes"/>
      <point x="542" y="177"/>
      <point x="401" y="94"/>
      <point x="266" y="52" type="curve"/>
      <point x="324" y="-2"/>
      <point x="387" y="-45"/>
      <point x="387" y="-99" type="curve" smooth="yes"/>
      <point x="387" y="-192"/>
      <point x="266" y="-249"/>
      <point x="182" y="-249" type="curve" smooth="yes"/>
      <point x="56" y="-249"/>
      <point x="-2" y="-199"/>
      <point x="-2" y="-151" type="curve" smooth="yes"/>
      <point x="-2" y="-103"/>
      <point x="38" y="-71"/>
    </contour>
    <contour>
      <point x="169" y="231" type="curve" smooth="yes"/>
      <point x="169" y="171"/>
      <point x="197" y="126"/>
      <point x="232" y="86" type="curve"/>
      <point x="316" y="126"/>
      <point x="399" y="211"/>
      <point x="399" y="331" type="curve" smooth="yes"/>
      <point x="399" y="407"/>
      <point x="371" y="445"/>
      <point x="325" y="445" type="curve" smooth="yes"/>
      <point x="232" y="445"/>
      <point x="169" y="346"/>
    </contour>
  </outline>
</glyph>
<glyph name="uni0195" format="1">
  <advance width="885"/>
  <unicode hex="0195"/>
  <outline>
    <contour>
      <point x="339" y="172" type="curve" smooth="yes"/>
      <point x="376" y="349" type="line" smooth="yes"/>
      <point x="386" y="397"/>
      <point x="362" y="424"/>
      <point x="342" y="424" type="curve" smooth="yes"/>
      <point x="312" y="424"/>
      <point x="264" y="392"/>
      <point x="223" y="350" type="curve"/>
      <point x="150" y="0" type="line"/>
      <point x="17" y="0" type="line"/>
      <point x="155" y="661" type="line"/>
      <point x="67" y="669" type="line"/>
      <point x="67" y="705" type="line"/>
      <point x="236" y="737" type="line"/>
      <point x="305" y="737" type="line"/>
      <point x="245" y="454" type="line"/>
      <point x="285" y="479"/>
      <point x="338" y="500"/>
      <point x="397" y="500" type="curve" smooth="yes"/>
      <point x="497" y="500"/>
      <point x="530" y="442"/>
      <point x="512" y="359" type="curve" smooth="yes"/>
      <point x="470" y="162" type="line" smooth="yes"/>
      <point x="456" y="98"/>
      <point x="472" y="59"/>
      <point x="512" y="59" type="curve" smooth="yes"/>
      <point x="543" y="59"/>
      <point x="606" y="82"/>
      <point x="623" y="162" type="curve" smooth="yes"/>
      <point x="691" y="488" type="line"/>
      <point x="824" y="488" type="line"/>
      <point x="759" y="180" type="line" smooth="yes"/>
      <point x="738" y="82"/>
      <point x="642" y="-16"/>
      <point x="486" y="-16" type="curve" smooth="yes"/>
      <point x="354" y="-16"/>
      <point x="316" y="63"/>
    </contour>
  </outline>
</glyph>
<glyph name="uni019D" format="1">
  <advance width="761"/>
  <unicode hex="019D"/>
  <outline>
    <contour>
      <point x="270" y="465" type="line"/>
      <point x="177" y="0" type="line" smooth="yes"/>
      <point x="155" y="-112"/>
      <point x="85" y="-229"/>
      <point x="-55" y="-229" type="curve" smooth="yes"/>
      <point x="-122" y="-229"/>
      <point x="-159" y="-195"/>
      <point x="-159" y="-157" type="curve" smooth="yes"/>
      <point x="-159" y="-118"/>
      <point x="-120" y="-85"/>
      <point x="-85" y="-77" type="curve"/>
      <point x="-16" y="-150" type="line"/>
      <point x="25" y="-144"/>
      <point x="49" y="-65"/>
      <point x="62" y="0" type="curve" smooth="yes"/>
      <point x="179" y="601" type="line" smooth="yes"/>
      <point x="182" y="613"/>
      <point x="174" y="615"/>
      <point x="161" y="616" type="curve" smooth="yes"/>
      <point x="161" y="616"/>
      <point x="132" y="618"/>
      <point x="104" y="621" type="curve"/>
      <point x="104" y="671" type="line"/>
      <point x="339" y="671" type="line"/>
      <point x="339" y="640" type="line"/>
      <point x="534" y="233" type="line"/>
      <point x="607" y="601" type="line" smooth="yes"/>
      <point x="610" y="613"/>
      <point x="600" y="615"/>
      <point x="588" y="616" type="curve" smooth="yes"/>
      <point x="588" y="616"/>
      <point x="558" y="618"/>
      <point x="531" y="621" type="curve"/>
      <point x="531" y="671" type="line"/>
      <point x="805" y="671" type="line"/>
      <point x="805" y="621" type="line"/>
      <point x="740" y="615" type="line" smooth="yes"/>
      <point x="731" y="614"/>
      <point x="725" y="609"/>
      <point x="723" y="600" type="curve" smooth="yes"/>
      <point x="604" y="0" type="line"/>
      <point x="493" y="0" type="line"/>
    </contour>
  </outline>
</glyph>
<glyph name="uni019E" format="1">
  <advance width="578"/>
  <unicode hex="019E"/>
  <outline>
    <contour>
      <point x="531" y="-195" type="line"/>
      <point x="496" y="-211"/>
      <point x="421" y="-229"/>
      <point x="375" y="-229" type="curve" smooth="yes"/>
      <point x="331" y="-229"/>
      <point x="263" y="-220"/>
      <point x="274" y="-167" type="curve" smooth="yes"/>
      <point x="378" y="356" type="line" smooth="yes"/>
      <point x="388" y="405"/>
      <point x="375" y="421"/>
      <point x="354" y="421" type="curve" smooth="yes"/>
      <point x="323" y="421"/>
      <point x="270" y="382"/>
      <point x="228" y="339" type="curve"/>
      <point x="157" y="0" type="line"/>
      <point x="24" y="0" type="line"/>
      <point x="112" y="425" type="line"/>
      <point x="28" y="433" type="line"/>
      <point x="28" y="467" type="line"/>
      <point x="192" y="500" type="line"/>
      <point x="261" y="500" type="line"/>
      <point x="249" y="442" type="line"/>
      <point x="298" y="475"/>
      <point x="358" y="500"/>
      <point x="410" y="500" type="curve" smooth="yes"/>
      <point x="510" y="500"/>
      <point x="535" y="453"/>
      <point x="519" y="369" type="curve" smooth="yes"/>
      <point x="422" y="-129" type="line" smooth="yes"/>
      <point x="416" y="-163"/>
      <point x="436" y="-168"/>
      <point x="446" y="-168" type="curve" smooth="yes"/>
      <point x="467" y="-168"/>
      <point x="500" y="-160"/>
      <point x="529" y="-147" type="curve"/>
    </contour>
  </outline>
</glyph>
<glyph name="Ohorn" format="1">
  <advance width="807"/>
  <unicode hex="01A0"/>
  <outline>
    <contour>
      <point x="861" y="720" type="curve" smooth="yes"/>
      <point x="861" y="633"/>
      <point x="804" y="547"/>
      <point x="721" y="501" type="curve"/>
      <point x="729" y="475"/>
      <point x="733" y="447"/>
      <point x="733" y="417" type="curve" smooth="yes"/>
      <point x="733" y="213"/>
      <point x="603" y="-16"/>
      <point x="341" y="-16" type="curve" smooth="yes"/>
      <point x="155" y="-16"/>
      <point x="48" y="102"/>
      <point x="48" y="264" type="curve" smooth="yes"/>
      <point x="48" y="472"/>
      <point x="194" y="688"/>
      <point x="441" y="688" type="curve" smooth="yes"/>
      <point x="563" y="688"/>
      <point x="646" y="640"/>
      <point x="694" y="562" type="curve"/>
      <point x="735" y="590"/>
      <point x="756" y="624"/>
      <point x="765" y="672" type="curve"/>
      <point x="673" y="672" type="line"/>
      <point x="673" y="672"/>
      <point x="652" y="702"/>
      <point x="652" y="731" type="curve" smooth="yes"/>
      <point x="652" y="787"/>
      <point x="699" y="824"/>
      <point x="751" y="824" type="curve" smooth="yes"/>
      <point x="808" y="824"/>
      <point x="861" y="785"/>
    </contour>
    <contour>
      <point x="577" y="417" type="curve" smooth="yes"/>
      <point x="577" y="553"/>
      <point x="501" y="628"/>
      <point x="432" y="628" type="curve" smooth="yes"/>
      <point x="313" y="628"/>
      <point x="203" y="436"/>
      <point x="203" y="256" type="curve" smooth="yes"/>
      <point x="203" y="118"/>
      <point x="282" y="46"/>
      <point x="348" y="46" type="curve" smooth="yes"/>
      <point x="466" y="46"/>
      <point x="577" y="244"/>
    </contour>
    <contour>
      <point x="674" y="484" type="curve"/>
      <point x="683" y="527" type="line"/>
      <point x="735" y="547"/>
      <point x="789" y="588"/>
      <point x="801" y="646" type="curve"/>
      <point x="727" y="646" type="line"/>
      <point x="727" y="646"/>
      <point x="713" y="674"/>
      <point x="718" y="702" type="curve" smooth="yes"/>
      <point x="728" y="751"/>
      <point x="769" y="767"/>
      <point x="802" y="767" type="curve" smooth="yes"/>
      <point x="847" y="767"/>
      <point x="872" y="733"/>
      <point x="859" y="668" type="curve" smooth="yes"/>
      <point x="846" y="602"/>
      <point x="772" y="514"/>
    </contour>
  </outline>
</glyph>
<glyph name="uni01A3" format="1">
  <advance width="845"/>
  <unicode hex="01A3"/>
  <outline>
    <contour>
      <point x="341" y="142" type="curve" smooth="yes"/>
      <point x="400" y="426" type="line"/>
      <point x="368" y="444"/>
      <point x="346" y="447"/>
      <point x="312" y="447" type="curve" smooth="yes"/>
      <point x="239" y="447"/>
      <point x="175" y="304"/>
      <point x="175" y="185" type="curve" smooth="yes"/>
      <point x="175" y="82"/>
      <point x="218" y="43"/>
      <point x="250" y="43" type="curve" smooth="yes"/>
      <point x="303" y="43"/>
      <point x="327" y="72"/>
    </contour>
    <contour>
      <point x="234" y="-12" type="curve" smooth="yes"/>
      <point x="90" y="-12"/>
      <point x="32" y="71"/>
      <point x="32" y="181" type="curve" smooth="yes"/>
      <point x="32" y="338"/>
      <point x="125" y="500"/>
      <point x="336" y="500" type="curve" smooth="yes"/>
      <point x="447" y="500"/>
      <point x="523" y="464"/>
      <point x="585" y="464" type="curve" smooth="yes"/>
      <point x="618" y="464"/>
      <point x="692" y="469"/>
      <point x="739" y="488" type="curve"/>
      <point x="814" y="488" type="line"/>
      <point x="689" y="-145" type="line" smooth="yes"/>
      <point x="686" y="-159"/>
      <point x="693" y="-167"/>
      <point x="707" y="-168" type="curve" smooth="yes"/>
      <point x="760" y="-172" type="line"/>
      <point x="760" y="-219" type="line"/>
      <point x="468" y="-219" type="line"/>
      <point x="468" y="-172" type="line"/>
      <point x="527" y="-168" type="line" smooth="yes"/>
      <point x="540" y="-168"/>
      <point x="552" y="-157"/>
      <point x="554" y="-145" type="curve" smooth="yes"/>
      <point x="661" y="390" type="line"/>
      <point x="626" y="379"/>
      <point x="557" y="383"/>
      <point x="528" y="393" type="curve"/>
      <point x="475" y="136" type="line" smooth="yes"/>
      <point x="452" y="26"/>
      <point x="325" y="-12"/>
    </contour>
  </outline>
</glyph>
<glyph name="uni01A4" format="1">
  <advance width="660"/>
  <unicode hex="01A4"/>
  <outline>
    <contour>
      <point x="651" y="508" type="curve" smooth="yes"/>
      <point x="651" y="352"/>
      <point x="525" y="247"/>
      <point x="325" y="247" type="curve" smooth="yes"/>
      <point x="314" y="247"/>
      <point x="296" y="247"/>
      <point x="282" y="248" type="curve"/>
      <point x="246" y="70" type="line" smooth="yes"/>
      <point x="244" y="58"/>
      <point x="251" y="56"/>
      <point x="264" y="55" type="curve" smooth="yes"/>
      <point x="264" y="55"/>
      <point x="295" y="53"/>
      <point x="323" y="50" type="curve"/>
      <point x="323" y="0" type="line"/>
      <point x="21" y="0" type="line"/>
      <point x="21" y="50" type="line"/>
      <point x="49" y="53"/>
      <point x="79" y="55"/>
      <point x="79" y="55" type="curve" smooth="yes"/>
      <point x="92" y="56"/>
      <point x="101" y="58"/>
      <point x="103" y="71" type="curve" smooth="yes"/>
      <point x="206" y="591" type="line" smooth="yes"/>
      <point x="208" y="603"/>
      <point x="199" y="607"/>
      <point x="188" y="607" type="curve" smooth="yes"/>
      <point x="161" y="607" type="line" smooth="yes"/>
      <point x="139" y="607"/>
      <point x="129" y="601"/>
      <point x="116" y="585" type="curve"/>
      <point x="140" y="514" type="line"/>
      <point x="111" y="489"/>
      <point x="97" y="484"/>
      <point x="69" y="484" type="curve" smooth="yes"/>
      <point x="28" y="484"/>
      <point x="4" y="526"/>
      <point x="4" y="556" type="curve" smooth="yes"/>
      <point x="4" y="632"/>
      <point x="73" y="671"/>
      <point x="163" y="671" type="curve" smooth="yes"/>
      <point x="163" y="671"/>
      <point x="396" y="675"/>
      <point x="402" y="671" type="curve"/>
      <point x="591" y="671"/>
      <point x="651" y="597"/>
    </contour>
    <contour>
      <point x="505" y="492" type="curve" smooth="yes"/>
      <point x="505" y="571"/>
      <point x="460" y="614"/>
      <point x="371" y="614" type="curve" smooth="yes"/>
      <point x="354" y="614" type="line"/>
      <point x="293" y="308" type="line"/>
      <point x="332" y="307"/>
      <point x="378" y="313"/>
      <point x="419" y="338" type="curve" smooth="yes"/>
      <point x="467" y="366"/>
      <point x="505" y="416"/>
    </contour>
  </outline>
</glyph>
<glyph name="uni01A5" format="1">
  <advance width="541"/>
  <unicode hex="01A5"/>
  <outline>
    <contour>
      <point x="551" y="635" type="curve" smooth="yes"/>
      <point x="551" y="601"/>
      <point x="503" y="573"/>
      <point x="469" y="573" type="curve" smooth="yes"/>
      <point x="447" y="573"/>
      <point x="427" y="582"/>
      <point x="427" y="582" type="curve"/>
      <point x="409" y="666" type="line"/>
      <point x="401" y="674"/>
      <point x="388" y="675"/>
      <point x="379" y="675" type="curve" smooth="yes"/>
      <point x="340" y="675"/>
      <point x="268" y="630"/>
      <point x="247" y="518" type="curve" smooth="yes"/>
      <point x="236" y="463" type="line"/>
      <point x="257" y="475"/>
      <point x="303" y="500"/>
      <point x="356" y="500" type="curve" smooth="yes"/>
      <point x="461" y="500"/>
      <point x="509" y="402"/>
      <point x="509" y="311" type="curve" smooth="yes"/>
      <point x="509" y="151"/>
      <point x="390" y="-12"/>
      <point x="200" y="-12" type="curve" smooth="yes"/>
      <point x="176" y="-12"/>
      <point x="157" y="-8"/>
      <point x="144" y="-4" type="curve"/>
      <point x="114" y="-152" type="line" smooth="yes"/>
      <point x="112" y="-161"/>
      <point x="118" y="-168"/>
      <point x="129" y="-168" type="curve" smooth="yes"/>
      <point x="198" y="-174" type="line"/>
      <point x="198" y="-219" type="line"/>
      <point x="-96" y="-219" type="line"/>
      <point x="-96" y="-174" type="line"/>
      <point x="-75" y="-172"/>
      <point x="-36" y="-169"/>
      <point x="-36" y="-169" type="curve" smooth="yes"/>
      <point x="-26" y="-168"/>
      <point x="-21" y="-161"/>
      <point x="-19" y="-152" type="curve" smooth="yes"/>
      <point x="115" y="539" type="line" smooth="yes"/>
      <point x="133" y="630"/>
      <point x="223" y="737"/>
      <point x="384" y="737" type="curve" smooth="yes"/>
      <point x="495" y="737"/>
      <point x="551" y="702"/>
    </contour>
    <contour>
      <point x="369" y="307" type="curve" smooth="yes"/>
      <point x="369" y="363"/>
      <point x="362" y="430"/>
      <point x="309" y="430" type="curve" smooth="yes"/>
      <point x="281" y="430"/>
      <point x="239" y="394"/>
      <point x="219" y="376" type="curve"/>
      <point x="158" y="68" type="line"/>
      <point x="174" y="58"/>
      <point x="201" y="41"/>
      <point x="219" y="41" type="curve" smooth="yes"/>
      <point x="303" y="41"/>
      <point x="369" y="190"/>
    </contour>
  </outline>
</glyph>
<glyph name="uni01A6" format="1">
  <advance width="668"/>
  <unicode hex="01A6"/>
  <outline>
    <contour>
      <point x="293" y="340" type="curve" smooth="yes"/>
      <point x="362" y="340"/>
      <point x="448" y="364"/>
      <point x="448" y="447" type="curve" smooth="yes"/>
      <point x="448" y="508"/>
      <point x="405" y="532"/>
      <point x="333" y="532" type="curve" smooth="yes"/>
      <point x="300" y="532" type="line"/>
      <point x="264" y="342" type="line"/>
      <point x="276" y="341"/>
      <point x="267" y="340"/>
    </contour>
    <contour>
      <point x="270" y="284" type="curve" smooth="yes"/>
      <point x="252" y="284" type="line"/>
      <point x="211" y="70" type="line" smooth="yes"/>
      <point x="209" y="60"/>
      <point x="212" y="56"/>
      <point x="226" y="55" type="curve" smooth="yes"/>
      <point x="287" y="50" type="line"/>
      <point x="287" y="0" type="line"/>
      <point x="-15" y="0" type="line"/>
      <point x="-15" y="50" type="line"/>
      <point x="44" y="54" type="line" smooth="yes"/>
      <point x="56" y="55"/>
      <point x="63" y="59"/>
      <point x="65" y="71" type="curve" smooth="yes"/>
      <point x="167" y="601" type="line" smooth="yes"/>
      <point x="169" y="613"/>
      <point x="165" y="615"/>
      <point x="152" y="616" type="curve" smooth="yes"/>
      <point x="94" y="621" type="line"/>
      <point x="94" y="671" type="line"/>
      <point x="402" y="671" type="line"/>
      <point x="402" y="629" type="line"/>
      <point x="334" y="624" type="line" smooth="yes"/>
      <point x="321" y="623"/>
      <point x="316" y="620"/>
      <point x="313" y="604" type="curve" smooth="yes"/>
      <point x="310" y="583" type="line"/>
      <point x="375" y="583" type="line" smooth="yes"/>
      <point x="512" y="583"/>
      <point x="601" y="541"/>
      <point x="601" y="448" type="curve" smooth="yes"/>
      <point x="601" y="355"/>
      <point x="487" y="311"/>
      <point x="399" y="293" type="curve"/>
      <point x="461" y="272"/>
      <point x="495" y="209"/>
      <point x="521" y="117" type="curve" smooth="yes"/>
      <point x="544" y="35"/>
      <point x="553" y="-4"/>
      <point x="615" y="-4" type="curve" smooth="yes"/>
      <point x="626" y="-4"/>
      <point x="638" y="-3"/>
      <point x="643" y="-2" type="curve"/>
      <point x="643" y="-53" type="line"/>
      <point x="620" y="-61"/>
      <point x="596" y="-68"/>
      <point x="558" y="-68" type="curve" smooth="yes"/>
      <point x="429" y="-68"/>
      <point x="415" y="19"/>
      <point x="383" y="111" type="curve" smooth="yes"/>
      <point x="357" y="185"/>
      <point x="338" y="284"/>
    </contour>
  </outline>
</glyph>
<glyph name="uni01A7" format="1">
  <advance width="569"/>
  <unicode hex="01A7"/>
  <outline>
    <contour>
      <point x="500" y="207" type="line"/>
      <point x="470" y="41" type="line"/>
      <point x="434" y="20"/>
      <point x="361" y="-16"/>
      <point x="263" y="-16" type="curve" smooth="yes"/>
      <point x="88" y="-16"/>
      <point x="15" y="53"/>
      <point x="15" y="143" type="curve" smooth="yes"/>
      <point x="15" y="263"/>
      <point x="112" y="325"/>
      <point x="254" y="393" type="curve" smooth="yes"/>
      <point x="359" y="443"/>
      <point x="398" y="479"/>
      <point x="398" y="546" type="curve" smooth="yes"/>
      <point x="398" y="602"/>
      <point x="361" y="628"/>
      <point x="316" y="628" type="curve" smooth="yes"/>
      <point x="270" y="628"/>
      <point x="215" y="604"/>
      <point x="215" y="593" type="curve" smooth="yes"/>
      <point x="177" y="491" type="line"/>
      <point x="101" y="491" type="line"/>
      <point x="129" y="647" type="line"/>
      <point x="179" y="666"/>
      <point x="237" y="687"/>
      <point x="328" y="687" type="curve" smooth="yes"/>
      <point x="453" y="687"/>
      <point x="543" y="645"/>
      <point x="543" y="548" type="curve" smooth="yes"/>
      <point x="543" y="431"/>
      <point x="441" y="355"/>
      <point x="343" y="301" type="curve" smooth="yes"/>
      <point x="256" y="253"/>
      <point x="158" y="230"/>
      <point x="158" y="138" type="curve" smooth="yes"/>
      <point x="158" y="76"/>
      <point x="206" y="46"/>
      <point x="256" y="46" type="curve" smooth="yes"/>
      <point x="313" y="46"/>
      <point x="375" y="72"/>
      <point x="381" y="93" type="curve" smooth="yes"/>
      <point x="415" y="207" type="line"/>
    </contour>
  </outline>
</glyph>
<glyph name="uni01AC" format="1">
  <advance width="627"/>
  <unicode hex="01AC"/>
  <outline>
    <contour>
      <point x="692" y="671" type="line"/>
      <point x="656" y="496" type="line"/>
      <point x="578" y="496" type="line"/>
      <point x="583" y="603" type="line" smooth="yes"/>
      <point x="584" y="612"/>
      <point x="571" y="616"/>
      <point x="561" y="616" type="curve" smooth="yes"/>
      <point x="452" y="616" type="line"/>
      <point x="349" y="70" type="line" smooth="yes"/>
      <point x="347" y="58"/>
      <point x="356" y="56"/>
      <point x="368" y="55" type="curve" smooth="yes"/>
      <point x="368" y="55"/>
      <point x="399" y="53"/>
      <point x="426" y="50" type="curve"/>
      <point x="426" y="0" type="line"/>
      <point x="124" y="0" type="line"/>
      <point x="124" y="50" type="line"/>
      <point x="150" y="52"/>
      <point x="179" y="54"/>
      <point x="179" y="54" type="curve" smooth="yes"/>
      <point x="193" y="55"/>
      <point x="204" y="58"/>
      <point x="206" y="71" type="curve" smooth="yes"/>
      <point x="309" y="616" type="line"/>
      <point x="206" y="616" type="line" smooth="yes"/>
      <point x="164" y="616"/>
      <point x="148" y="605"/>
      <point x="148" y="583" type="curve"/>
      <point x="210" y="515" type="line"/>
      <point x="202" y="477"/>
      <point x="166" y="456"/>
      <point x="140" y="456" type="curve" smooth="yes"/>
      <point x="92" y="456"/>
      <point x="62" y="490"/>
      <point x="62" y="536" type="curve" smooth="yes"/>
      <point x="62" y="624"/>
      <point x="128" y="671"/>
      <point x="224" y="671" type="curve" smooth="yes"/>
    </contour>
  </outline>
</glyph>
<glyph name="Uhorn" format="1">
  <advance width="876"/>
  <unicode hex="01AF"/>
  <outline>
    <contour>
      <point x="940" y="768" type="curve" smooth="yes"/>
      <point x="940" y="607"/>
      <point x="843" y="492"/>
      <point x="683" y="468" type="curve"/>
      <point x="632" y="215" type="line" smooth="yes"/>
      <point x="605" y="76"/>
      <point x="516" y="-16"/>
      <point x="332" y="-16" type="curve" smooth="yes"/>
      <point x="184" y="-16"/>
      <point x="92" y="38"/>
      <point x="92" y="162" type="curve" smooth="yes"/>
      <point x="92" y="181"/>
      <point x="96" y="220"/>
      <point x="105" y="265" type="curve" smooth="yes"/>
      <point x="175" y="601" type="line" smooth="yes"/>
      <point x="177" y="613"/>
      <point x="169" y="615"/>
      <point x="155" y="616" type="curve" smooth="yes"/>
      <point x="155" y="616"/>
      <point x="126" y="618"/>
      <point x="99" y="621" type="curve"/>
      <point x="99" y="671" type="line"/>
      <point x="401" y="671" type="line"/>
      <point x="401" y="621" type="line"/>
      <point x="370" y="618"/>
      <point x="339" y="616"/>
      <point x="339" y="616" type="curve" smooth="yes"/>
      <point x="327" y="615"/>
      <point x="320" y="612"/>
      <point x="318" y="600" type="curve" smooth="yes"/>
      <point x="249" y="265" type="line" smooth="yes"/>
      <point x="241" y="227"/>
      <point x="238" y="195"/>
      <point x="238" y="177" type="curve" smooth="yes"/>
      <point x="238" y="92"/>
      <point x="298" y="59"/>
      <point x="358" y="59" type="curve" smooth="yes"/>
      <point x="462" y="59"/>
      <point x="507" y="140"/>
      <point x="529" y="250" type="curve" smooth="yes"/>
      <point x="599" y="601" type="line" smooth="yes"/>
      <point x="601" y="613"/>
      <point x="596" y="615"/>
      <point x="580" y="616" type="curve" smooth="yes"/>
      <point x="580" y="616"/>
      <point x="550" y="618"/>
      <point x="523" y="621" type="curve"/>
      <point x="523" y="671" type="line"/>
      <point x="781" y="671" type="line"/>
      <point x="781" y="621" type="line"/>
      <point x="725" y="616" type="line" smooth="yes"/>
      <point x="716" y="615"/>
      <point x="711" y="609"/>
      <point x="709" y="600" type="curve" smooth="yes"/>
      <point x="697" y="538" type="line"/>
      <point x="795" y="572"/>
      <point x="841" y="642"/>
      <point x="841" y="720" type="curve"/>
      <point x="747" y="720" type="line"/>
      <point x="747" y="720"/>
      <point x="727" y="750"/>
      <point x="727" y="779" type="curve" smooth="yes"/>
      <point x="727" y="835"/>
      <point x="770" y="872"/>
      <point x="822" y="872" type="curve" smooth="yes"/>
      <point x="880" y="872"/>
      <point x="940" y="833"/>
    </contour>
    <contour>
      <point x="738" y="533" type="curve"/>
      <point x="746" y="576" type="line"/>
      <point x="798" y="596"/>
      <point x="852" y="636"/>
      <point x="864" y="694" type="curve"/>
      <point x="791" y="694" type="line"/>
      <point x="791" y="694"/>
      <point x="776" y="722"/>
      <point x="781" y="750" type="curve" smooth="yes"/>
      <point x="791" y="799"/>
      <point x="833" y="815"/>
      <point x="866" y="815" type="curve" smooth="yes"/>
      <point x="911" y="815"/>
      <point x="936" y="782"/>
      <point x="923" y="717" type="curve" smooth="yes"/>
      <point x="910" y="651"/>
      <point x="836" y="563"/>
    </contour>
  </outline>
</glyph>
<glyph name="uni01B1" format="1">
  <advance width="750"/>
  <unicode hex="01B1"/>
  <outline>
    <contour>
      <point x="750" y="671" type="line"/>
      <point x="739" y="611" type="line"/>
      <point x="678" y="604" type="line" smooth="yes"/>
      <point x="664" y="603"/>
      <point x="660" y="595"/>
      <point x="664" y="585" type="curve" smooth="yes"/>
      <point x="664" y="585"/>
      <point x="682" y="538"/>
      <point x="685" y="532" type="curve" smooth="yes"/>
      <point x="701" y="483"/>
      <point x="718" y="430"/>
      <point x="718" y="378" type="curve" smooth="yes"/>
      <point x="718" y="186"/>
      <point x="555" y="-16"/>
      <point x="321" y="-16" type="curve" smooth="yes"/>
      <point x="139" y="-16"/>
      <point x="48" y="94"/>
      <point x="48" y="238" type="curve" smooth="yes"/>
      <point x="48" y="328"/>
      <point x="94" y="417"/>
      <point x="144" y="492" type="curve" smooth="yes"/>
      <point x="153" y="505"/>
      <point x="215" y="585"/>
      <point x="215" y="585" type="curve" smooth="yes"/>
      <point x="222" y="595"/>
      <point x="219" y="605"/>
      <point x="206" y="606" type="curve" smooth="yes"/>
      <point x="149" y="611" type="line"/>
      <point x="163" y="671" type="line"/>
      <point x="382" y="671" type="line"/>
      <point x="288" y="553"/>
      <point x="215" y="380"/>
      <point x="215" y="238" type="curve" smooth="yes"/>
      <point x="215" y="153"/>
      <point x="232" y="61"/>
      <point x="333" y="61" type="curve" smooth="yes"/>
      <point x="498" y="61"/>
      <point x="570" y="330"/>
      <point x="570" y="482" type="curve" smooth="yes"/>
      <point x="570" y="540"/>
      <point x="555" y="611"/>
      <point x="532" y="671" type="curve"/>
    </contour>
  </outline>
</glyph>
<glyph name="uni01B6" format="1">
  <advance width="491"/>
  <unicode hex="01B6"/>
  <outline>
    <contour>
      <point x="280" y="-12" type="curve" smooth="yes"/>
      <point x="212" y="-12"/>
      <point x="156" y="31"/>
      <point x="143" y="31" type="curve" smooth="yes"/>
      <point x="134" y="31"/>
      <point x="126" y="31"/>
      <point x="122" y="25" type="curve" smooth="yes"/>
      <point x="85" y="-39" type="line"/>
      <point x="-16" y="16" type="line"/>
      <point x="163" y="222" type="line"/>
      <point x="83" y="222" type="line"/>
      <point x="83" y="281" type="line"/>
      <point x="214" y="281" type="line"/>
      <point x="314" y="396" type="line"/>
      <point x="251" y="388" type="line"/>
      <point x="216" y="407"/>
      <point x="196" y="425"/>
      <point x="173" y="425" type="curve" smooth="yes"/>
      <point x="159" y="425"/>
      <point x="118" y="415"/>
      <point x="109" y="401" type="curve"/>
      <point x="168" y="347" type="line"/>
      <point x="162" y="337"/>
      <point x="125" y="309"/>
      <point x="92" y="309" type="curve" smooth="yes"/>
      <point x="49" y="309"/>
      <point x="30" y="351"/>
      <point x="30" y="378" type="curve" smooth="yes"/>
      <point x="30" y="441"/>
      <point x="110" y="500"/>
      <point x="203" y="500" type="curve" smooth="yes"/>
      <point x="271" y="500"/>
      <point x="327" y="457"/>
      <point x="340" y="457" type="curve" smooth="yes"/>
      <point x="349" y="457"/>
      <point x="356" y="458"/>
      <point x="361" y="463" type="curve" smooth="yes"/>
      <point x="388" y="526" type="line"/>
      <point x="498" y="470" type="line"/>
      <point x="333" y="281" type="line"/>
      <point x="392" y="281" type="line"/>
      <point x="392" y="222" type="line"/>
      <point x="282" y="222" type="line"/>
      <point x="168" y="92" type="line"/>
      <point x="231" y="100" type="line"/>
      <point x="267" y="81"/>
      <point x="287" y="63"/>
      <point x="310" y="63" type="curve" smooth="yes"/>
      <point x="324" y="63"/>
      <point x="365" y="72"/>
      <point x="374" y="87" type="curve"/>
      <point x="314" y="141" type="line"/>
      <point x="321" y="151"/>
      <point x="358" y="179"/>
      <point x="391" y="179" type="curve" smooth="yes"/>
      <point x="434" y="179"/>
      <point x="453" y="137"/>
      <point x="453" y="110" type="curve" smooth="yes"/>
      <point x="453" y="46"/>
      <point x="373" y="-12"/>
    </contour>
  </outline>
</glyph>
<glyph name="uni01B9" format="1">
  <advance width="522"/>
  <unicode hex="01B9"/>
  <outline>
    <contour>
      <point x="399" y="146" type="line"/>
      <point x="318" y="80" type="line"/>
      <point x="283" y="139" type="line"/>
      <point x="180" y="131"/>
      <point x="116" y="85"/>
      <point x="116" y="-16" type="curve" smooth="yes"/>
      <point x="116" y="-88"/>
      <point x="162" y="-166"/>
      <point x="235" y="-166" type="curve" smooth="yes"/>
      <point x="265" y="-166"/>
      <point x="293" y="-162"/>
      <point x="322" y="-140" type="curve"/>
      <point x="345" y="-49" type="line"/>
      <point x="363" y="-40"/>
      <point x="386" y="-31"/>
      <point x="409" y="-31" type="curve" smooth="yes"/>
      <point x="451" y="-31"/>
      <point x="469" y="-57"/>
      <point x="469" y="-83" type="curve" smooth="yes"/>
      <point x="469" y="-183"/>
      <point x="322" y="-229"/>
      <point x="217" y="-229" type="curve" smooth="yes"/>
      <point x="94" y="-229"/>
      <point x="-15" y="-164"/>
      <point x="-15" y="-35" type="curve" smooth="yes"/>
      <point x="-15" y="108"/>
      <point x="106" y="198"/>
      <point x="243" y="198" type="curve"/>
      <point x="37" y="458" type="line"/>
      <point x="147" y="516" type="line"/>
      <point x="168" y="456" type="line"/>
      <point x="182" y="454"/>
      <point x="187" y="450"/>
      <point x="198" y="450" type="curve" smooth="yes"/>
      <point x="271" y="450"/>
      <point x="325" y="500"/>
      <point x="401" y="500" type="curve" smooth="yes"/>
      <point x="492" y="500"/>
      <point x="542" y="458"/>
      <point x="542" y="394" type="curve" smooth="yes"/>
      <point x="542" y="341"/>
      <point x="498" y="292"/>
      <point x="450" y="292" type="curve" smooth="yes"/>
      <point x="416" y="292"/>
      <point x="387" y="319"/>
      <point x="384" y="336" type="curve"/>
      <point x="457" y="396" type="line"/>
      <point x="449" y="411"/>
      <point x="440" y="418"/>
      <point x="418" y="418" type="curve" smooth="yes"/>
      <point x="375" y="418"/>
      <point x="323" y="386"/>
      <point x="282" y="386" type="curve" smooth="yes"/>
      <point x="244" y="386"/>
      <point x="213" y="389"/>
      <point x="196" y="390" type="curve"/>
    </contour>
  </outline>
</glyph>
<glyph name="uni01BB" format="1">
  <advance width="586"/>
  <unicode hex="01BB"/>
  <outline>
    <contour>
      <point x="583" y="332" type="line"/>
      <point x="571" y="268" type="line"/>
      <point x="397" y="268" type="line"/>
      <point x="328" y="216"/>
      <point x="241" y="164"/>
      <point x="145" y="108" type="curve"/>
      <point x="430" y="108" type="line"/>
      <point x="465" y="196" type="line"/>
      <point x="530" y="196" type="line"/>
      <point x="491" y="0" type="line"/>
      <point x="-9" y="0" type="line"/>
      <point x="8" y="83" type="line"/>
      <point x="60" y="121"/>
      <point x="173" y="186"/>
      <point x="268" y="268" type="curve"/>
      <point x="64" y="268" type="line"/>
      <point x="77" y="332" type="line"/>
      <point x="333" y="332" type="line"/>
      <point x="375" y="378"/>
      <point x="407" y="428"/>
      <point x="417" y="480" type="curve" smooth="yes"/>
      <point x="433" y="559"/>
      <point x="396" y="616"/>
      <point x="321" y="616" type="curve" smooth="yes"/>
      <point x="294" y="616"/>
      <point x="286" y="614"/>
      <point x="262" y="607" type="curve"/>
      <point x="235" y="472" type="line"/>
      <point x="235" y="472"/>
      <point x="195" y="453"/>
      <point x="164" y="453" type="curve" smooth="yes"/>
      <point x="115" y="453"/>
      <point x="94" y="483"/>
      <point x="103" y="527" type="curve" smooth="yes"/>
      <point x="128" y="653"/>
      <point x="291" y="683"/>
      <point x="378" y="683" type="curve" smooth="yes"/>
      <point x="505" y="683"/>
      <point x="591" y="609"/>
      <point x="567" y="489" type="curve" smooth="yes"/>
      <point x="556" y="432"/>
      <point x="523" y="381"/>
      <point x="473" y="332" type="curve"/>
    </contour>
  </outline>
</glyph>
<glyph name="uni01BE" format="1">
  <advance width="479"/>
  <unicode hex="01BE"/>
  <outline>
    <contour>
      <point x="431" y="222" type="curve" smooth="yes"/>
      <point x="431" y="75"/>
      <point x="298" y="-12"/>
      <point x="162" y="-12" type="curve" smooth="yes"/>
      <point x="103" y="-12"/>
      <point x="2" y="3"/>
      <point x="2" y="81" type="curve" smooth="yes"/>
      <point x="2" y="122"/>
      <point x="27" y="153"/>
      <point x="70" y="153" type="curve" smooth="yes"/>
      <point x="84" y="153"/>
      <point x="99" y="150"/>
      <point x="112" y="145" type="curve"/>
      <point x="130" y="60" type="line"/>
      <point x="207" y="2"/>
      <point x="292" y="126"/>
      <point x="292" y="209" type="curve" smooth="yes"/>
      <point x="292" y="287"/>
      <point x="226" y="349"/>
      <point x="155" y="372" type="curve"/>
      <point x="165" y="421" type="line"/>
      <point x="64" y="421" type="line"/>
      <point x="64" y="484" type="line"/>
      <point x="177" y="484" type="line"/>
      <point x="199" y="591" type="line" smooth="yes"/>
      <point x="201" y="604"/>
      <point x="193" y="615"/>
      <point x="173" y="616" type="curve" smooth="yes"/>
      <point x="114" y="619" type="line"/>
      <point x="114" y="671" type="line"/>
      <point x="424" y="671" type="line"/>
      <point x="424" y="619" type="line"/>
      <point x="364" y="616" type="line" smooth="yes"/>
      <point x="348" y="615"/>
      <point x="335" y="604"/>
      <point x="333" y="591" type="curve" smooth="yes"/>
      <point x="311" y="484" type="line"/>
      <point x="415" y="484" type="line"/>
      <point x="415" y="421" type="line"/>
      <point x="298" y="421" type="line"/>
      <point x="292" y="387" type="line"/>
      <point x="370" y="370"/>
      <point x="431" y="304"/>
    </contour>
  </outline>
</glyph>
<glyph name="uni01BF" format="1">
  <advance width="564"/>
  <unicode hex="01BF"/>
  <outline>
    <contour>
      <point x="198" y="-174" type="line"/>
      <point x="198" y="-219" type="line"/>
      <point x="-96" y="-219" type="line"/>
      <point x="-96" y="-174" type="line"/>
      <point x="-36" y="-169" type="line" smooth="yes"/>
      <point x="-26" y="-168"/>
      <point x="-21" y="-161"/>
      <point x="-19" y="-152" type="curve" smooth="yes"/>
      <point x="94" y="424" type="line"/>
      <point x="11" y="433" type="line"/>
      <point x="11" y="467" type="line"/>
      <point x="176" y="500" type="line"/>
      <point x="243" y="500" type="line"/>
      <point x="231" y="439" type="line"/>
      <point x="270" y="470"/>
      <point x="332" y="500"/>
      <point x="394" y="500" type="curve" smooth="yes"/>
      <point x="495" y="500"/>
      <point x="538" y="442"/>
      <point x="538" y="368" type="curve" smooth="yes"/>
      <point x="538" y="159"/>
      <point x="308" y="0"/>
      <point x="125" y="-94" type="curve"/>
      <point x="114" y="-152" type="line" smooth="yes"/>
      <point x="113" y="-160"/>
      <point x="115" y="-167"/>
      <point x="129" y="-168" type="curve" smooth="yes"/>
    </contour>
    <contour>
      <point x="215" y="354" type="curve"/>
      <point x="140" y="-20" type="line"/>
      <point x="291" y="79"/>
      <point x="395" y="205"/>
      <point x="395" y="348" type="curve" smooth="yes"/>
      <point x="395" y="395"/>
      <point x="368" y="420"/>
      <point x="339" y="420" type="curve" smooth="yes"/>
      <point x="307" y="420"/>
      <point x="254" y="394"/>
    </contour>
  </outline>
</glyph>
<glyph name="uni01C3" format="1">
  <advance width="268"/>
  <unicode hex="01C3"/>
  <outline>
    <contour>
      <point x="283" y="616" type="curve"/>
      <point x="283" y="616"/>
      <point x="195" y="347"/>
      <point x="148" y="208" type="curve"/>
      <point x="94" y="208" type="line"/>
      <point x="117" y="593" type="line" smooth="yes"/>
      <point x="117" y="649"/>
      <point x="165" y="687"/>
      <point x="215" y="687" type="curve" smooth="yes"/>
      <point x="264" y="687"/>
      <point x="283" y="665"/>
    </contour>
    <contour>
      <point x="184" y="65" type="curve" smooth="yes"/>
      <point x="184" y="21"/>
      <point x="146" y="-12"/>
      <point x="102" y="-12" type="curve" smooth="yes"/>
      <point x="59" y="-12"/>
      <point x="27" y="26"/>
      <point x="27" y="69" type="curve" smooth="yes"/>
      <point x="27" y="113"/>
      <point x="60" y="149"/>
      <point x="103" y="149" type="curve" smooth="yes"/>
      <point x="151" y="149"/>
      <point x="184" y="110"/>
    </contour>
  </outline>
</glyph>
<glyph name="uni01C4" format="1">
  <advance width="1316"/>
  <unicode hex="01C4"/>
  <outline>
    <contour>
      <point x="695" y="414" type="curve" smooth="yes"/>
      <point x="695" y="176"/>
      <point x="523" y="0"/>
      <point x="241" y="0" type="curve" smooth="yes"/>
      <point x="-15" y="0" type="line"/>
      <point x="-15" y="50" type="line"/>
      <point x="14" y="53"/>
      <point x="45" y="54"/>
      <point x="45" y="54" type="curve" smooth="yes"/>
      <point x="61" y="55"/>
      <point x="64" y="57"/>
      <point x="67" y="71" type="curve" smooth="yes"/>
      <point x="171" y="601" type="line" smooth="yes"/>
      <point x="173" y="613"/>
      <point x="165" y="615"/>
      <point x="153" y="616" type="curve" smooth="yes"/>
      <point x="153" y="616"/>
      <point x="123" y="618"/>
      <point x="95" y="621" type="curve"/>
      <point x="95" y="671" type="line"/>
      <point x="355" y="671" type="line" smooth="yes"/>
      <point x="562" y="671"/>
      <point x="695" y="598"/>
    </contour>
    <contour>
      <point x="545" y="423" type="curve" smooth="yes"/>
      <point x="545" y="588"/>
      <point x="433" y="608"/>
      <point x="330" y="611" type="curve" smooth="yes"/>
      <point x="316" y="611" type="line"/>
      <point x="208" y="62" type="line"/>
      <point x="259" y="62" type="line" smooth="yes"/>
      <point x="435" y="64"/>
      <point x="545" y="232"/>
    </contour>
    <contour>
      <point x="1351" y="671" type="line"/>
      <point x="1341" y="621" type="line"/>
      <point x="875" y="62" type="line"/>
      <point x="1121" y="62" type="line" smooth="yes"/>
      <point x="1131" y="62"/>
      <point x="1146" y="68"/>
      <point x="1149" y="77" type="curve" smooth="yes"/>
      <point x="1185" y="207" type="line"/>
      <point x="1269" y="207" type="line"/>
      <point x="1229" y="0" type="line"/>
      <point x="692" y="0" type="line"/>
      <point x="702" y="49" type="line"/>
      <point x="1166" y="609" type="line"/>
      <point x="958" y="609" type="line" smooth="yes"/>
      <point x="948" y="609"/>
      <point x="933" y="605"/>
      <point x="930" y="595" type="curve" smooth="yes"/>
      <point x="898" y="489" type="line"/>
      <point x="814" y="489" type="line"/>
      <point x="850" y="671" type="line"/>
    </contour>
    <contour>
      <point x="1310" y="917" type="line"/>
      <point x="1165" y="746" type="line"/>
      <point x="1047" y="746" type="line"/>
      <point x="970" y="917" type="line"/>
      <point x="1053" y="917" type="line"/>
      <point x="1122" y="823" type="line"/>
      <point x="1227" y="917" type="line"/>
    </contour>
  </outline>
</glyph>
<glyph name="uni01C6" format="1">
  <advance width="1057"/>
  <unicode hex="01C6"/>
  <outline>
    <contour>
      <point x="570" y="737" type="line"/>
      <point x="455" y="90" type="line" smooth="yes"/>
      <point x="449" y="57"/>
      <point x="463" y="49"/>
      <point x="471" y="49" type="curve" smooth="yes"/>
      <point x="499" y="49"/>
      <point x="542" y="68"/>
      <point x="564" y="79" type="curve"/>
      <point x="564" y="30" type="line"/>
      <point x="530" y="10"/>
      <point x="464" y="-12"/>
      <point x="412" y="-12" type="curve" smooth="yes"/>
      <point x="362" y="-12"/>
      <point x="333" y="6"/>
      <point x="322" y="36" type="curve"/>
      <point x="286" y="9"/>
      <point x="239" y="-12"/>
      <point x="196" y="-12" type="curve" smooth="yes"/>
      <point x="80" y="-12"/>
      <point x="32" y="83"/>
      <point x="32" y="169" type="curve" smooth="yes"/>
      <point x="32" y="322"/>
      <point x="133" y="500"/>
      <point x="335" y="500" type="curve" smooth="yes"/>
      <point x="360" y="500"/>
      <point x="380" y="492"/>
      <point x="393" y="488" type="curve"/>
      <point x="423" y="661" type="line"/>
      <point x="333" y="669" type="line"/>
      <point x="333" y="705" type="line"/>
      <point x="502" y="737" type="line"/>
    </contour>
    <contour>
      <point x="376" y="394" type="line" smooth="yes"/>
      <point x="377" y="399"/>
      <point x="357" y="443"/>
      <point x="333" y="443" type="curve" smooth="yes"/>
      <point x="263" y="443"/>
      <point x="170" y="334"/>
      <point x="170" y="175" type="curve" smooth="yes"/>
      <point x="170" y="94"/>
      <point x="190" y="59"/>
      <point x="227" y="59" type="curve" smooth="yes"/>
      <point x="261" y="59"/>
      <point x="296" y="96"/>
      <point x="330" y="135" type="curve"/>
    </contour>
    <contour>
      <point x="1064" y="470" type="line"/>
      <point x="734" y="92" type="line"/>
      <point x="797" y="105" type="line"/>
      <point x="833" y="86"/>
      <point x="853" y="73"/>
      <point x="876" y="73" type="curve" smooth="yes"/>
      <point x="890" y="73"/>
      <point x="931" y="87"/>
      <point x="940" y="102" type="curve"/>
      <point x="880" y="166" type="line"/>
      <point x="887" y="176"/>
      <point x="924" y="204"/>
      <point x="957" y="204" type="curve" smooth="yes"/>
      <point x="1000" y="204"/>
      <point x="1019" y="157"/>
      <point x="1019" y="130" type="curve" smooth="yes"/>
      <point x="1019" y="66"/>
      <point x="939" y="-11"/>
      <point x="846" y="-11" type="curve" smooth="yes"/>
      <point x="778" y="-11"/>
      <point x="722" y="31"/>
      <point x="709" y="31" type="curve" smooth="yes"/>
      <point x="700" y="31"/>
      <point x="692" y="31"/>
      <point x="688" y="25" type="curve" smooth="yes"/>
      <point x="651" y="-39" type="line"/>
      <point x="550" y="16" type="line"/>
      <point x="880" y="396" type="line"/>
      <point x="817" y="383" type="line"/>
      <point x="782" y="402"/>
      <point x="762" y="415"/>
      <point x="739" y="415" type="curve" smooth="yes"/>
      <point x="725" y="415"/>
      <point x="684" y="401"/>
      <point x="675" y="386" type="curve"/>
      <point x="734" y="323" type="line"/>
      <point x="728" y="312"/>
      <point x="691" y="284"/>
      <point x="658" y="284" type="curve" smooth="yes"/>
      <point x="615" y="284"/>
      <point x="596" y="331"/>
      <point x="596" y="358" type="curve" smooth="yes"/>
      <point x="596" y="422"/>
      <point x="676" y="500"/>
      <point x="769" y="500" type="curve" smooth="yes"/>
      <point x="837" y="500"/>
      <point x="893" y="457"/>
      <point x="906" y="457" type="curve" smooth="yes"/>
      <point x="915" y="457"/>
      <point x="922" y="458"/>
      <point x="927" y="463" type="curve" smooth="yes"/>
      <point x="954" y="526" type="line"/>
    </contour>
    <contour>
      <point x="1080" y="722" type="line"/>
      <point x="935" y="551" type="line"/>
      <point x="817" y="551" type="line"/>
      <point x="740" y="722" type="line"/>
      <point x="823" y="722" type="line"/>
      <point x="892" y="628" type="line"/>
      <point x="997" y="722" type="line"/>
    </contour>
  </outline>
</glyph>
<glyph name="uni01C8" format="1">
  <advance width="877"/>
  <unicode hex="01C8"/>
  <outline>
    <contour>
      <point x="528" y="202" type="line"/>
      <point x="488" y="0" type="line"/>
      <point x="-15" y="0" type="line"/>
      <point x="-15" y="50" type="line"/>
      <point x="12" y="53"/>
      <point x="42" y="54"/>
      <point x="42" y="54" type="curve" smooth="yes"/>
      <point x="61" y="56"/>
      <point x="65" y="58"/>
      <point x="67" y="71" type="curve" smooth="yes"/>
      <point x="171" y="601" type="line" smooth="yes"/>
      <point x="174" y="612"/>
      <point x="166" y="615"/>
      <point x="155" y="616" type="curve" smooth="yes"/>
      <point x="155" y="616"/>
      <point x="125" y="618"/>
      <point x="96" y="621" type="curve"/>
      <point x="96" y="671" type="line"/>
      <point x="398" y="671" type="line"/>
      <point x="398" y="621" type="line"/>
      <point x="365" y="618"/>
      <point x="333" y="616"/>
      <point x="333" y="616" type="curve" smooth="yes"/>
      <point x="324" y="615"/>
      <point x="317" y="612"/>
      <point x="314" y="600" type="curve" smooth="yes"/>
      <point x="208" y="60" type="line"/>
      <point x="384" y="60" type="line" smooth="yes"/>
      <point x="394" y="60"/>
      <point x="409" y="66"/>
      <point x="412" y="74" type="curve" smooth="yes"/>
      <point x="453" y="202" type="line"/>
    </contour>
    <contour>
      <point x="871" y="663" type="curve" smooth="yes"/>
      <point x="871" y="620"/>
      <point x="835" y="585"/>
      <point x="792" y="585" type="curve" smooth="yes"/>
      <point x="749" y="585"/>
      <point x="715" y="620"/>
      <point x="715" y="663" type="curve" smooth="yes"/>
      <point x="715" y="706"/>
      <point x="749" y="740"/>
      <point x="792" y="740" type="curve" smooth="yes"/>
      <point x="835" y="740"/>
      <point x="871" y="706"/>
    </contour>
    <contour>
      <point x="835" y="500" type="line"/>
      <point x="764" y="84" type="line" smooth="yes"/>
      <point x="746" y="-17"/>
      <point x="656" y="-229"/>
      <point x="518" y="-229" type="curve" smooth="yes"/>
      <point x="471" y="-229"/>
      <point x="431" y="-204"/>
      <point x="431" y="-171" type="curve" smooth="yes"/>
      <point x="431" y="-146"/>
      <point x="449" y="-132"/>
      <point x="472" y="-117" type="curve"/>
      <point x="567" y="-142" type="line"/>
      <point x="585" y="-114"/>
      <point x="606" y="-55"/>
      <point x="615" y="-6" type="curve" smooth="yes"/>
      <point x="689" y="422" type="line"/>
      <point x="603" y="431" type="line"/>
      <point x="603" y="467" type="line"/>
      <point x="769" y="500" type="line"/>
    </contour>
  </outline>
</glyph>
<glyph name="uni01C9" format="1">
  <advance width="624"/>
  <unicode hex="01C9"/>
  <outline>
    <contour>
      <point x="304" y="29" type="line"/>
      <point x="256" y="4"/>
      <point x="196" y="-12"/>
      <point x="144" y="-12" type="curve" smooth="yes"/>
      <point x="78" y="-12"/>
      <point x="39" y="18"/>
      <point x="39" y="64" type="curve" smooth="yes"/>
      <point x="39" y="75"/>
      <point x="40" y="87"/>
      <point x="43" y="100" type="curve" smooth="yes"/>
      <point x="152" y="661" type="line"/>
      <point x="64" y="669" type="line"/>
      <point x="64" y="705" type="line"/>
      <point x="233" y="737" type="line"/>
      <point x="299" y="737" type="line"/>
      <point x="176" y="102" type="line" smooth="yes"/>
      <point x="172" y="79"/>
      <point x="177" y="53"/>
      <point x="202" y="53" type="curve" smooth="yes"/>
      <point x="218" y="53"/>
      <point x="257" y="62"/>
      <point x="304" y="83" type="curve"/>
    </contour>
    <contour>
      <point x="617" y="663" type="curve" smooth="yes"/>
      <point x="617" y="620"/>
      <point x="581" y="585"/>
      <point x="538" y="585" type="curve" smooth="yes"/>
      <point x="495" y="585"/>
      <point x="461" y="620"/>
      <point x="461" y="663" type="curve" smooth="yes"/>
      <point x="461" y="706"/>
      <point x="495" y="740"/>
      <point x="538" y="740" type="curve" smooth="yes"/>
      <point x="581" y="740"/>
      <point x="617" y="706"/>
    </contour>
    <contour>
      <point x="581" y="500" type="line"/>
      <point x="510" y="84" type="line" smooth="yes"/>
      <point x="492" y="-17"/>
      <point x="402" y="-229"/>
      <point x="264" y="-229" type="curve" smooth="yes"/>
      <point x="217" y="-229"/>
      <point x="177" y="-204"/>
      <point x="177" y="-171" type="curve" smooth="yes"/>
      <point x="177" y="-146"/>
      <point x="195" y="-132"/>
      <point x="218" y="-117" type="curve"/>
      <point x="313" y="-142" type="line"/>
      <point x="331" y="-114"/>
      <point x="352" y="-55"/>
      <point x="361" y="-6" type="curve" smooth="yes"/>
      <point x="435" y="422" type="line"/>
      <point x="349" y="431" type="line"/>
      <point x="349" y="467" type="line"/>
      <point x="515" y="500" type="line"/>
    </contour>
  </outline>
</glyph>
